Mayek_Rounded-Medium.ufo
<glyph name="exclam" format="1">
  <advance width="322"/>
  <unicode hex="0021"/>
  <outline>
    <contour>
      <point x="198" y="198"/>
      <point x="213" y="216"/>
      <point x="213" y="239" type="curve" smooth="yes"/>
      <point x="213" y="570" type="line" smooth="yes"/>
      <point x="213" y="593"/>
      <point x="198" y="611"/>
      <point x="179" y="611" type="curve" smooth="yes"/>
      <point x="160" y="611"/>
      <point x="145" y="593"/>
      <point x="145" y="570" type="curve" smooth="yes"/>
      <point x="145" y="239" type="line" smooth="yes"/>
      <point x="145" y="216"/>
      <point x="160" y="198"/>
      <point x="179" y="198" type="curve" smooth="yes"/>
    </contour>
    <contour>
      <point x="201" y="38"/>
      <point x="226" y="51"/>
      <point x="226" y="81" type="curve" smooth="yes"/>
      <point x="226" y="107"/>
      <point x="207" y="130"/>
      <point x="178" y="130" type="curve" smooth="yes"/>
      <point x="154" y="130"/>
      <point x="133" y="112"/>
      <point x="133" y="86" type="curve" smooth="yes"/>
      <point x="133" y="59"/>
      <point x="154" y="38"/>
      <point x="181" y="38" type="curve" smooth="yes"/>
    </contour>
  </outline>
</glyph>
<glyph name="quotesingle" format="1">
  <advance width="300"/>
  <unicode hex="0027"/>
  <outline>
    <contour>
      <point x="215" y="493"/>
      <point x="230" y="511"/>
      <point x="230" y="534" type="curve" smooth="yes"/>
      <point x="230" y="599" type="line" smooth="yes"/>
      <point x="230" y="622"/>
      <point x="215" y="639"/>
      <point x="196" y="639" type="curve" smooth="yes"/>
      <point x="177" y="639"/>
      <point x="162" y="622"/>
      <point x="162" y="599" type="curve" smooth="yes"/>
      <point x="162" y="534" type="line" smooth="yes"/>
      <point x="162" y="511"/>
      <point x="177" y="493"/>
      <point x="196" y="493" type="curve" smooth="yes"/>
    </contour>
  </outline>
</glyph>
<glyph name="parenleft" format="1">
  <advance width="322"/>
  <unicode hex="0028"/>
  <outline>
    <contour>
      <point x="209" y="-82"/>
      <point x="216" y="-69"/>
      <point x="216" y="-56" type="curve" smooth="yes"/>
      <point x="216" y="-6"/>
      <point x="131" y="90"/>
      <point x="131" y="289" type="curve" smooth="yes"/>
      <point x="131" y="475"/>
      <point x="218" y="609"/>
      <point x="218" y="649" type="curve" smooth="yes"/>
      <point x="218" y="658"/>
      <point x="212" y="675"/>
      <point x="192" y="675" type="curve" smooth="yes"/>
      <point x="173" y="675"/>
      <point x="159" y="658"/>
      <point x="149" y="634" type="curve" smooth="yes"/>
      <point x="102" y="524"/>
      <point x="63" y="430"/>
      <point x="63" y="297" type="curve" smooth="yes"/>
      <point x="63" y="145"/>
      <point x="113" y="34"/>
      <point x="142" y="-31" type="curve" smooth="yes"/>
      <point x="158" y="-68"/>
      <point x="173" y="-82"/>
      <point x="191" y="-82" type="curve" smooth="yes"/>
    </contour>
  </outline>
</glyph>
<glyph name="parenright" format="1">
  <advance width="322"/>
  <unicode hex="0029"/>
  <outline>
    <contour>
      <point x="158" y="-82"/>
      <point x="173" y="-68"/>
      <point x="189" y="-31" type="curve" smooth="yes"/>
      <point x="218" y="34"/>
      <point x="268" y="145"/>
      <point x="268" y="297" type="curve" smooth="yes"/>
      <point x="268" y="430"/>
      <point x="229" y="524"/>
      <point x="182" y="634" type="curve" smooth="yes"/>
      <point x="172" y="658"/>
      <point x="158" y="675"/>
      <point x="139" y="675" type="curve" smooth="yes"/>
      <point x="119" y="675"/>
      <point x="113" y="658"/>
      <point x="113" y="649" type="curve" smooth="yes"/>
      <point x="113" y="609"/>
      <point x="200" y="475"/>
      <point x="200" y="289" type="curve" smooth="yes"/>
      <point x="200" y="90"/>
      <point x="115" y="-6"/>
      <point x="115" y="-56" type="curve" smooth="yes"/>
      <point x="115" y="-69"/>
      <point x="122" y="-82"/>
      <point x="140" y="-82" type="curve" smooth="yes"/>
    </contour>
  </outline>
</glyph>
<glyph name="comma" format="1">
  <advance width="200"/>
  <unicode hex="002C"/>
  <outline>
    <contour>
      <point x="130" y="-121"/>
      <point x="183" y="-71"/>
      <point x="183" y="-7" type="curve" smooth="yes"/>
      <point x="183" y="44"/>
      <point x="147" y="82"/>
      <point x="104" y="82" type="curve" smooth="yes"/>
      <point x="72" y="82"/>
      <point x="50" y="61"/>
      <point x="50" y="34" type="curve" smooth="yes"/>
      <point x="50" y="6"/>
      <point x="72" y="-16"/>
      <point x="100" y="-16" type="curve" smooth="yes"/>
      <point x="125" y="-16"/>
      <point x="146" y="3"/>
      <point x="146" y="31" type="curve"/>
      <point x="113" y="22" type="line"/>
      <point x="129" y="11"/>
      <point x="134" y="-1"/>
      <point x="134" y="-17" type="curve" smooth="yes"/>
      <point x="134" y="-49"/>
      <point x="112" y="-65"/>
      <point x="85" y="-79" type="curve" smooth="yes"/>
      <point x="73" y="-85"/>
      <point x="64" y="-91"/>
      <point x="64" y="-101" type="curve" smooth="yes"/>
      <point x="64" y="-111"/>
      <point x="71" y="-121"/>
      <point x="87" y="-121" type="curve" smooth="yes"/>
    </contour>
  </outline>
</glyph>
<glyph name="hyphen" format="1">
  <advance width="378"/>
  <unicode hex="002D"/>
  <outline>
    <contour>
      <point x="313" y="243" type="line" smooth="yes"/>
      <point x="332" y="243"/>
      <point x="346" y="256"/>
      <point x="346" y="273" type="curve" smooth="yes"/>
      <point x="346" y="290"/>
      <point x="332" y="302"/>
      <point x="313" y="302" type="curve" smooth="yes"/>
      <point x="65" y="302" type="line" smooth="yes"/>
      <point x="47" y="302"/>
      <point x="32" y="290"/>
      <point x="32" y="273" type="curve" smooth="yes"/>
      <point x="32" y="257"/>
      <point x="47" y="243"/>
      <point x="65" y="243" type="curve" smooth="yes"/>
    </contour>
  </outline>
</glyph>
<glyph name="period" format="1">
  <advance width="200"/>
  <unicode hex="002E"/>
  <outline>
    <contour>
      <point x="132" y="-12"/>
      <point x="156" y="1"/>
      <point x="156" y="30" type="curve" smooth="yes"/>
      <point x="156" y="55"/>
      <point x="137" y="77"/>
      <point x="109" y="77" type="curve" smooth="yes"/>
      <point x="86" y="77"/>
      <point x="66" y="60"/>
      <point x="66" y="35" type="curve" smooth="yes"/>
      <point x="66" y="9"/>
      <point x="87" y="-12"/>
      <point x="113" y="-12" type="curve" smooth="yes"/>
    </contour>
  </outline>
</glyph>
<glyph name="colon" format="1">
  <advance width="200"/>
  <unicode hex="003A"/>
  <outline>
    <contour>
      <point x="140" y="68"/>
      <point x="165" y="81"/>
      <point x="165" y="111" type="curve" smooth="yes"/>
      <point x="165" y="137"/>
      <point x="146" y="160"/>
      <point x="117" y="160" type="curve" smooth="yes"/>
      <point x="93" y="160"/>
      <point x="72" y="142"/>
      <point x="72" y="116" type="curve" smooth="yes"/>
      <point x="72" y="89"/>
      <point x="93" y="68"/>
      <point x="120" y="68" type="curve" smooth="yes"/>
    </contour>
    <contour>
      <point x="140" y="345"/>
      <point x="165" y="358"/>
      <point x="165" y="388" type="curve" smooth="yes"/>
      <point x="165" y="414"/>
      <point x="146" y="437"/>
      <point x="117" y="437" type="curve" smooth="yes"/>
      <point x="93" y="437"/>
      <point x="72" y="419"/>
      <point x="72" y="394" type="curve" smooth="yes"/>
      <point x="72" y="367"/>
      <point x="93" y="345"/>
      <point x="120" y="345" type="curve" smooth="yes"/>
    </contour>
  </outline>
</glyph>
<glyph name="semicolon" format="1">
  <advance width="170"/>
  <unicode hex="003B"/>
  <outline>
    <contour>
      <point x="129" y="148"/>
      <point x="154" y="161"/>
      <point x="154" y="191" type="curve" smooth="yes"/>
      <point x="154" y="217"/>
      <point x="135" y="240"/>
      <point x="106" y="240" type="curve" smooth="yes"/>
      <point x="82" y="240"/>
      <point x="61" y="222"/>
      <point x="61" y="196" type="curve" smooth="yes"/>
      <point x="61" y="169"/>
      <point x="82" y="148"/>
      <point x="109" y="148" type="curve" smooth="yes"/>
    </contour>
    <component base="comma" xOffset="-5"/>
  </outline>
</glyph>
<glyph name="question" format="1">
  <advance width="400"/>
  <unicode hex="003F"/>
  <outline>
    <contour>
      <point x="222" y="130"/>
      <point x="234" y="150"/>
      <point x="234" y="173" type="curve" smooth="yes"/>
      <point x="235" y="221" type="line" smooth="yes"/>
      <point x="237" y="248"/>
      <point x="245" y="273"/>
      <point x="283" y="308" type="curve" smooth="yes"/>
      <point x="331" y="353"/>
      <point x="383" y="388"/>
      <point x="383" y="463" type="curve" smooth="yes"/>
      <point x="383" y="544"/>
      <point x="324" y="602"/>
      <point x="233" y="602" type="curve" smooth="yes"/>
      <point x="143" y="602"/>
      <point x="81" y="545"/>
      <point x="81" y="477" type="curve" smooth="yes"/>
      <point x="81" y="411"/>
      <point x="138" y="379"/>
      <point x="173" y="379" type="curve" smooth="yes"/>
      <point x="192" y="379"/>
      <point x="208" y="388"/>
      <point x="208" y="407" type="curve" smooth="yes"/>
      <point x="208" y="420"/>
      <point x="201" y="426"/>
      <point x="191" y="430" type="curve" smooth="yes"/>
      <point x="173" y="438"/>
      <point x="150" y="448"/>
      <point x="150" y="481" type="curve" smooth="yes"/>
      <point x="150" y="518"/>
      <point x="185" y="543"/>
      <point x="235" y="543" type="curve" smooth="yes"/>
      <point x="286" y="543"/>
      <point x="322" y="508"/>
      <point x="322" y="468" type="curve" smooth="yes"/>
      <point x="322" y="420"/>
      <point x="285" y="393"/>
      <point x="233" y="347" type="curve" smooth="yes"/>
      <point x="178" y="302"/>
      <point x="163" y="270"/>
      <point x="163" y="220" type="curve" smooth="yes"/>
      <point x="163" y="174" type="line" smooth="yes"/>
      <point x="163" y="149"/>
      <point x="176" y="130"/>
      <point x="200" y="130" type="curve" smooth="yes"/>
    </contour>
    <contour>
      <point x="223" y="-12"/>
      <point x="248" y="2"/>
      <point x="248" y="31" type="curve" smooth="yes"/>
      <point x="248" y="58"/>
      <point x="229" y="81"/>
      <point x="200" y="81" type="curve" smooth="yes"/>
      <point x="176" y="81"/>
      <point x="155" y="63"/>
      <point x="155" y="37" type="curve" smooth="yes"/>
      <point x="155" y="10"/>
      <point x="176" y="-12"/>
      <point x="203" y="-12" type="curve" smooth="yes"/>
    </contour>
  </outline>
</glyph>
<glyph name="bracketleft" format="1">
  <advance width="300"/>
  <unicode hex="005B"/>
  <outline>
    <contour>
      <point x="100" y="-72"/>
      <point x="115" y="-55"/>
      <point x="115" y="-32" type="curve" smooth="yes"/>
      <point x="115" y="629" type="line" smooth="yes"/>
      <point x="115" y="652"/>
      <point x="100" y="669"/>
      <point x="81" y="669" type="curve" smooth="yes"/>
      <point x="62" y="669"/>
      <point x="47" y="652"/>
      <point x="47" y="629" type="curve" smooth="yes"/>
      <point x="47" y="-32" type="line" smooth="yes"/>
      <point x="47" y="-55"/>
      <point x="62" y="-72"/>
      <point x="81" y="-72" type="curve" smooth="yes"/>
    </contour>
    <contour>
      <point x="81" y="610" type="line"/>
      <point x="168" y="610" type="line" smooth="yes"/>
      <point x="187" y="610"/>
      <point x="201" y="623"/>
      <point x="201" y="640" type="curve" smooth="yes"/>
      <point x="201" y="657"/>
      <point x="187" y="669"/>
      <point x="168" y="669" type="curve" smooth="yes"/>
      <point x="81" y="669" type="line"/>
    </contour>
    <contour>
      <point x="81" y="-72" type="line"/>
      <point x="168" y="-72" type="line" smooth="yes"/>
      <point x="187" y="-72"/>
      <point x="201" y="-59"/>
      <point x="201" y="-42" type="curve" smooth="yes"/>
      <point x="201" y="-26"/>
      <point x="187" y="-13"/>
      <point x="168" y="-13" type="curve" smooth="yes"/>
      <point x="81" y="-13" type="line"/>
    </contour>
  </outline>
</glyph>
<glyph name="bracketright" format="1">
  <advance width="300"/>
  <unicode hex="005D"/>
  <outline>
    <contour>
      <point x="245" y="-72"/>
      <point x="260" y="-55"/>
      <point x="260" y="-32" type="curve" smooth="yes"/>
      <point x="260" y="629" type="line" smooth="yes"/>
      <point x="260" y="652"/>
      <point x="245" y="669"/>
      <point x="226" y="669" type="curve" smooth="yes"/>
      <point x="207" y="669"/>
      <point x="192" y="652"/>
      <point x="192" y="629" type="curve" smooth="yes"/>
      <point x="192" y="-32" type="line" smooth="yes"/>
      <point x="192" y="-55"/>
      <point x="207" y="-72"/>
      <point x="226" y="-72" type="curve" smooth="yes"/>
    </contour>
    <contour>
      <point x="139" y="669" type="line" smooth="yes"/>
      <point x="121" y="669"/>
      <point x="106" y="657"/>
      <point x="106" y="640" type="curve" smooth="yes"/>
      <point x="106" y="623"/>
      <point x="121" y="610"/>
      <point x="139" y="610" type="curve" smooth="yes"/>
      <point x="226" y="610" type="line"/>
      <point x="226" y="669" type="line"/>
    </contour>
    <contour>
      <point x="139" y="-13" type="line" smooth="yes"/>
      <point x="121" y="-13"/>
      <point x="106" y="-26"/>
      <point x="106" y="-42" type="curve" smooth="yes"/>
      <point x="106" y="-59"/>
      <point x="121" y="-72"/>
      <point x="139" y="-72" type="curve" smooth="yes"/>
      <point x="226" y="-72" type="line"/>
      <point x="226" y="-13" type="line"/>
    </contour>
  </outline>
</glyph>
<glyph name="quoteleft" format="1">
  <advance width="300"/>
  <unicode hex="2018"/>
  <outline>
    <contour>
      <point x="175" y="495"/>
      <point x="181" y="505"/>
      <point x="181" y="515" type="curve" smooth="yes"/>
      <point x="181" y="525"/>
      <point x="172" y="531"/>
      <point x="161" y="537" type="curve" smooth="yes"/>
      <point x="134" y="551"/>
      <point x="111" y="567"/>
      <point x="111" y="599" type="curve" smooth="yes"/>
      <point x="111" y="615"/>
      <point x="117" y="626"/>
      <point x="132" y="637" type="curve"/>
      <point x="100" y="646" type="line"/>
      <point x="100" y="619"/>
      <point x="120" y="600"/>
      <point x="146" y="600" type="curve" smooth="yes"/>
      <point x="173" y="600"/>
      <point x="195" y="621"/>
      <point x="195" y="649" type="curve" smooth="yes"/>
      <point x="195" y="677"/>
      <point x="173" y="698"/>
      <point x="141" y="698" type="curve" smooth="yes"/>
      <point x="98" y="698"/>
      <point x="62" y="660"/>
      <point x="62" y="609" type="curve" smooth="yes"/>
      <point x="62" y="545"/>
      <point x="116" y="495"/>
      <point x="159" y="495" type="curve" smooth="yes"/>
    </contour>
  </outline>
</glyph>
<glyph name="quoteright" format="1">
  <advance width="300"/>
  <unicode hex="2019"/>
  <outline>
    <contour>
      <point x="196" y="495"/>
      <point x="249" y="545"/>
      <point x="249" y="609" type="curve" smooth="yes"/>
      <point x="249" y="660"/>
      <point x="213" y="698"/>
      <point x="170" y="698" type="curve" smooth="yes"/>
      <point x="138" y="698"/>
      <point x="116" y="677"/>
      <point x="116" y="649" type="curve" smooth="yes"/>
      <point x="116" y="621"/>
      <point x="138" y="600"/>
      <point x="166" y="600" type="curve" smooth="yes"/>
      <point x="191" y="600"/>
      <point x="212" y="619"/>
      <point x="212" y="646" type="curve"/>
      <point x="179" y="637" type="line"/>
      <point x="195" y="626"/>
      <point x="200" y="615"/>
      <point x="200" y="599" type="curve" smooth="yes"/>
      <point x="200" y="567"/>
      <point x="178" y="551"/>
      <point x="151" y="537" type="curve" smooth="yes"/>
      <point x="139" y="531"/>
      <point x="130" y="525"/>
      <point x="130" y="515" type="curve" smooth="yes"/>
      <point x="130" y="505"/>
      <point x="137" y="495"/>
      <point x="153" y="495" type="curve" smooth="yes"/>
    </contour>
  </outline>
</glyph>
<glyph name="ellipsis" format="1">
  <advance width="500"/>
  <unicode hex="2026"/>
  <outline>
    <contour>
      <point x="122" y="-12"/>
      <point x="146" y="1"/>
      <point x="146" y="30" type="curve" smooth="yes"/>
      <point x="146" y="55"/>
      <point x="127" y="77"/>
      <point x="99" y="77" type="curve" smooth="yes"/>
      <point x="76" y="77"/>
      <point x="56" y="60"/>
      <point x="56" y="35" type="curve" smooth="yes"/>
      <point x="56" y="9"/>
      <point x="77" y="-12"/>
      <point x="103" y="-12" type="curve" smooth="yes"/>
    </contour>
    <contour>
      <point x="272" y="-12"/>
      <point x="296" y="1"/>
      <point x="296" y="30" type="curve" smooth="yes"/>
      <point x="296" y="55"/>
      <point x="277" y="77"/>
      <point x="249" y="77" type="curve" smooth="yes"/>
      <point x="226" y="77"/>
      <point x="206" y="60"/>
      <point x="206" y="35" type="curve" smooth="yes"/>
      <point x="206" y="9"/>
      <point x="227" y="-12"/>
      <point x="253" y="-12" type="curve" smooth="yes"/>
    </contour>
    <contour>
      <point x="417" y="-12"/>
      <point x="441" y="1"/>
      <point x="441" y="30" type="curve" smooth="yes"/>
      <point x="441" y="55"/>
      <point x="422" y="77"/>
      <point x="394" y="77" type="curve" smooth="yes"/>
      <point x="371" y="77"/>
      <point x="351" y="60"/>
      <point x="351" y="35" type="curve" smooth="yes"/>
      <point x="351" y="9"/>
      <point x="372" y="-12"/>
      <point x="398" y="-12" type="curve" smooth="yes"/>
    </contour>
  </outline>
</glyph>
<glyph name="BASE" format="1">
  <advance width="623"/>
  <outline>
    <contour>
      <point x="311" y="455" type="curve" smooth="yes"/>
      <point x="335" y="455"/>
      <point x="351" y="471"/>
      <point x="351" y="497" type="curve" smooth="yes"/>
      <point x="351" y="523"/>
      <point x="334" y="538"/>
      <point x="311" y="538" type="curve" smooth="yes"/>
      <point x="290" y="538"/>
      <point x="272" y="523"/>
      <point x="272" y="497" type="curve" smooth="yes"/>
      <point x="272" y="471"/>
      <point x="290" y="455"/>
    </contour>
    <contour>
      <point x="311" y="-14" type="curve" smooth="yes"/>
      <point x="335" y="-14"/>
      <point x="351" y="2"/>
      <point x="351" y="30" type="curve" smooth="yes"/>
      <point x="351" y="55"/>
      <point x="334" y="69"/>
      <point x="311" y="69" type="curve" smooth="yes"/>
      <point x="290" y="69"/>
      <point x="272" y="55"/>
      <point x="272" y="30" type="curve" smooth="yes"/>
      <point x="272" y="2"/>
      <point x="290" y="-14"/>
    </contour>
    <contour>
      <point x="537" y="220" type="curve" smooth="yes"/>
      <point x="561" y="220"/>
      <point x="577" y="236"/>
      <point x="577" y="263" type="curve" smooth="yes"/>
      <point x="577" y="289"/>
      <point x="559" y="304"/>
      <point x="537" y="304" type="curve" smooth="yes"/>
      <point x="516" y="304"/>
      <point x="498" y="289"/>
      <point x="498" y="263" type="curve" smooth="yes"/>
      <point x="498" y="236"/>
      <point x="516" y="220"/>
    </contour>
    <contour>
      <point x="84" y="220" type="curve" smooth="yes"/>
      <point x="108" y="220"/>
      <point x="124" y="236"/>
      <point x="124" y="263" type="curve" smooth="yes"/>
      <point x="124" y="289"/>
      <point x="107" y="304"/>
      <point x="84" y="304" type="curve" smooth="yes"/>
      <point x="63" y="304"/>
      <point x="45" y="289"/>
      <point x="45" y="263" type="curve" smooth="yes"/>
      <point x="45" y="236"/>
      <point x="63" y="220"/>
    </contour>
    <contour>
      <point x="197" y="426" type="curve" smooth="yes"/>
      <point x="221" y="426"/>
      <point x="237" y="442"/>
      <point x="237" y="468" type="curve" smooth="yes"/>
      <point x="237" y="495"/>
      <point x="220" y="509"/>
      <point x="197" y="509" type="curve" smooth="yes"/>
      <point x="176" y="509"/>
      <point x="158" y="495"/>
      <point x="158" y="468" type="curve" smooth="yes"/>
      <point x="158" y="442"/>
      <point x="176" y="426"/>
    </contour>
    <contour>
      <point x="114" y="339" type="curve" smooth="yes"/>
      <point x="138" y="339"/>
      <point x="154" y="355"/>
      <point x="154" y="381" type="curve" smooth="yes"/>
      <point x="154" y="408"/>
      <point x="137" y="422"/>
      <point x="114" y="422" type="curve" smooth="yes"/>
      <point x="93" y="422"/>
      <point x="75" y="408"/>
      <point x="75" y="381" type="curve" smooth="yes"/>
      <point x="75" y="355"/>
      <point x="93" y="339"/>
    </contour>
    <contour>
      <point x="114" y="103" type="curve" smooth="yes"/>
      <point x="138" y="103"/>
      <point x="154" y="119"/>
      <point x="154" y="146" type="curve" smooth="yes"/>
      <point x="154" y="172"/>
      <point x="137" y="187"/>
      <point x="114" y="187" type="curve" smooth="yes"/>
      <point x="93" y="187"/>
      <point x="75" y="172"/>
      <point x="75" y="146" type="curve" smooth="yes"/>
      <point x="75" y="119"/>
      <point x="93" y="103"/>
    </contour>
    <contour>
      <point x="197" y="16" type="curve" smooth="yes"/>
      <point x="221" y="16"/>
      <point x="237" y="32"/>
      <point x="237" y="60" type="curve" smooth="yes"/>
      <point x="237" y="85"/>
      <point x="220" y="99"/>
      <point x="197" y="99" type="curve" smooth="yes"/>
      <point x="176" y="99"/>
      <point x="158" y="85"/>
      <point x="158" y="60" type="curve" smooth="yes"/>
      <point x="158" y="32"/>
      <point x="176" y="16"/>
    </contour>
    <contour>
      <point x="424" y="16" type="curve" smooth="yes"/>
      <point x="448" y="16"/>
      <point x="464" y="32"/>
      <point x="464" y="60" type="curve" smooth="yes"/>
      <point x="464" y="85"/>
      <point x="447" y="99"/>
      <point x="424" y="99" type="curve" smooth="yes"/>
      <point x="403" y="99"/>
      <point x="385" y="85"/>
      <point x="385" y="60" type="curve" smooth="yes"/>
      <point x="385" y="32"/>
      <point x="403" y="16"/>
    </contour>
    <contour>
      <point x="508" y="103" type="curve" smooth="yes"/>
      <point x="532" y="103"/>
      <point x="548" y="119"/>
      <point x="548" y="146" type="curve" smooth="yes"/>
      <point x="548" y="172"/>
      <point x="531" y="187"/>
      <point x="508" y="187" type="curve" smooth="yes"/>
      <point x="487" y="187"/>
      <point x="469" y="172"/>
      <point x="469" y="146" type="curve" smooth="yes"/>
      <point x="469" y="119"/>
      <point x="487" y="103"/>
    </contour>
    <contour>
      <point x="424" y="425" type="curve" smooth="yes"/>
      <point x="448" y="425"/>
      <point x="464" y="441"/>
      <point x="464" y="467" type="curve" smooth="yes"/>
      <point x="464" y="493"/>
      <point x="447" y="508"/>
      <point x="424" y="508" type="curve" smooth="yes"/>
      <point x="403" y="508"/>
      <point x="385" y="493"/>
      <point x="385" y="467" type="curve" smooth="yes"/>
      <point x="385" y="441"/>
      <point x="403" y="425"/>
    </contour>
    <contour>
      <point x="508" y="338" type="curve" smooth="yes"/>
      <point x="532" y="338"/>
      <point x="548" y="353"/>
      <point x="548" y="380" type="curve" smooth="yes"/>
      <point x="548" y="406"/>
      <point x="531" y="421"/>
      <point x="508" y="421" type="curve" smooth="yes"/>
      <point x="487" y="421"/>
      <point x="469" y="406"/>
      <point x="469" y="380" type="curve" smooth="yes"/>
      <point x="469" y="353"/>
      <point x="487" y="338"/>
    </contour>
  </outline>
</glyph>
<glyph name="Danda" format="1">
  <advance width="322"/>
  <outline>
    <contour>
      <point x="230" y="-12"/>
      <point x="245" y="6"/>
      <point x="245" y="29" type="curve" smooth="yes"/>
      <point x="245" y="609" type="line" smooth="yes"/>
      <point x="245" y="632"/>
      <point x="230" y="649"/>
      <point x="211" y="649" type="curve" smooth="yes"/>
      <point x="192" y="649"/>
      <point x="177" y="632"/>
      <point x="177" y="609" type="curve" smooth="yes"/>
      <point x="177" y="29" type="line" smooth="yes"/>
      <point x="177" y="6"/>
      <point x="192" y="-12"/>
      <point x="211" y="-12" type="curve" smooth="yes"/>
    </contour>
  </outline>
</glyph>
<glyph name="ZWJ" format="1">
  <advance width="0"/>
  <outline>
    <contour>
      <point x="0" y="739" type="line" smooth="yes"/>
      <point x="0" y="796"/>
      <point x="20" y="841"/>
      <point x="89" y="841" type="curve" smooth="yes"/>
      <point x="192" y="841" type="line" smooth="yes"/>
      <point x="211" y="841"/>
      <point x="225" y="828"/>
      <point x="225" y="812" type="curve" smooth="yes"/>
      <point x="225" y="795"/>
      <point x="211" y="782"/>
      <point x="192" y="782" type="curve" smooth="yes"/>
      <point x="105" y="782" type="line" smooth="yes"/>
      <point x="75" y="782"/>
      <point x="68" y="770"/>
      <point x="68" y="739" type="curve" smooth="yes"/>
      <point x="68" y="-208" type="line" smooth="yes"/>
      <point x="68" y="-229"/>
      <point x="52" y="-243"/>
      <point x="34" y="-243" type="curve" smooth="yes"/>
      <point x="15" y="-243"/>
      <point x="0" y="-227"/>
      <point x="0" y="-208" type="curve" smooth="yes"/>
    </contour>
  </outline>
</glyph>
<glyph name="ZWNJ" format="1">
  <advance width="0"/>
  <outline>
    <contour>
      <point x="0" y="806" type="line" smooth="yes"/>
      <point x="0" y="826"/>
      <point x="14" y="841"/>
      <point x="34" y="841" type="curve" smooth="yes"/>
      <point x="54" y="841"/>
      <point x="68" y="824"/>
      <point x="68" y="805" type="curve" smooth="yes"/>
      <point x="68" y="-208" type="line" smooth="yes"/>
      <point x="68" y="-229"/>
      <point x="54" y="-243"/>
      <point x="34" y="-243" type="curve" smooth="yes"/>
      <point x="14" y="-243"/>
      <point x="0" y="-228"/>
      <point x="0" y="-208" type="curve" smooth="yes"/>
    </contour>
  </outline>
</glyph>
<glyph name="bA" format="1">
  <advance width="732"/>
  <outline>
    <contour>
      <point x="634" y="-12"/>
      <point x="649" y="6"/>
      <point x="649" y="29" type="curve" smooth="yes"/>
      <point x="649" y="453" type="line" smooth="yes"/>
      <point x="649" y="518"/>
      <point x="653" y="528"/>
      <point x="687" y="528" type="curve" smooth="yes"/>
      <point x="732" y="528" type="line" smooth="yes"/>
      <point x="751" y="528"/>
      <point x="765" y="541"/>
      <point x="765" y="558" type="curve" smooth="yes"/>
      <point x="765" y="575"/>
      <point x="751" y="587"/>
      <point x="732" y="587" type="curve" smooth="yes"/>
      <point x="669" y="587" type="line" smooth="yes"/>
      <point x="625" y="587"/>
      <point x="591" y="563"/>
      <point x="591" y="500" type="curve"/>
      <point x="611" y="509" type="line"/>
      <point x="611" y="565"/>
      <point x="576" y="587"/>
      <point x="525" y="587" type="curve" smooth="yes"/>
      <point x="0" y="587" type="line" smooth="yes"/>
      <point x="-19" y="587"/>
      <point x="-33" y="575"/>
      <point x="-33" y="558" type="curve" smooth="yes"/>
      <point x="-33" y="541"/>
      <point x="-19" y="528"/>
      <point x="0" y="528" type="curve" smooth="yes"/>
      <point x="518" y="528" type="line" smooth="yes"/>
      <point x="571" y="528"/>
      <point x="582" y="508"/>
      <point x="582" y="459" type="curve" smooth="yes"/>
      <point x="582" y="29" type="line" smooth="yes"/>
      <point x="582" y="6"/>
      <point x="596" y="-12"/>
      <point x="615" y="-12" type="curve" smooth="yes"/>
    </contour>
    <contour>
      <point x="430" y="83"/>
      <point x="508" y="168"/>
      <point x="508" y="277" type="curve" smooth="yes"/>
      <point x="508" y="390"/>
      <point x="424" y="476"/>
      <point x="318" y="476" type="curve" smooth="yes"/>
      <point x="251" y="476"/>
      <point x="202" y="437"/>
      <point x="202" y="376" type="curve" smooth="yes"/>
      <point x="202" y="322"/>
      <point x="244" y="279"/>
      <point x="300" y="279" type="curve" smooth="yes"/>
      <point x="356" y="279"/>
      <point x="389" y="323"/>
      <point x="389" y="368" type="curve" smooth="yes"/>
      <point x="389" y="415"/>
      <point x="357" y="449"/>
      <point x="307" y="451" type="curve"/>
      <point x="318" y="427" type="line"/>
      <point x="371" y="427"/>
      <point x="445" y="389"/>
      <point x="445" y="298" type="curve" smooth="yes"/>
      <point x="445" y="220"/>
      <point x="390" y="162"/>
      <point x="308" y="162" type="curve" smooth="yes"/>
      <point x="175" y="162"/>
      <point x="119" y="315"/>
      <point x="81" y="426" type="curve" smooth="yes"/>
      <point x="75" y="446"/>
      <point x="66" y="454"/>
      <point x="51" y="454" type="curve" smooth="yes"/>
      <point x="30" y="454"/>
      <point x="22" y="437"/>
      <point x="22" y="421" type="curve" smooth="yes"/>
      <point x="22" y="379"/>
      <point x="100" y="83"/>
      <point x="315" y="83" type="curve" smooth="yes"/>
    </contour>
    <contour>
      <point x="618" y="72" type="line"/>
      <point x="608" y="153"/>
      <point x="535" y="231"/>
      <point x="484" y="273" type="curve"/>
      <point x="459" y="202" type="line"/>
      <point x="520" y="163"/>
      <point x="582" y="110"/>
      <point x="582" y="44" type="curve"/>
    </contour>
    <contour>
      <point x="288" y="343"/>
      <point x="272" y="359"/>
      <point x="272" y="378" type="curve" smooth="yes"/>
      <point x="272" y="397"/>
      <point x="288" y="412"/>
      <point x="307" y="412" type="curve" smooth="yes"/>
      <point x="326" y="412"/>
      <point x="342" y="397"/>
      <point x="342" y="378" type="curve" smooth="yes"/>
      <point x="342" y="359"/>
      <point x="326" y="343"/>
      <point x="307" y="343" type="curve" smooth="yes"/>
    </contour>
  </outline>
</glyph>
<glyph name="bAi" format="1">
  <advance width="700"/>
  <outline>
    <contour>
      <point x="567" y="271"/>
      <point x="673" y="367"/>
      <point x="673" y="486" type="curve" smooth="yes"/>
      <point x="673" y="632"/>
      <point x="559" y="685"/>
      <point x="442" y="734" type="curve" smooth="yes"/>
      <point x="358" y="768"/>
      <point x="307" y="796"/>
      <point x="297" y="851" type="curve" smooth="yes"/>
      <point x="294" y="873"/>
      <point x="291" y="902"/>
      <point x="266" y="902" type="curve" smooth="yes"/>
      <point x="247" y="902"/>
      <point x="236" y="884"/>
      <point x="236" y="856" type="curve" smooth="yes"/>
      <point x="236" y="773"/>
      <point x="305" y="721"/>
      <point x="402" y="679" type="curve" smooth="yes"/>
      <point x="515" y="632"/>
      <point x="614" y="600"/>
      <point x="614" y="498" type="curve" smooth="yes"/>
      <point x="614" y="424"/>
      <point x="551" y="354"/>
      <point x="481" y="354" type="curve"/>
      <point x="481" y="271" type="line"/>
    </contour>
    <component base="bE"/>
  </outline>
</glyph>
<glyph name="bAnusvara" format="1">
  <advance width="342"/>
  <outline>
    <contour>
      <point x="355" y="-12"/>
      <point x="365" y="1"/>
      <point x="365" y="18" type="curve" smooth="yes"/>
      <point x="365" y="31"/>
      <point x="359" y="41"/>
      <point x="349" y="53" type="curve" smooth="yes"/>
      <point x="324" y="80"/>
      <point x="299" y="135"/>
      <point x="261" y="201" type="curve" smooth="yes"/>
      <point x="231" y="257"/>
      <point x="186" y="318"/>
      <point x="95" y="318" type="curve" smooth="yes"/>
      <point x="56" y="318"/>
      <point x="46" y="300"/>
      <point x="46" y="284" type="curve" smooth="yes"/>
      <point x="46" y="258"/>
      <point x="69" y="249"/>
      <point x="89" y="247" type="curve" smooth="yes"/>
      <point x="150" y="242"/>
      <point x="184" y="219"/>
      <point x="216" y="153" type="curve" smooth="yes"/>
      <point x="252" y="83"/>
      <point x="287" y="-12"/>
      <point x="336" y="-12" type="curve" smooth="yes"/>
    </contour>
    <contour>
      <point x="217" y="354"/>
      <point x="273" y="390"/>
      <point x="273" y="457" type="curve" smooth="yes"/>
      <point x="273" y="520"/>
      <point x="226" y="570"/>
      <point x="159" y="570" type="curve" smooth="yes"/>
      <point x="94" y="570"/>
      <point x="52" y="522"/>
      <point x="52" y="466" type="curve" smooth="yes"/>
      <point x="52" y="403"/>
      <point x="106" y="354"/>
      <point x="166" y="354" type="curve" smooth="yes"/>
    </contour>
    <contour>
      <point x="144" y="416"/>
      <point x="115" y="432"/>
      <point x="115" y="464" type="curve" smooth="yes"/>
      <point x="115" y="489"/>
      <point x="132" y="511"/>
      <point x="162" y="511" type="curve" smooth="yes"/>
      <point x="188" y="511"/>
      <point x="212" y="492"/>
      <point x="212" y="463" type="curve" smooth="yes"/>
      <point x="212" y="434"/>
      <point x="189" y="416"/>
      <point x="166" y="416" type="curve" smooth="yes"/>
    </contour>
  </outline>
</glyph>
<glyph name="bAu" format="1">
  <advance width="660"/>
  <outline>
    <contour>
      <point x="543" y="288"/>
      <point x="643" y="367"/>
      <point x="643" y="486" type="curve" smooth="yes"/>
      <point x="643" y="632"/>
      <point x="529" y="685"/>
      <point x="412" y="734" type="curve" smooth="yes"/>
      <point x="328" y="768"/>
      <point x="276" y="796"/>
      <point x="266" y="851" type="curve" smooth="yes"/>
      <point x="262" y="872"/>
      <point x="261" y="902"/>
      <point x="236" y="902" type="curve" smooth="yes"/>
      <point x="217" y="902"/>
      <point x="206" y="884"/>
      <point x="206" y="856" type="curve" smooth="yes"/>
      <point x="206" y="773"/>
      <point x="275" y="721"/>
      <point x="372" y="679" type="curve" smooth="yes"/>
      <point x="485" y="632"/>
      <point x="584" y="600"/>
      <point x="584" y="490" type="curve" smooth="yes"/>
      <point x="584" y="420"/>
      <point x="521" y="360"/>
      <point x="454" y="360" type="curve"/>
      <point x="463" y="288" type="line"/>
    </contour>
    <component base="bO"/>
  </outline>
</glyph>
<glyph name="bAuMark" format="1">
  <advance width="220"/>
  <outline>
    <contour>
      <point x="134" y="463" type="line"/>
      <point x="134" y="516"/>
      <point x="145" y="555"/>
      <point x="145" y="599" type="curve" smooth="yes"/>
      <point x="145" y="736"/>
      <point x="63" y="749"/>
      <point x="-105" y="788" type="curve" smooth="yes"/>
      <point x="-168" y="801"/>
      <point x="-197" y="832"/>
      <point x="-202" y="869" type="curve" smooth="yes"/>
      <point x="-205" y="895"/>
      <point x="-220" y="901"/>
      <point x="-233" y="901" type="curve" smooth="yes"/>
      <point x="-246" y="901"/>
      <point x="-260" y="892"/>
      <point x="-260" y="867" type="curve" smooth="yes"/>
      <point x="-260" y="787"/>
      <point x="-192" y="742"/>
      <point x="-109" y="722" type="curve" smooth="yes"/>
      <point x="9" y="690"/>
      <point x="88" y="693"/>
      <point x="88" y="596" type="curve" smooth="yes"/>
      <point x="88" y="556"/>
      <point x="76" y="523"/>
      <point x="76" y="463" type="curve"/>
    </contour>
    <contour>
      <point x="122" y="-12"/>
      <point x="137" y="6"/>
      <point x="137" y="29" type="curve" smooth="yes"/>
      <point x="137" y="453" type="line" smooth="yes"/>
      <point x="137" y="518"/>
      <point x="141" y="528"/>
      <point x="175" y="528" type="curve" smooth="yes"/>
      <point x="220" y="528" type="line" smooth="yes"/>
      <point x="239" y="528"/>
      <point x="253" y="541"/>
      <point x="253" y="558" type="curve" smooth="yes"/>
      <point x="253" y="575"/>
      <point x="239" y="587"/>
      <point x="220" y="587" type="curve" smooth="yes"/>
      <point x="157" y="587" type="line" smooth="yes"/>
      <point x="113" y="587"/>
      <point x="84" y="563"/>
      <point x="84" y="500" type="curve"/>
      <point x="99" y="509" type="line"/>
      <point x="99" y="565"/>
      <point x="64" y="587"/>
      <point x="23" y="587" type="curve" smooth="yes"/>
      <point x="0" y="587" type="line" smooth="yes"/>
      <point x="-19" y="587"/>
      <point x="-33" y="575"/>
      <point x="-33" y="558" type="curve" smooth="yes"/>
      <point x="-33" y="541"/>
      <point x="-19" y="528"/>
      <point x="0" y="528" type="curve" smooth="yes"/>
      <point x="26" y="528" type="line" smooth="yes"/>
      <point x="62" y="528"/>
      <point x="70" y="511"/>
      <point x="70" y="459" type="curve" smooth="yes"/>
      <point x="70" y="29" type="line" smooth="yes"/>
      <point x="70" y="6"/>
      <point x="84" y="-12"/>
      <point x="103" y="-12" type="curve" smooth="yes"/>
    </contour>
  </outline>
</glyph>
<glyph name="bAvagraha" format="1">
  <advance width="502"/>
  <outline>
    <contour>
      <point x="447" y="50"/>
      <point x="459" y="63"/>
      <point x="459" y="80" type="curve" smooth="yes"/>
      <point x="459" y="99"/>
      <point x="441" y="105"/>
      <point x="405" y="116" type="curve" smooth="yes"/>
      <point x="346" y="135"/>
      <point x="317" y="179"/>
      <point x="277" y="230" type="curve" smooth="yes"/>
      <point x="236" y="285"/>
      <point x="200" y="319"/>
      <point x="147" y="319" type="curve" smooth="yes"/>
      <point x="101" y="319"/>
      <point x="71" y="287"/>
      <point x="71" y="251" type="curve" smooth="yes"/>
      <point x="71" y="208"/>
      <point x="111" y="173"/>
      <point x="175" y="173" type="curve" smooth="yes"/>
      <point x="296" y="173"/>
      <point x="412" y="271"/>
      <point x="412" y="384" type="curve" smooth="yes"/>
      <point x="412" y="495"/>
      <point x="330" y="566"/>
      <point x="226" y="566" type="curve" smooth="yes"/>
      <point x="155" y="566"/>
      <point x="75" y="533"/>
      <point x="75" y="456" type="curve" smooth="yes"/>
      <point x="75" y="412"/>
      <point x="108" y="373"/>
      <point x="162" y="373" type="curve" smooth="yes"/>
      <point x="213" y="373"/>
      <point x="245" y="411"/>
      <point x="245" y="453" type="curve" smooth="yes"/>
      <point x="245" y="499"/>
      <point x="207" y="523"/>
      <point x="179" y="523" type="curve" smooth="yes"/>
      <point x="158" y="523"/>
      <point x="139" y="516"/>
      <point x="126" y="500" type="curve"/>
      <point x="153" y="498" type="line"/>
      <point x="173" y="510"/>
      <point x="200" y="518"/>
      <point x="224" y="518" type="curve" smooth="yes"/>
      <point x="284" y="518"/>
      <point x="343" y="468"/>
      <point x="343" y="399" type="curve" smooth="yes"/>
      <point x="343" y="304"/>
      <point x="259" y="237"/>
      <point x="164" y="237" type="curve" smooth="yes"/>
      <point x="141" y="237"/>
      <point x="128" y="246"/>
      <point x="128" y="253" type="curve" smooth="yes"/>
      <point x="128" y="257"/>
      <point x="134" y="260"/>
      <point x="144" y="260" type="curve" smooth="yes"/>
      <point x="170" y="260"/>
      <point x="200" y="215"/>
      <point x="222" y="189" type="curve" smooth="yes"/>
      <point x="267" y="137"/>
      <point x="333" y="50"/>
      <point x="417" y="50" type="curve" smooth="yes"/>
    </contour>
    <contour>
      <point x="147" y="428"/>
      <point x="133" y="442"/>
      <point x="133" y="459" type="curve" smooth="yes"/>
      <point x="133" y="476"/>
      <point x="147" y="490"/>
      <point x="164" y="490" type="curve" smooth="yes"/>
      <point x="181" y="490"/>
      <point x="195" y="476"/>
      <point x="195" y="459" type="curve" smooth="yes"/>
      <point x="195" y="442"/>
      <point x="181" y="428"/>
      <point x="164" y="428" type="curve" smooth="yes"/>
    </contour>
  </outline>
</glyph>
<glyph name="bBBa" format="1">
  <advance width="815"/>
  <outline>
    <contour>
      <point x="713" y="69" type="line"/>
      <point x="713" y="190"/>
      <point x="511" y="300"/>
      <point x="388" y="315" type="curve"/>
      <point x="412" y="294" type="line"/>
      <point x="640" y="380"/>
      <point x="700" y="434"/>
      <point x="700" y="497" type="curve" smooth="yes"/>
      <point x="700" y="546"/>
      <point x="660" y="587"/>
      <point x="590" y="587" type="curve" smooth="yes"/>
      <point x="455" y="587" type="line"/>
      <point x="455" y="528" type="line"/>
      <point x="576" y="528" type="line" smooth="yes"/>
      <point x="615" y="528"/>
      <point x="652" y="522"/>
      <point x="652" y="504" type="curve" smooth="yes"/>
      <point x="652" y="475"/>
      <point x="570" y="438"/>
      <point x="367" y="353" type="curve"/>
      <point x="367" y="256" type="line"/>
      <point x="444" y="237"/>
      <point x="665" y="162"/>
      <point x="665" y="49" type="curve"/>
    </contour>
    <contour>
      <point x="717" y="-12"/>
      <point x="732" y="6"/>
      <point x="732" y="29" type="curve" smooth="yes"/>
      <point x="732" y="453" type="line" smooth="yes"/>
      <point x="732" y="518"/>
      <point x="735" y="528"/>
      <point x="769" y="528" type="curve" smooth="yes"/>
      <point x="815" y="528" type="line" smooth="yes"/>
      <point x="833" y="528"/>
      <point x="848" y="541"/>
      <point x="848" y="558" type="curve" smooth="yes"/>
      <point x="848" y="575"/>
      <point x="833" y="587"/>
      <point x="815" y="587" type="curve" smooth="yes"/>
      <point x="752" y="587" type="line" smooth="yes"/>
      <point x="696" y="587"/>
      <point x="664" y="551"/>
      <point x="664" y="470" type="curve" smooth="yes"/>
      <point x="664" y="29" type="line" smooth="yes"/>
      <point x="664" y="6"/>
      <point x="679" y="-12"/>
      <point x="698" y="-12" type="curve" smooth="yes"/>
    </contour>
    <component base="bBa"/>
  </outline>
</glyph>
<glyph name="bBBha" format="1">
  <advance width="616"/>
  <outline>
    <contour>
      <point x="503" y="-96"/>
      <point x="578" y="1"/>
      <point x="578" y="95" type="curve" smooth="yes"/>
      <point x="578" y="154"/>
      <point x="548" y="203"/>
      <point x="522" y="227" type="curve"/>
      <point x="463" y="183" type="line"/>
      <point x="463" y="139"/>
      <point x="416" y="114"/>
      <point x="371" y="114" type="curve" smooth="yes"/>
      <point x="340" y="114"/>
      <point x="308" y="125"/>
      <point x="286" y="147" type="curve"/>
      <point x="257" y="139" type="line"/>
      <point x="269" y="125"/>
      <point x="286" y="116"/>
      <point x="307" y="116" type="curve" smooth="yes"/>
      <point x="354" y="116"/>
      <point x="383" y="157"/>
      <point x="383" y="195" type="curve" smooth="yes"/>
      <point x="383" y="237"/>
      <point x="347" y="279"/>
      <point x="297" y="279" type="curve" smooth="yes"/>
      <point x="253" y="279"/>
      <point x="205" y="245"/>
      <point x="205" y="188" type="curve" smooth="yes"/>
      <point x="205" y="123"/>
      <point x="270" y="51"/>
      <point x="365" y="51" type="curve" smooth="yes"/>
      <point x="469" y="51"/>
      <point x="515" y="135"/>
      <point x="515" y="173" type="curve"/>
      <point x="494" y="168" type="line"/>
      <point x="505" y="154"/>
      <point x="521" y="132"/>
      <point x="521" y="100" type="curve" smooth="yes"/>
      <point x="521" y="28"/>
      <point x="456" y="-26"/>
      <point x="369" y="-26" type="curve" smooth="yes"/>
      <point x="166" y="-26"/>
      <point x="105" y="272"/>
      <point x="84" y="400" type="curve" smooth="yes"/>
      <point x="81" y="422"/>
      <point x="72" y="435"/>
      <point x="54" y="435" type="curve" smooth="yes"/>
      <point x="34" y="435"/>
      <point x="26" y="419"/>
      <point x="26" y="393" type="curve" smooth="yes"/>
      <point x="26" y="311"/>
      <point x="97" y="-96"/>
      <point x="371" y="-96" type="curve" smooth="yes"/>
    </contour>
    <contour>
      <point x="278" y="155"/>
      <point x="262" y="167"/>
      <point x="262" y="186" type="curve" smooth="yes"/>
      <point x="262" y="206"/>
      <point x="279" y="217"/>
      <point x="293" y="217" type="curve" smooth="yes"/>
      <point x="308" y="217"/>
      <point x="324" y="206"/>
      <point x="324" y="186" type="curve" smooth="yes"/>
      <point x="324" y="165"/>
      <point x="307" y="155"/>
      <point x="293" y="155" type="curve" smooth="yes"/>
    </contour>
    <contour>
      <point x="521" y="229" type="line"/>
      <point x="459" y="314"/>
      <point x="298" y="352"/>
      <point x="222" y="360" type="curve"/>
      <point x="219" y="339" type="line"/>
      <point x="379" y="386"/>
      <point x="502" y="427"/>
      <point x="502" y="503" type="curve" smooth="yes"/>
      <point x="502" y="554"/>
      <point x="454" y="587"/>
      <point x="383" y="587" type="curve" smooth="yes"/>
      <point x="0" y="587" type="line" smooth="yes"/>
      <point x="-12" y="587"/>
      <point x="-28" y="579"/>
      <point x="-28" y="559" type="curve" smooth="yes"/>
      <point x="-28" y="540"/>
      <point x="-14" y="528"/>
      <point x="0" y="528" type="curve" smooth="yes"/>
      <point x="369" y="528" type="line" smooth="yes"/>
      <point x="400" y="528"/>
      <point x="450" y="523"/>
      <point x="450" y="502" type="curve" smooth="yes"/>
      <point x="450" y="465"/>
      <point x="285" y="433"/>
      <point x="200" y="398" type="curve" smooth="yes"/>
      <point x="183" y="391"/>
      <point x="163" y="379"/>
      <point x="163" y="352" type="curve" smooth="yes"/>
      <point x="163" y="323"/>
      <point x="184" y="309"/>
      <point x="213" y="301" type="curve" smooth="yes"/>
      <point x="267" y="287"/>
      <point x="463" y="266"/>
      <point x="463" y="186" type="curve"/>
    </contour>
    <contour>
      <point x="525" y="201" type="line"/>
      <point x="525" y="453" type="line" smooth="yes"/>
      <point x="525" y="518"/>
      <point x="528" y="528"/>
      <point x="562" y="528" type="curve" smooth="yes"/>
      <point x="623" y="528" type="line" smooth="yes"/>
      <point x="641" y="528"/>
      <point x="656" y="541"/>
      <point x="656" y="558" type="curve" smooth="yes"/>
      <point x="656" y="575"/>
      <point x="641" y="587"/>
      <point x="623" y="587" type="curve" smooth="yes"/>
      <point x="545" y="587" type="line" smooth="yes"/>
      <point x="489" y="587"/>
      <point x="457" y="551"/>
      <point x="457" y="470" type="curve" smooth="yes"/>
      <point x="457" y="201" type="line"/>
    </contour>
  </outline>
</glyph>
<glyph name="bBDa" format="1">
  <advance width="730"/>
  <outline>
    <contour>
      <point x="636" y="-33"/>
      <point x="646" y="-11"/>
      <point x="646" y="21" type="curve" smooth="yes"/>
      <point x="646" y="123"/>
      <point x="631" y="177"/>
      <point x="631" y="234" type="curve" smooth="yes"/>
      <point x="631" y="316"/>
      <point x="660" y="379"/>
      <point x="660" y="413" type="curve" smooth="yes"/>
      <point x="660" y="428"/>
      <point x="654" y="444"/>
      <point x="629" y="444" type="curve" smooth="yes"/>
      <point x="589" y="444"/>
      <point x="433" y="335"/>
      <point x="335" y="230" type="curve"/>
      <point x="357" y="210" type="line"/>
      <point x="357" y="432" type="line" smooth="yes"/>
      <point x="357" y="477"/>
      <point x="356" y="528"/>
      <point x="406" y="528" type="curve" smooth="yes"/>
      <point x="729" y="528" type="line" smooth="yes"/>
      <point x="748" y="528"/>
      <point x="762" y="541"/>
      <point x="762" y="558" type="curve" smooth="yes"/>
      <point x="762" y="575"/>
      <point x="748" y="587"/>
      <point x="729" y="587" type="curve" smooth="yes"/>
      <point x="389" y="587" type="line" smooth="yes"/>
      <point x="343" y="587"/>
      <point x="289" y="563"/>
      <point x="289" y="487" type="curve" smooth="yes"/>
      <point x="289" y="178" type="line" smooth="yes"/>
      <point x="289" y="150"/>
      <point x="303" y="138"/>
      <point x="321" y="138" type="curve" smooth="yes"/>
      <point x="341" y="138"/>
      <point x="352" y="148"/>
      <point x="389" y="187" type="curve" smooth="yes"/>
      <point x="435" y="234"/>
      <point x="549" y="332"/>
      <point x="614" y="362" type="curve"/>
      <point x="608" y="376" type="line"/>
      <point x="574" y="337"/>
      <point x="566" y="282"/>
      <point x="566" y="235" type="curve" smooth="yes"/>
      <point x="566" y="177"/>
      <point x="577" y="133"/>
      <point x="578" y="21" type="curve" smooth="yes"/>
      <point x="578" y="-14"/>
      <point x="593" y="-33"/>
      <point x="614" y="-33" type="curve" smooth="yes"/>
    </contour>
    <contour>
      <point x="330" y="208" type="line"/>
      <point x="311" y="293"/>
      <point x="178" y="360"/>
      <point x="102" y="360" type="curve"/>
      <point x="105" y="337" type="line"/>
      <point x="182" y="371"/>
      <point x="337" y="411"/>
      <point x="336" y="505" type="curve" smooth="yes"/>
      <point x="336" y="552"/>
      <point x="296" y="587"/>
      <point x="229" y="587" type="curve" smooth="yes"/>
      <point x="0" y="587" type="line" smooth="yes"/>
      <point x="-19" y="587"/>
      <point x="-33" y="575"/>
      <point x="-33" y="558" type="curve" smooth="yes"/>
      <point x="-33" y="542"/>
      <point x="-19" y="528"/>
      <point x="0" y="528" type="curve" smooth="yes"/>
      <point x="226" y="528" type="line" smooth="yes"/>
      <point x="277" y="528"/>
      <point x="289" y="522"/>
      <point x="289" y="507" type="curve" smooth="yes"/>
      <point x="289" y="470"/>
      <point x="176" y="433"/>
      <point x="84" y="394" type="curve" smooth="yes"/>
      <point x="51" y="381"/>
      <point x="42" y="368"/>
      <point x="42" y="349" type="curve" smooth="yes"/>
      <point x="42" y="331"/>
      <point x="56" y="318"/>
      <point x="76" y="312" type="curve" smooth="yes"/>
      <point x="183" y="281"/>
      <point x="290" y="229"/>
      <point x="290" y="180" type="curve"/>
    </contour>
  </outline>
</glyph>
<glyph name="bBDda" format="1">
  <advance width="620"/>
  <outline>
    <contour>
      <point x="515" y="2"/>
      <point x="588" y="111"/>
      <point x="588" y="225" type="curve" smooth="yes"/>
      <point x="588" y="309"/>
      <point x="547" y="364"/>
      <point x="515" y="364" type="curve" smooth="yes"/>
      <point x="498" y="364"/>
      <point x="493" y="352"/>
      <point x="491" y="336" type="curve" smooth="yes"/>
      <point x="489" y="294"/>
      <point x="469" y="264"/>
      <point x="434" y="264" type="curve" smooth="yes"/>
      <point x="384" y="264"/>
      <point x="362" y="309"/>
      <point x="362" y="379" type="curve" smooth="yes"/>
      <point x="362" y="464"/>
      <point x="395" y="528"/>
      <point x="457" y="528" type="curve" smooth="yes"/>
      <point x="620" y="528" type="line" smooth="yes"/>
      <point x="638" y="528"/>
      <point x="653" y="541"/>
      <point x="653" y="558" type="curve" smooth="yes"/>
      <point x="653" y="575"/>
      <point x="638" y="587"/>
      <point x="620" y="587" type="curve" smooth="yes"/>
      <point x="454" y="587" type="line" smooth="yes"/>
      <point x="358" y="587"/>
      <point x="302" y="480"/>
      <point x="302" y="369" type="curve" smooth="yes"/>
      <point x="302" y="287"/>
      <point x="335" y="198"/>
      <point x="428" y="198" type="curve" smooth="yes"/>
      <point x="505" y="198"/>
      <point x="521" y="276"/>
      <point x="522" y="306" type="curve"/>
      <point x="500" y="312" type="line"/>
      <point x="521" y="285"/>
      <point x="529" y="254"/>
      <point x="529" y="228" type="curve" smooth="yes"/>
      <point x="529" y="152"/>
      <point x="470" y="76"/>
      <point x="378" y="76" type="curve" smooth="yes"/>
      <point x="198" y="76"/>
      <point x="106" y="237"/>
      <point x="72" y="399" type="curve" smooth="yes"/>
      <point x="67" y="420"/>
      <point x="57" y="437"/>
      <point x="38" y="437" type="curve" smooth="yes"/>
      <point x="24" y="437"/>
      <point x="12" y="424"/>
      <point x="12" y="401" type="curve" smooth="yes"/>
      <point x="12" y="287"/>
      <point x="130" y="2"/>
      <point x="378" y="2" type="curve" smooth="yes"/>
    </contour>
    <contour>
      <point x="382" y="257" type="line"/>
      <point x="342" y="321"/>
      <point x="219" y="365"/>
      <point x="167" y="365" type="curve"/>
      <point x="178" y="353" type="line"/>
      <point x="287" y="395"/>
      <point x="357" y="455"/>
      <point x="357" y="506" type="curve" smooth="yes"/>
      <point x="357" y="553"/>
      <point x="319" y="587"/>
      <point x="245" y="587" type="curve" smooth="yes"/>
      <point x="0" y="587" type="line" smooth="yes"/>
      <point x="-19" y="587"/>
      <point x="-33" y="575"/>
      <point x="-33" y="558" type="curve" smooth="yes"/>
      <point x="-33" y="542"/>
      <point x="-19" y="528"/>
      <point x="0" y="528" type="curve" smooth="yes"/>
      <point x="233" y="528" type="line" smooth="yes"/>
      <point x="263" y="528"/>
      <point x="313" y="528"/>
      <point x="313" y="501" type="curve" smooth="yes"/>
      <point x="313" y="470"/>
      <point x="237" y="437"/>
      <point x="166" y="403" type="curve" smooth="yes"/>
      <point x="138" y="388"/>
      <point x="130" y="375"/>
      <point x="130" y="360" type="curve" smooth="yes"/>
      <point x="130" y="343"/>
      <point x="140" y="329"/>
      <point x="171" y="321" type="curve" smooth="yes"/>
      <point x="257" y="299"/>
      <point x="316" y="269"/>
      <point x="341" y="240" type="curve"/>
    </contour>
  </outline>
</glyph>
<glyph name="bBDdha" format="1">
  <advance width="738"/>
  <outline>
    <contour>
      <point x="571" y="-12"/>
      <point x="688" y="192"/>
      <point x="688" y="313" type="curve" smooth="yes"/>
      <point x="688" y="370"/>
      <point x="657" y="428"/>
      <point x="587" y="428" type="curve" smooth="yes"/>
      <point x="535" y="428"/>
      <point x="490" y="391"/>
      <point x="490" y="335" type="curve" smooth="yes"/>
      <point x="490" y="272"/>
      <point x="540" y="242"/>
      <point x="583" y="242" type="curve" smooth="yes"/>
      <point x="618" y="242"/>
      <point x="655" y="268"/>
      <point x="662" y="306" type="curve"/>
      <point x="615" y="281" type="line"/>
      <point x="612" y="189"/>
      <point x="505" y="64"/>
      <point x="444" y="64" type="curve" smooth="yes"/>
      <point x="405" y="64"/>
      <point x="401" y="99"/>
      <point x="401" y="148" type="curve" smooth="yes"/>
      <point x="400" y="473" type="line" smooth="yes"/>
      <point x="400" y="527"/>
      <point x="421" y="528"/>
      <point x="461" y="528" type="curve" smooth="yes"/>
      <point x="738" y="528" type="line" smooth="yes"/>
      <point x="757" y="528"/>
      <point x="771" y="541"/>
      <point x="771" y="558" type="curve" smooth="yes"/>
      <point x="771" y="575"/>
      <point x="757" y="587"/>
      <point x="738" y="587" type="curve" smooth="yes"/>
      <point x="418" y="587" type="line" smooth="yes"/>
      <point x="362" y="587"/>
      <point x="333" y="554"/>
      <point x="333" y="488" type="curve" smooth="yes"/>
      <point x="333" y="124" type="line" smooth="yes"/>
      <point x="333" y="79"/>
      <point x="337" y="-12"/>
      <point x="437" y="-12" type="curve" smooth="yes"/>
    </contour>
    <contour>
      <point x="384" y="100" type="line"/>
      <point x="386" y="206"/>
      <point x="183" y="302"/>
      <point x="58" y="315" type="curve"/>
      <point x="82" y="294" type="line"/>
      <point x="310" y="380"/>
      <point x="370" y="434"/>
      <point x="370" y="497" type="curve" smooth="yes"/>
      <point x="370" y="546"/>
      <point x="330" y="587"/>
      <point x="260" y="587" type="curve" smooth="yes"/>
      <point x="0" y="587" type="line" smooth="yes"/>
      <point x="-12" y="587"/>
      <point x="-28" y="579"/>
      <point x="-28" y="559" type="curve" smooth="yes"/>
      <point x="-28" y="540"/>
      <point x="-14" y="528"/>
      <point x="0" y="528" type="curve" smooth="yes"/>
      <point x="246" y="528" type="line" smooth="yes"/>
      <point x="285" y="528"/>
      <point x="322" y="522"/>
      <point x="322" y="504" type="curve" smooth="yes"/>
      <point x="322" y="475"/>
      <point x="241" y="438"/>
      <point x="42" y="353" type="curve" smooth="yes"/>
      <point x="16" y="341"/>
      <point x="5" y="325"/>
      <point x="5" y="306" type="curve" smooth="yes"/>
      <point x="5" y="279"/>
      <point x="27" y="265"/>
      <point x="55" y="256" type="curve" smooth="yes"/>
      <point x="119" y="239"/>
      <point x="330" y="173"/>
      <point x="336" y="80" type="curve"/>
    </contour>
    <contour>
      <point x="566" y="293"/>
      <point x="550" y="308"/>
      <point x="550" y="327" type="curve" smooth="yes"/>
      <point x="550" y="346"/>
      <point x="566" y="362"/>
      <point x="585" y="362" type="curve" smooth="yes"/>
      <point x="604" y="362"/>
      <point x="619" y="346"/>
      <point x="619" y="327" type="curve" smooth="yes"/>
      <point x="619" y="308"/>
      <point x="604" y="293"/>
      <point x="585" y="293" type="curve" smooth="yes"/>
    </contour>
  </outline>
</glyph>
<glyph name="bBDha" format="1">
  <advance width="622"/>
  <outline>
    <contour>
      <point x="387" y="-82"/>
      <point x="402" y="-65"/>
      <point x="402" y="-42" type="curve" smooth="yes"/>
      <point x="402" y="453" type="line" smooth="yes"/>
      <point x="402" y="518"/>
      <point x="405" y="528"/>
      <point x="439" y="528" type="curve" smooth="yes"/>
      <point x="622" y="528" type="line" smooth="yes"/>
      <point x="640" y="528"/>
      <point x="655" y="541"/>
      <point x="655" y="558" type="curve" smooth="yes"/>
      <point x="655" y="575"/>
      <point x="640" y="587"/>
      <point x="622" y="587" type="curve" smooth="yes"/>
      <point x="422" y="587" type="line" smooth="yes"/>
      <point x="366" y="587"/>
      <point x="334" y="551"/>
      <point x="334" y="470" type="curve" smooth="yes"/>
      <point x="334" y="-42" type="line" smooth="yes"/>
      <point x="334" y="-65"/>
      <point x="349" y="-82"/>
      <point x="368" y="-82" type="curve" smooth="yes"/>
    </contour>
    <contour>
      <point x="374" y="3" type="line"/>
      <point x="345" y="91"/>
      <point x="201" y="160"/>
      <point x="154" y="160" type="curve"/>
      <point x="149" y="134" type="line"/>
      <point x="515" y="314" type="line"/>
      <point x="510" y="325" type="line"/>
      <point x="473" y="288"/>
      <point x="469" y="237"/>
      <point x="469" y="175" type="curve" smooth="yes"/>
      <point x="469" y="36" type="line" smooth="yes"/>
      <point x="469" y="-3"/>
      <point x="488" y="-12"/>
      <point x="501" y="-12" type="curve" smooth="yes"/>
      <point x="515" y="-12"/>
      <point x="531" y="-1"/>
      <point x="531" y="36" type="curve" smooth="yes"/>
      <point x="531" y="190" type="line" smooth="yes"/>
      <point x="531" y="299"/>
      <point x="556" y="322"/>
      <point x="556" y="354" type="curve" smooth="yes"/>
      <point x="556" y="368"/>
      <point x="547" y="387"/>
      <point x="526" y="387" type="curve" smooth="yes"/>
      <point x="509" y="387"/>
      <point x="483" y="371"/>
      <point x="457" y="359" type="curve" smooth="yes"/>
      <point x="120" y="197" type="line" smooth="yes"/>
      <point x="87" y="182"/>
      <point x="76" y="167"/>
      <point x="76" y="148" type="curve" smooth="yes"/>
      <point x="76" y="127"/>
      <point x="90" y="114"/>
      <point x="110" y="110" type="curve" smooth="yes"/>
      <point x="208" y="84"/>
      <point x="335" y="15"/>
      <point x="335" y="-33" type="curve"/>
    </contour>
    <contour>
      <point x="257" y="243" type="line"/>
      <point x="202" y="279"/>
      <point x="136" y="305"/>
      <point x="83" y="315" type="curve"/>
      <point x="82" y="294" type="line"/>
      <point x="310" y="380"/>
      <point x="370" y="434"/>
      <point x="370" y="497" type="curve" smooth="yes"/>
      <point x="370" y="546"/>
      <point x="330" y="587"/>
      <point x="260" y="587" type="curve" smooth="yes"/>
      <point x="0" y="587" type="line" smooth="yes"/>
      <point x="-12" y="587"/>
      <point x="-28" y="579"/>
      <point x="-28" y="559" type="curve" smooth="yes"/>
      <point x="-28" y="540"/>
      <point x="-14" y="528"/>
      <point x="0" y="528" type="curve" smooth="yes"/>
      <point x="246" y="528" type="line" smooth="yes"/>
      <point x="285" y="528"/>
      <point x="322" y="522"/>
      <point x="322" y="504" type="curve" smooth="yes"/>
      <point x="322" y="475"/>
      <point x="241" y="438"/>
      <point x="42" y="353" type="curve" smooth="yes"/>
      <point x="16" y="341"/>
      <point x="5" y="325"/>
      <point x="5" y="306" type="curve" smooth="yes"/>
      <point x="5" y="279"/>
      <point x="27" y="265"/>
      <point x="55" y="256" type="curve" smooth="yes"/>
      <point x="81" y="248"/>
      <point x="133" y="230"/>
      <point x="186" y="205" type="curve"/>
    </contour>
  </outline>
</glyph>
<glyph name="bBJa" format="1">
  <advance width="725"/>
  <outline>
    <contour>
      <point x="508" y="1"/>
      <point x="572" y="110"/>
      <point x="572" y="196" type="curve" smooth="yes"/>
      <point x="572" y="287"/>
      <point x="523" y="327"/>
      <point x="503" y="327" type="curve" smooth="yes"/>
      <point x="461" y="327"/>
      <point x="484" y="236"/>
      <point x="408" y="236" type="curve" smooth="yes"/>
      <point x="368" y="236"/>
      <point x="342" y="278"/>
      <point x="342" y="348" type="curve" smooth="yes"/>
      <point x="342" y="435"/>
      <point x="366" y="528"/>
      <point x="431" y="528" type="curve" smooth="yes"/>
      <point x="725" y="528" type="line" smooth="yes"/>
      <point x="743" y="528"/>
      <point x="758" y="541"/>
      <point x="758" y="558" type="curve" smooth="yes"/>
      <point x="758" y="575"/>
      <point x="743" y="587"/>
      <point x="725" y="587" type="curve" smooth="yes"/>
      <point x="423" y="587" type="line" smooth="yes"/>
      <point x="341" y="587"/>
      <point x="281" y="475"/>
      <point x="281" y="357" type="curve" smooth="yes"/>
      <point x="281" y="267"/>
      <point x="306" y="172"/>
      <point x="407" y="172" type="curve" smooth="yes"/>
      <point x="488" y="172"/>
      <point x="514" y="251"/>
      <point x="514" y="282" type="curve"/>
      <point x="488" y="273" type="line"/>
      <point x="507" y="250"/>
      <point x="515" y="227"/>
      <point x="515" y="198" type="curve" smooth="yes"/>
      <point x="515" y="145"/>
      <point x="468" y="73"/>
      <point x="364" y="73" type="curve" smooth="yes"/>
      <point x="169" y="73"/>
      <point x="90" y="310"/>
      <point x="71" y="407" type="curve" smooth="yes"/>
      <point x="67" y="426"/>
      <point x="59" y="439"/>
      <point x="42" y="439" type="curve" smooth="yes"/>
      <point x="28" y="439"/>
      <point x="16" y="430"/>
      <point x="16" y="412" type="curve" smooth="yes"/>
      <point x="16" y="308"/>
      <point x="123" y="1"/>
      <point x="364" y="1" type="curve" smooth="yes"/>
    </contour>
    <contour>
      <point x="337" y="250" type="line"/>
      <point x="297" y="311"/>
      <point x="195" y="354"/>
      <point x="152" y="355" type="curve"/>
      <point x="163" y="343" type="line"/>
      <point x="272" y="385"/>
      <point x="342" y="452"/>
      <point x="342" y="506" type="curve" smooth="yes"/>
      <point x="342" y="553"/>
      <point x="305" y="587"/>
      <point x="235" y="587" type="curve" smooth="yes"/>
      <point x="0" y="587" type="line" smooth="yes"/>
      <point x="-19" y="587"/>
      <point x="-33" y="575"/>
      <point x="-33" y="558" type="curve" smooth="yes"/>
      <point x="-33" y="542"/>
      <point x="-19" y="528"/>
      <point x="0" y="528" type="curve" smooth="yes"/>
      <point x="223" y="528" type="line" smooth="yes"/>
      <point x="253" y="528"/>
      <point x="303" y="528"/>
      <point x="303" y="501" type="curve" smooth="yes"/>
      <point x="303" y="467"/>
      <point x="225" y="432"/>
      <point x="151" y="393" type="curve" smooth="yes"/>
      <point x="123" y="378"/>
      <point x="115" y="365"/>
      <point x="115" y="350" type="curve" smooth="yes"/>
      <point x="115" y="333"/>
      <point x="125" y="319"/>
      <point x="156" y="308" type="curve" smooth="yes"/>
      <point x="211" y="289"/>
      <point x="289" y="260"/>
      <point x="312" y="221" type="curve"/>
    </contour>
    <contour>
      <point x="667" y="-37"/>
      <point x="679" y="-19"/>
      <point x="679" y="16" type="curve" smooth="yes"/>
      <point x="679" y="92"/>
      <point x="667" y="221"/>
      <point x="667" y="276" type="curve" smooth="yes"/>
      <point x="667" y="370"/>
      <point x="708" y="411"/>
      <point x="708" y="439" type="curve" smooth="yes"/>
      <point x="708" y="457"/>
      <point x="697" y="471"/>
      <point x="674" y="471" type="curve" smooth="yes"/>
      <point x="642" y="471"/>
      <point x="609" y="430"/>
      <point x="542" y="430" type="curve" smooth="yes"/>
      <point x="467" y="430"/>
      <point x="420" y="484"/>
      <point x="418" y="543" type="curve"/>
      <point x="374" y="526" type="line"/>
      <point x="377" y="443"/>
      <point x="446" y="365"/>
      <point x="539" y="365" type="curve" smooth="yes"/>
      <point x="588" y="365"/>
      <point x="643" y="389"/>
      <point x="665" y="407" type="curve"/>
      <point x="656" y="415" type="line"/>
      <point x="612" y="372"/>
      <point x="601" y="317"/>
      <point x="601" y="254" type="curve" smooth="yes"/>
      <point x="601" y="177"/>
      <point x="611" y="101"/>
      <point x="611" y="13" type="curve" smooth="yes"/>
      <point x="611" y="-15"/>
      <point x="625" y="-37"/>
      <point x="647" y="-37" type="curve" smooth="yes"/>
    </contour>
  </outline>
</glyph>
<glyph name="bBJha" format="1">
  <advance width="655"/>
  <outline>
    <contour>
      <point x="307" y="228" type="line"/>
      <point x="244" y="272"/>
      <point x="146" y="313"/>
      <point x="92" y="315" type="curve"/>
      <point x="103" y="294" type="line"/>
      <point x="331" y="380"/>
      <point x="391" y="434"/>
      <point x="391" y="497" type="curve" smooth="yes"/>
      <point x="391" y="546"/>
      <point x="351" y="587"/>
      <point x="281" y="587" type="curve" smooth="yes"/>
      <point x="0" y="587" type="line" smooth="yes"/>
      <point x="-12" y="587"/>
      <point x="-28" y="579"/>
      <point x="-28" y="559" type="curve" smooth="yes"/>
      <point x="-28" y="540"/>
      <point x="-14" y="528"/>
      <point x="0" y="528" type="curve" smooth="yes"/>
      <point x="267" y="528" type="line" smooth="yes"/>
      <point x="292" y="528"/>
      <point x="343" y="522"/>
      <point x="343" y="504" type="curve" smooth="yes"/>
      <point x="343" y="475"/>
      <point x="262" y="438"/>
      <point x="63" y="353" type="curve" smooth="yes"/>
      <point x="37" y="341"/>
      <point x="26" y="325"/>
      <point x="26" y="306" type="curve" smooth="yes"/>
      <point x="26" y="279"/>
      <point x="48" y="265"/>
      <point x="76" y="256" type="curve" smooth="yes"/>
      <point x="109" y="247"/>
      <point x="182" y="229"/>
      <point x="248" y="194" type="curve"/>
    </contour>
    <contour>
      <point x="395" y="-22" type="line"/>
      <point x="366" y="66"/>
      <point x="222" y="135"/>
      <point x="175" y="135" type="curve"/>
      <point x="170" y="109" type="line"/>
      <point x="393" y="225" type="line"/>
      <point x="393" y="299" type="line"/>
      <point x="141" y="172" type="line" smooth="yes"/>
      <point x="108" y="155"/>
      <point x="97" y="142"/>
      <point x="97" y="123" type="curve" smooth="yes"/>
      <point x="97" y="102"/>
      <point x="111" y="89"/>
      <point x="131" y="85" type="curve" smooth="yes"/>
      <point x="229" y="59"/>
      <point x="356" y="-10"/>
      <point x="356" y="-58" type="curve"/>
    </contour>
    <contour>
      <point x="540" y="25" type="line"/>
      <point x="540" y="127"/>
      <point x="423" y="134"/>
      <point x="423" y="239" type="curve"/>
      <point x="393" y="177" type="line"/>
      <point x="393" y="103"/>
      <point x="504" y="85"/>
      <point x="504" y="1" type="curve"/>
    </contour>
    <contour>
      <point x="408" y="-111"/>
      <point x="423" y="-94"/>
      <point x="423" y="-71" type="curve" smooth="yes"/>
      <point x="423" y="569" type="line" smooth="yes"/>
      <point x="423" y="592"/>
      <point x="408" y="609"/>
      <point x="389" y="609" type="curve" smooth="yes"/>
      <point x="369" y="609"/>
      <point x="355" y="592"/>
      <point x="355" y="569" type="curve" smooth="yes"/>
      <point x="355" y="-71" type="line" smooth="yes"/>
      <point x="355" y="-94"/>
      <point x="370" y="-111"/>
      <point x="389" y="-111" type="curve" smooth="yes"/>
    </contour>
    <contour>
      <point x="557" y="-47"/>
      <point x="572" y="-30"/>
      <point x="572" y="-7" type="curve" smooth="yes"/>
      <point x="572" y="453" type="line" smooth="yes"/>
      <point x="572" y="518"/>
      <point x="575" y="528"/>
      <point x="609" y="528" type="curve" smooth="yes"/>
      <point x="655" y="528" type="line" smooth="yes"/>
      <point x="673" y="528"/>
      <point x="688" y="541"/>
      <point x="688" y="558" type="curve" smooth="yes"/>
      <point x="688" y="575"/>
      <point x="673" y="587"/>
      <point x="655" y="587" type="curve" smooth="yes"/>
      <point x="592" y="587" type="line" smooth="yes"/>
      <point x="536" y="587"/>
      <point x="504" y="551"/>
      <point x="504" y="470" type="curve" smooth="yes"/>
      <point x="504" y="-7" type="line" smooth="yes"/>
      <point x="504" y="-30"/>
      <point x="519" y="-47"/>
      <point x="538" y="-47" type="curve" smooth="yes"/>
    </contour>
  </outline>
</glyph>
<glyph name="bBLa" format="1">
  <advance width="485"/>
  <outline>
    <contour>
      <point x="383" y="79" type="line"/>
      <point x="383" y="194"/>
      <point x="181" y="300"/>
      <point x="58" y="315" type="curve"/>
      <point x="82" y="294" type="line"/>
      <point x="310" y="380"/>
      <point x="370" y="434"/>
      <point x="370" y="497" type="curve" smooth="yes"/>
      <point x="370" y="546"/>
      <point x="330" y="587"/>
      <point x="260" y="587" type="curve" smooth="yes"/>
      <point x="0" y="587" type="line" smooth="yes"/>
      <point x="-12" y="587"/>
      <point x="-28" y="579"/>
      <point x="-28" y="559" type="curve" smooth="yes"/>
      <point x="-28" y="540"/>
      <point x="-14" y="528"/>
      <point x="0" y="528" type="curve" smooth="yes"/>
      <point x="246" y="528" type="line" smooth="yes"/>
      <point x="285" y="528"/>
      <point x="322" y="522"/>
      <point x="322" y="504" type="curve" smooth="yes"/>
      <point x="322" y="475"/>
      <point x="241" y="438"/>
      <point x="42" y="353" type="curve" smooth="yes"/>
      <point x="16" y="341"/>
      <point x="5" y="325"/>
      <point x="5" y="306" type="curve" smooth="yes"/>
      <point x="5" y="279"/>
      <point x="27" y="265"/>
      <point x="55" y="256" type="curve" smooth="yes"/>
      <point x="118" y="237"/>
      <point x="335" y="166"/>
      <point x="335" y="59" type="curve"/>
    </contour>
    <contour>
      <point x="387" y="-92"/>
      <point x="402" y="-75"/>
      <point x="402" y="-52" type="curve" smooth="yes"/>
      <point x="402" y="453" type="line" smooth="yes"/>
      <point x="402" y="518"/>
      <point x="405" y="528"/>
      <point x="439" y="528" type="curve" smooth="yes"/>
      <point x="485" y="528" type="line" smooth="yes"/>
      <point x="503" y="528"/>
      <point x="518" y="541"/>
      <point x="518" y="558" type="curve" smooth="yes"/>
      <point x="518" y="575"/>
      <point x="503" y="587"/>
      <point x="485" y="587" type="curve" smooth="yes"/>
      <point x="422" y="587" type="line" smooth="yes"/>
      <point x="366" y="587"/>
      <point x="334" y="551"/>
      <point x="334" y="470" type="curve" smooth="yes"/>
      <point x="334" y="-52" type="line" smooth="yes"/>
      <point x="334" y="-75"/>
      <point x="349" y="-92"/>
      <point x="368" y="-92" type="curve" smooth="yes"/>
    </contour>
    <contour>
      <point x="134" y="-103"/>
      <point x="158" y="-73"/>
      <point x="158" y="-39" type="curve" smooth="yes"/>
      <point x="158" y="-7"/>
      <point x="134" y="26"/>
      <point x="95" y="26" type="curve" smooth="yes"/>
      <point x="59" y="26"/>
      <point x="37" y="-5"/>
      <point x="37" y="-33" type="curve" smooth="yes"/>
      <point x="37" y="-46"/>
      <point x="42" y="-61"/>
      <point x="50" y="-72" type="curve"/>
      <point x="65" y="-65" type="line"/>
      <point x="51" y="-49"/>
      <point x="44" y="-28"/>
      <point x="44" y="-10" type="curve" smooth="yes"/>
      <point x="44" y="37"/>
      <point x="88" y="72"/>
      <point x="140" y="72" type="curve" smooth="yes"/>
      <point x="182" y="72"/>
      <point x="233" y="45"/>
      <point x="233" y="12" type="curve" smooth="yes"/>
      <point x="233" y="2"/>
      <point x="228" y="-7"/>
      <point x="220" y="-7" type="curve" smooth="yes"/>
      <point x="214" y="-7"/>
      <point x="208" y="-1"/>
      <point x="208" y="9" type="curve" smooth="yes"/>
      <point x="208" y="35"/>
      <point x="239" y="56"/>
      <point x="270" y="56" type="curve" smooth="yes"/>
      <point x="313" y="56"/>
      <point x="336" y="21"/>
      <point x="335" y="-42" type="curve"/>
      <point x="368" y="-14" type="line"/>
      <point x="370" y="27"/>
      <point x="342" y="102"/>
      <point x="268" y="102" type="curve" smooth="yes"/>
      <point x="212" y="102"/>
      <point x="169" y="60"/>
      <point x="169" y="10" type="curve" smooth="yes"/>
      <point x="169" y="-24"/>
      <point x="188" y="-52"/>
      <point x="222" y="-52" type="curve" smooth="yes"/>
      <point x="252" y="-52"/>
      <point x="272" y="-30"/>
      <point x="272" y="5" type="curve" smooth="yes"/>
      <point x="272" y="70"/>
      <point x="207" y="126"/>
      <point x="131" y="126" type="curve" smooth="yes"/>
      <point x="53" y="126"/>
      <point x="-5" y="70"/>
      <point x="-5" y="0" type="curve" smooth="yes"/>
      <point x="-5" y="-61"/>
      <point x="41" y="-103"/>
      <point x="91" y="-103" type="curve" smooth="yes"/>
    </contour>
    <contour>
      <point x="79" y="-59"/>
      <point x="69" y="-50"/>
      <point x="69" y="-36" type="curve" smooth="yes"/>
      <point x="69" y="-23"/>
      <point x="79" y="-14"/>
      <point x="92" y="-14" type="curve" smooth="yes"/>
      <point x="104" y="-14"/>
      <point x="114" y="-23"/>
      <point x="114" y="-36" type="curve" smooth="yes"/>
      <point x="114" y="-50"/>
      <point x="104" y="-59"/>
      <point x="92" y="-59" type="curve" smooth="yes"/>
    </contour>
  </outline>
</glyph>
<glyph name="bBRa" format="1">
  <advance width="485"/>
  <outline>
    <contour>
      <point x="383" y="69" type="line"/>
      <point x="383" y="190"/>
      <point x="204" y="291"/>
      <point x="83" y="315" type="curve"/>
      <point x="82" y="294" type="line"/>
      <point x="310" y="380"/>
      <point x="370" y="434"/>
      <point x="370" y="497" type="curve" smooth="yes"/>
      <point x="370" y="546"/>
      <point x="330" y="587"/>
      <point x="260" y="587" type="curve" smooth="yes"/>
      <point x="0" y="587" type="line" smooth="yes"/>
      <point x="-12" y="587"/>
      <point x="-28" y="579"/>
      <point x="-28" y="559" type="curve" smooth="yes"/>
      <point x="-28" y="540"/>
      <point x="-14" y="528"/>
      <point x="0" y="528" type="curve" smooth="yes"/>
      <point x="246" y="528" type="line" smooth="yes"/>
      <point x="285" y="528"/>
      <point x="322" y="522"/>
      <point x="322" y="504" type="curve" smooth="yes"/>
      <point x="322" y="475"/>
      <point x="241" y="438"/>
      <point x="42" y="353" type="curve" smooth="yes"/>
      <point x="16" y="341"/>
      <point x="5" y="325"/>
      <point x="5" y="306" type="curve" smooth="yes"/>
      <point x="5" y="279"/>
      <point x="27" y="265"/>
      <point x="55" y="256" type="curve" smooth="yes"/>
      <point x="118" y="237"/>
      <point x="335" y="162"/>
      <point x="335" y="49" type="curve"/>
    </contour>
    <contour>
      <point x="369" y="-29" type="line"/>
      <point x="360" y="17"/>
      <point x="319" y="58"/>
      <point x="254" y="58" type="curve" smooth="yes"/>
      <point x="212" y="58"/>
      <point x="157" y="41"/>
      <point x="123" y="41" type="curve" smooth="yes"/>
      <point x="87" y="41"/>
      <point x="68" y="59"/>
      <point x="68" y="89" type="curve" smooth="yes"/>
      <point x="68" y="108"/>
      <point x="76" y="127"/>
      <point x="76" y="141" type="curve" smooth="yes"/>
      <point x="76" y="156"/>
      <point x="67" y="166"/>
      <point x="51" y="166" type="curve" smooth="yes"/>
      <point x="19" y="166"/>
      <point x="6" y="123"/>
      <point x="6" y="89" type="curve" smooth="yes"/>
      <point x="6" y="30"/>
      <point x="44" y="-25"/>
      <point x="120" y="-25" type="curve" smooth="yes"/>
      <point x="169" y="-25"/>
      <point x="228" y="-3"/>
      <point x="272" y="-3" type="curve" smooth="yes"/>
      <point x="311" y="-3"/>
      <point x="335" y="-22"/>
      <point x="335" y="-57" type="curve"/>
    </contour>
    <contour>
      <point x="387" y="-97"/>
      <point x="402" y="-80"/>
      <point x="402" y="-57" type="curve" smooth="yes"/>
      <point x="402" y="453" type="line" smooth="yes"/>
      <point x="402" y="518"/>
      <point x="405" y="528"/>
      <point x="439" y="528" type="curve" smooth="yes"/>
      <point x="485" y="528" type="line" smooth="yes"/>
      <point x="503" y="528"/>
      <point x="518" y="541"/>
      <point x="518" y="558" type="curve" smooth="yes"/>
      <point x="518" y="575"/>
      <point x="503" y="587"/>
      <point x="485" y="587" type="curve" smooth="yes"/>
      <point x="422" y="587" type="line" smooth="yes"/>
      <point x="366" y="587"/>
      <point x="334" y="551"/>
      <point x="334" y="470" type="curve" smooth="yes"/>
      <point x="334" y="-57" type="line" smooth="yes"/>
      <point x="334" y="-80"/>
      <point x="349" y="-97"/>
      <point x="368" y="-97" type="curve" smooth="yes"/>
    </contour>
  </outline>
</glyph>
<glyph name="bBRa_bSignU" format="1">
  <advance width="709"/>
  <outline>
    <contour>
      <point x="618" y="175"/>
      <point x="683" y="230"/>
      <point x="683" y="317" type="curve" smooth="yes"/>
      <point x="683" y="394"/>
      <point x="631" y="455"/>
      <point x="560" y="455" type="curve" smooth="yes"/>
      <point x="506" y="455"/>
      <point x="470" y="420"/>
      <point x="470" y="377" type="curve" smooth="yes"/>
      <point x="470" y="330"/>
      <point x="512" y="298"/>
      <point x="553" y="298" type="curve" smooth="yes"/>
      <point x="594" y="298"/>
      <point x="624" y="331"/>
      <point x="624" y="366" type="curve" smooth="yes"/>
      <point x="624" y="390"/>
      <point x="612" y="421"/>
      <point x="580" y="428" type="curve"/>
      <point x="576" y="405" type="line"/>
      <point x="613" y="394"/>
      <point x="632" y="354"/>
      <point x="632" y="323" type="curve" smooth="yes"/>
      <point x="632" y="280"/>
      <point x="596" y="239"/>
      <point x="540" y="239" type="curve" smooth="yes"/>
      <point x="479" y="239"/>
      <point x="402" y="287"/>
      <point x="402" y="391" type="curve"/>
      <point x="361" y="372" type="line"/>
      <point x="361" y="283"/>
      <point x="427" y="175"/>
      <point x="539" y="175" type="curve" smooth="yes"/>
    </contour>
    <contour>
      <point x="542" y="347"/>
      <point x="531" y="359"/>
      <point x="531" y="373" type="curve" smooth="yes"/>
      <point x="531" y="389"/>
      <point x="543" y="400"/>
      <point x="559" y="400" type="curve" smooth="yes"/>
      <point x="573" y="400"/>
      <point x="585" y="389"/>
      <point x="585" y="373" type="curve" smooth="yes"/>
      <point x="585" y="359"/>
      <point x="574" y="347"/>
      <point x="559" y="347" type="curve" smooth="yes"/>
    </contour>
    <contour>
      <point x="709" y="528" type="line" smooth="yes"/>
      <point x="728" y="528"/>
      <point x="742" y="541"/>
      <point x="742" y="558" type="curve" smooth="yes"/>
      <point x="742" y="575"/>
      <point x="728" y="587"/>
      <point x="709" y="587" type="curve" smooth="yes"/>
      <point x="483" y="587" type="line" smooth="yes"/>
      <point x="465" y="587"/>
      <point x="450" y="575"/>
      <point x="450" y="558" type="curve" smooth="yes"/>
      <point x="450" y="542"/>
      <point x="465" y="528"/>
      <point x="483" y="528" type="curve" smooth="yes"/>
    </contour>
    <component base="bBRa"/>
  </outline>
</glyph>
<glyph name="bBRa_bSignUu" format="1">
  <advance width="648"/>
  <outline>
    <contour>
      <point x="648" y="528" type="line" smooth="yes"/>
      <point x="667" y="528"/>
      <point x="681" y="541"/>
      <point x="681" y="558" type="curve" smooth="yes"/>
      <point x="681" y="575"/>
      <point x="667" y="587"/>
      <point x="648" y="587" type="curve" smooth="yes"/>
      <point x="449" y="587" type="line" smooth="yes"/>
      <point x="440" y="587"/>
      <point x="421" y="581"/>
      <point x="421" y="559" type="curve" smooth="yes"/>
      <point x="421" y="536"/>
      <point x="439" y="528"/>
      <point x="449" y="528" type="curve" smooth="yes"/>
    </contour>
    <contour>
      <point x="562" y="-12"/>
      <point x="574" y="8"/>
      <point x="574" y="42" type="curve" smooth="yes"/>
      <point x="574" y="270" type="line" smooth="yes"/>
      <point x="574" y="364"/>
      <point x="600" y="399"/>
      <point x="600" y="433" type="curve" smooth="yes"/>
      <point x="600" y="452"/>
      <point x="589" y="469"/>
      <point x="560" y="469" type="curve" smooth="yes"/>
      <point x="528" y="469"/>
      <point x="376" y="381"/>
      <point x="354" y="366" type="curve"/>
      <point x="356" y="287" type="line"/>
      <point x="402" y="317"/>
      <point x="506" y="384"/>
      <point x="552" y="400" type="curve"/>
      <point x="548" y="420" type="line"/>
      <point x="518" y="376"/>
      <point x="507" y="321"/>
      <point x="507" y="277" type="curve" smooth="yes"/>
      <point x="507" y="42" type="line" smooth="yes"/>
      <point x="507" y="4"/>
      <point x="524" y="-12"/>
      <point x="541" y="-12" type="curve" smooth="yes"/>
    </contour>
    <component base="bBRa"/>
  </outline>
</glyph>
<glyph name="bBa" format="1">
  <advance width="485"/>
  <outline>
    <contour>
      <point x="382" y="69" type="line"/>
      <point x="382" y="190"/>
      <point x="181" y="300"/>
      <point x="58" y="315" type="curve"/>
      <point x="82" y="294" type="line"/>
      <point x="310" y="380"/>
      <point x="370" y="434"/>
      <point x="370" y="497" type="curve" smooth="yes"/>
      <point x="370" y="546"/>
      <point x="330" y="587"/>
      <point x="260" y="587" type="curve" smooth="yes"/>
      <point x="0" y="587" type="line" smooth="yes"/>
      <point x="-12" y="587"/>
      <point x="-28" y="579"/>
      <point x="-28" y="559" type="curve" smooth="yes"/>
      <point x="-28" y="540"/>
      <point x="-14" y="528"/>
      <point x="0" y="528" type="curve" smooth="yes"/>
      <point x="246" y="528" type="line" smooth="yes"/>
      <point x="285" y="528"/>
      <point x="322" y="522"/>
      <point x="322" y="504" type="curve" smooth="yes"/>
      <point x="322" y="475"/>
      <point x="241" y="438"/>
      <point x="42" y="353" type="curve" smooth="yes"/>
      <point x="16" y="341"/>
      <point x="5" y="325"/>
      <point x="5" y="306" type="curve" smooth="yes"/>
      <point x="5" y="279"/>
      <point x="27" y="265"/>
      <point x="55" y="256" type="curve" smooth="yes"/>
      <point x="118" y="237"/>
      <point x="334" y="162"/>
      <point x="334" y="49" type="curve"/>
    </contour>
    <contour>
      <point x="387" y="-12"/>
      <point x="402" y="6"/>
      <point x="402" y="29" type="curve" smooth="yes"/>
      <point x="402" y="453" type="line" smooth="yes"/>
      <point x="402" y="518"/>
      <point x="405" y="528"/>
      <point x="439" y="528" type="curve" smooth="yes"/>
      <point x="485" y="528" type="line" smooth="yes"/>
      <point x="504" y="528"/>
      <point x="518" y="541"/>
      <point x="518" y="558" type="curve" smooth="yes"/>
      <point x="518" y="575"/>
      <point x="504" y="587"/>
      <point x="485" y="587" type="curve" smooth="yes"/>
      <point x="422" y="587" type="line" smooth="yes"/>
      <point x="366" y="587"/>
      <point x="334" y="551"/>
      <point x="334" y="470" type="curve" smooth="yes"/>
      <point x="334" y="29" type="line" smooth="yes"/>
      <point x="334" y="6"/>
      <point x="349" y="-12"/>
      <point x="368" y="-12" type="curve" smooth="yes"/>
    </contour>
  </outline>
</glyph>
<glyph name="bBaphala" format="1">
  <advance width="0"/>
  <outline>
    <contour>
      <point x="-94" y="-162"/>
      <point x="-84" y="-142"/>
      <point x="-84" y="-115" type="curve" smooth="yes"/>
      <point x="-83" y="121" type="line" smooth="yes"/>
      <point x="-83" y="142"/>
      <point x="-89" y="156"/>
      <point x="-109" y="156" type="curve" smooth="yes"/>
      <point x="-123" y="156"/>
      <point x="-144" y="143"/>
      <point x="-178" y="123" type="curve" smooth="yes"/>
      <point x="-317" y="41" type="line" smooth="yes"/>
      <point x="-344" y="26"/>
      <point x="-355" y="14"/>
      <point x="-355" y="-4" type="curve" smooth="yes"/>
      <point x="-355" y="-16"/>
      <point x="-350" y="-36"/>
      <point x="-323" y="-42" type="curve" smooth="yes"/>
      <point x="-262" y="-54"/>
      <point x="-157" y="-84"/>
      <point x="-150" y="-126" type="curve"/>
      <point x="-109" y="-100" type="line"/>
      <point x="-137" y="-34"/>
      <point x="-245" y="9"/>
      <point x="-314" y="9" type="curve"/>
      <point x="-294" y="-14" type="line"/>
      <point x="-126" y="86" type="line"/>
      <point x="-151" y="104" type="line"/>
      <point x="-151" y="-114" type="line" smooth="yes"/>
      <point x="-151" y="-142"/>
      <point x="-139" y="-162"/>
      <point x="-115" y="-162" type="curve" smooth="yes"/>
    </contour>
  </outline>
</glyph>
<glyph name="bBhBa" format="1">
  <advance width="558"/>
  <outline>
    <contour>
      <point x="466" y="-111"/>
      <point x="480" y="-94"/>
      <point x="480" y="-71" type="curve" smooth="yes"/>
      <point x="480" y="259" type="line" smooth="yes"/>
      <point x="480" y="357"/>
      <point x="430" y="411"/>
      <point x="388" y="411" type="curve" smooth="yes"/>
      <point x="370" y="411"/>
      <point x="358" y="399"/>
      <point x="348" y="371" type="curve" smooth="yes"/>
      <point x="337" y="330"/>
      <point x="286" y="284"/>
      <point x="223" y="284" type="curve" smooth="yes"/>
      <point x="193" y="284"/>
      <point x="153" y="289"/>
      <point x="126" y="330" type="curve"/>
      <point x="104" y="325" type="line"/>
      <point x="116" y="300"/>
      <point x="149" y="289"/>
      <point x="168" y="289" type="curve" smooth="yes"/>
      <point x="213" y="289"/>
      <point x="252" y="324"/>
      <point x="252" y="372" type="curve" smooth="yes"/>
      <point x="252" y="427"/>
      <point x="213" y="463"/>
      <point x="160" y="463" type="curve" smooth="yes"/>
      <point x="113" y="463"/>
      <point x="64" y="427"/>
      <point x="64" y="365" type="curve" smooth="yes"/>
      <point x="64" y="285"/>
      <point x="138" y="220"/>
      <point x="222" y="220" type="curve" smooth="yes"/>
      <point x="342" y="220"/>
      <point x="406" y="328"/>
      <point x="406" y="352" type="curve"/>
      <point x="373" y="343" type="line"/>
      <point x="390" y="343"/>
      <point x="412" y="325"/>
      <point x="412" y="269" type="curve" smooth="yes"/>
      <point x="412" y="-71" type="line" smooth="yes"/>
      <point x="412" y="-94"/>
      <point x="427" y="-111"/>
      <point x="446" y="-111" type="curve" smooth="yes"/>
    </contour>
    <contour>
      <point x="451" y="-52" type="line"/>
      <point x="415" y="50"/>
      <point x="270" y="96"/>
      <point x="187" y="96" type="curve"/>
      <point x="195" y="69" type="line"/>
      <point x="444" y="198" type="line"/>
      <point x="433" y="270" type="line"/>
      <point x="169" y="130" type="line" smooth="yes"/>
      <point x="137" y="114"/>
      <point x="127" y="101"/>
      <point x="127" y="82" type="curve" smooth="yes"/>
      <point x="127" y="65"/>
      <point x="141" y="51"/>
      <point x="161" y="45" type="curve" smooth="yes"/>
      <point x="266" y="13"/>
      <point x="401" y="-32"/>
      <point x="415" y="-83" type="curve"/>
    </contour>
    <contour>
      <point x="142" y="332"/>
      <point x="124" y="345"/>
      <point x="124" y="367" type="curve" smooth="yes"/>
      <point x="124" y="390"/>
      <point x="143" y="401"/>
      <point x="159" y="401" type="curve" smooth="yes"/>
      <point x="176" y="401"/>
      <point x="193" y="389"/>
      <point x="193" y="366" type="curve" smooth="yes"/>
      <point x="193" y="343"/>
      <point x="174" y="332"/>
      <point x="159" y="332" type="curve" smooth="yes"/>
    </contour>
    <contour>
      <point x="558" y="528" type="line" smooth="yes"/>
      <point x="577" y="528"/>
      <point x="591" y="541"/>
      <point x="591" y="558" type="curve" smooth="yes"/>
      <point x="591" y="575"/>
      <point x="577" y="587"/>
      <point x="558" y="587" type="curve" smooth="yes"/>
      <point x="0" y="587" type="line" smooth="yes"/>
      <point x="-19" y="587"/>
      <point x="-33" y="575"/>
      <point x="-33" y="558" type="curve" smooth="yes"/>
      <point x="-33" y="542"/>
      <point x="-19" y="528"/>
      <point x="0" y="528" type="curve" smooth="yes"/>
    </contour>
  </outline>
</glyph>
<glyph name="bBhLa" format="1">
  <advance width="558"/>
  <outline>
    <contour>
      <point x="466" y="-66"/>
      <point x="480" y="-48"/>
      <point x="480" y="-25" type="curve" smooth="yes"/>
      <point x="480" y="259" type="line" smooth="yes"/>
      <point x="480" y="357"/>
      <point x="430" y="411"/>
      <point x="388" y="411" type="curve" smooth="yes"/>
      <point x="370" y="411"/>
      <point x="358" y="397"/>
      <point x="348" y="367" type="curve" smooth="yes"/>
      <point x="337" y="332"/>
      <point x="288" y="282"/>
      <point x="223" y="282" type="curve" smooth="yes"/>
      <point x="197" y="282"/>
      <point x="176" y="290"/>
      <point x="156" y="308" type="curve"/>
      <point x="124" y="298" type="line"/>
      <point x="138" y="292"/>
      <point x="152" y="288"/>
      <point x="163" y="288" type="curve" smooth="yes"/>
      <point x="217" y="288"/>
      <point x="252" y="330"/>
      <point x="252" y="372" type="curve" smooth="yes"/>
      <point x="252" y="427"/>
      <point x="213" y="463"/>
      <point x="160" y="463" type="curve" smooth="yes"/>
      <point x="113" y="463"/>
      <point x="64" y="427"/>
      <point x="64" y="365" type="curve" smooth="yes"/>
      <point x="64" y="285"/>
      <point x="138" y="220"/>
      <point x="222" y="220" type="curve" smooth="yes"/>
      <point x="342" y="220"/>
      <point x="406" y="328"/>
      <point x="406" y="352" type="curve"/>
      <point x="373" y="343" type="line"/>
      <point x="390" y="343"/>
      <point x="412" y="325"/>
      <point x="412" y="269" type="curve" smooth="yes"/>
      <point x="412" y="-25" type="line" smooth="yes"/>
      <point x="412" y="-48"/>
      <point x="427" y="-66"/>
      <point x="446" y="-66" type="curve" smooth="yes"/>
    </contour>
    <contour>
      <point x="142" y="332"/>
      <point x="124" y="345"/>
      <point x="124" y="367" type="curve" smooth="yes"/>
      <point x="124" y="390"/>
      <point x="143" y="401"/>
      <point x="159" y="401" type="curve" smooth="yes"/>
      <point x="176" y="401"/>
      <point x="193" y="389"/>
      <point x="193" y="366" type="curve" smooth="yes"/>
      <point x="193" y="343"/>
      <point x="174" y="332"/>
      <point x="159" y="332" type="curve" smooth="yes"/>
    </contour>
    <contour>
      <point x="558" y="528" type="line" smooth="yes"/>
      <point x="577" y="528"/>
      <point x="591" y="541"/>
      <point x="591" y="558" type="curve" smooth="yes"/>
      <point x="591" y="575"/>
      <point x="577" y="587"/>
      <point x="558" y="587" type="curve" smooth="yes"/>
      <point x="0" y="587" type="line" smooth="yes"/>
      <point x="-19" y="587"/>
      <point x="-33" y="575"/>
      <point x="-33" y="558" type="curve" smooth="yes"/>
      <point x="-33" y="542"/>
      <point x="-19" y="528"/>
      <point x="0" y="528" type="curve" smooth="yes"/>
    </contour>
    <contour>
      <point x="211" y="-60"/>
      <point x="235" y="-30"/>
      <point x="235" y="4" type="curve" smooth="yes"/>
      <point x="235" y="37"/>
      <point x="211" y="69"/>
      <point x="172" y="69" type="curve" smooth="yes"/>
      <point x="136" y="69"/>
      <point x="114" y="39"/>
      <point x="114" y="11" type="curve" smooth="yes"/>
      <point x="114" y="-3"/>
      <point x="119" y="-18"/>
      <point x="127" y="-29" type="curve"/>
      <point x="142" y="-22" type="line"/>
      <point x="128" y="-6"/>
      <point x="121" y="16"/>
      <point x="121" y="33" type="curve" smooth="yes"/>
      <point x="121" y="80"/>
      <point x="165" y="115"/>
      <point x="217" y="115" type="curve" smooth="yes"/>
      <point x="259" y="115"/>
      <point x="310" y="88"/>
      <point x="310" y="55" type="curve" smooth="yes"/>
      <point x="310" y="45"/>
      <point x="305" y="36"/>
      <point x="297" y="36" type="curve" smooth="yes"/>
      <point x="291" y="36"/>
      <point x="285" y="42"/>
      <point x="285" y="52" type="curve" smooth="yes"/>
      <point x="285" y="78"/>
      <point x="316" y="99"/>
      <point x="347" y="99" type="curve" smooth="yes"/>
      <point x="390" y="99"/>
      <point x="413" y="64"/>
      <point x="412" y="1" type="curve"/>
      <point x="445" y="29" type="line"/>
      <point x="447" y="70"/>
      <point x="419" y="145"/>
      <point x="345" y="145" type="curve" smooth="yes"/>
      <point x="289" y="145"/>
      <point x="246" y="103"/>
      <point x="246" y="53" type="curve" smooth="yes"/>
      <point x="246" y="19"/>
      <point x="265" y="-9"/>
      <point x="299" y="-9" type="curve" smooth="yes"/>
      <point x="329" y="-9"/>
      <point x="349" y="13"/>
      <point x="349" y="48" type="curve" smooth="yes"/>
      <point x="349" y="113"/>
      <point x="284" y="169"/>
      <point x="208" y="169" type="curve" smooth="yes"/>
      <point x="130" y="169"/>
      <point x="72" y="113"/>
      <point x="72" y="43" type="curve" smooth="yes"/>
      <point x="72" y="-18"/>
      <point x="118" y="-60"/>
      <point x="168" y="-60" type="curve" smooth="yes"/>
    </contour>
    <contour>
      <point x="156" y="-16"/>
      <point x="146" y="-7"/>
      <point x="146" y="7" type="curve" smooth="yes"/>
      <point x="146" y="21"/>
      <point x="156" y="30"/>
      <point x="169" y="30" type="curve" smooth="yes"/>
      <point x="181" y="30"/>
      <point x="191" y="21"/>
      <point x="191" y="7" type="curve" smooth="yes"/>
      <point x="191" y="-7"/>
      <point x="181" y="-16"/>
      <point x="169" y="-16" type="curve" smooth="yes"/>
    </contour>
  </outline>
</glyph>
<glyph name="bBhRa" format="1">
  <advance width="558"/>
  <outline>
    <contour>
      <point x="470" y="-67"/>
      <point x="480" y="-45"/>
      <point x="480" y="-24" type="curve" smooth="yes"/>
      <point x="480" y="259" type="line" smooth="yes"/>
      <point x="480" y="357"/>
      <point x="430" y="411"/>
      <point x="388" y="411" type="curve" smooth="yes"/>
      <point x="371" y="411"/>
      <point x="359" y="398"/>
      <point x="357" y="373" type="curve" smooth="yes"/>
      <point x="350" y="332"/>
      <point x="307" y="282"/>
      <point x="247" y="282" type="curve" smooth="yes"/>
      <point x="222" y="282"/>
      <point x="201" y="292"/>
      <point x="181" y="308" type="curve"/>
      <point x="136" y="303" type="line"/>
      <point x="155" y="294"/>
      <point x="174" y="289"/>
      <point x="188" y="289" type="curve" smooth="yes"/>
      <point x="242" y="289"/>
      <point x="277" y="332"/>
      <point x="277" y="372" type="curve" smooth="yes"/>
      <point x="277" y="427"/>
      <point x="238" y="463"/>
      <point x="185" y="463" type="curve" smooth="yes"/>
      <point x="138" y="463"/>
      <point x="89" y="427"/>
      <point x="89" y="365" type="curve" smooth="yes"/>
      <point x="89" y="285"/>
      <point x="163" y="220"/>
      <point x="249" y="220" type="curve" smooth="yes"/>
      <point x="371" y="220"/>
      <point x="405" y="324"/>
      <point x="411" y="352" type="curve"/>
      <point x="369" y="336" type="line"/>
      <point x="396" y="336"/>
      <point x="412" y="320"/>
      <point x="412" y="261" type="curve" smooth="yes"/>
      <point x="412" y="-24" type="line" smooth="yes"/>
      <point x="412" y="-45"/>
      <point x="422" y="-67"/>
      <point x="448" y="-67" type="curve" smooth="yes"/>
    </contour>
    <contour>
      <point x="167" y="332"/>
      <point x="149" y="345"/>
      <point x="149" y="367" type="curve" smooth="yes"/>
      <point x="149" y="390"/>
      <point x="168" y="401"/>
      <point x="184" y="401" type="curve" smooth="yes"/>
      <point x="201" y="401"/>
      <point x="218" y="389"/>
      <point x="218" y="366" type="curve" smooth="yes"/>
      <point x="218" y="343"/>
      <point x="199" y="332"/>
      <point x="184" y="332" type="curve" smooth="yes"/>
    </contour>
    <contour>
      <point x="558" y="528" type="line" smooth="yes"/>
      <point x="577" y="528"/>
      <point x="591" y="541"/>
      <point x="591" y="558" type="curve" smooth="yes"/>
      <point x="591" y="575"/>
      <point x="577" y="587"/>
      <point x="558" y="587" type="curve" smooth="yes"/>
      <point x="0" y="587" type="line" smooth="yes"/>
      <point x="-19" y="587"/>
      <point x="-33" y="575"/>
      <point x="-33" y="558" type="curve" smooth="yes"/>
      <point x="-33" y="542"/>
      <point x="-19" y="528"/>
      <point x="0" y="528" type="curve" smooth="yes"/>
    </contour>
    <contour>
      <point x="444" y="13" type="line"/>
      <point x="425" y="80"/>
      <point x="363" y="101"/>
      <point x="314" y="101" type="curve" smooth="yes"/>
      <point x="254" y="101"/>
      <point x="195" y="78"/>
      <point x="154" y="78" type="curve" smooth="yes"/>
      <point x="119" y="78"/>
      <point x="93" y="96"/>
      <point x="93" y="132" type="curve" smooth="yes"/>
      <point x="93" y="150"/>
      <point x="99" y="167"/>
      <point x="99" y="179" type="curve" smooth="yes"/>
      <point x="99" y="194"/>
      <point x="90" y="207"/>
      <point x="73" y="207" type="curve" smooth="yes"/>
      <point x="44" y="207"/>
      <point x="30" y="165"/>
      <point x="30" y="133" type="curve" smooth="yes"/>
      <point x="30" y="68"/>
      <point x="74" y="11"/>
      <point x="153" y="11" type="curve" smooth="yes"/>
      <point x="203" y="11"/>
      <point x="280" y="35"/>
      <point x="332" y="35" type="curve" smooth="yes"/>
      <point x="374" y="35"/>
      <point x="413" y="15"/>
      <point x="413" y="-24" type="curve"/>
    </contour>
  </outline>
</glyph>
<glyph name="bBhRa_bSignU" format="1">
  <advance width="778"/>
  <outline>
    <contour>
      <point x="695" y="72"/>
      <point x="759" y="127"/>
      <point x="759" y="214" type="curve" smooth="yes"/>
      <point x="759" y="291"/>
      <point x="708" y="352"/>
      <point x="636" y="352" type="curve" smooth="yes"/>
      <point x="582" y="352"/>
      <point x="547" y="317"/>
      <point x="547" y="274" type="curve" smooth="yes"/>
      <point x="547" y="227"/>
      <point x="589" y="195"/>
      <point x="630" y="195" type="curve" smooth="yes"/>
      <point x="671" y="195"/>
      <point x="701" y="228"/>
      <point x="701" y="263" type="curve" smooth="yes"/>
      <point x="701" y="287"/>
      <point x="688" y="318"/>
      <point x="657" y="325" type="curve"/>
      <point x="652" y="302" type="line"/>
      <point x="690" y="291"/>
      <point x="708" y="251"/>
      <point x="708" y="220" type="curve" smooth="yes"/>
      <point x="708" y="177"/>
      <point x="672" y="136"/>
      <point x="616" y="136" type="curve" smooth="yes"/>
      <point x="551" y="136"/>
      <point x="480" y="191"/>
      <point x="480" y="268" type="curve"/>
      <point x="442" y="248" type="line"/>
      <point x="442" y="174"/>
      <point x="508" y="72"/>
      <point x="618" y="72" type="curve" smooth="yes"/>
    </contour>
    <contour>
      <point x="618" y="244"/>
      <point x="607" y="256"/>
      <point x="607" y="270" type="curve" smooth="yes"/>
      <point x="607" y="286"/>
      <point x="619" y="297"/>
      <point x="635" y="297" type="curve" smooth="yes"/>
      <point x="649" y="297"/>
      <point x="661" y="286"/>
      <point x="661" y="270" type="curve" smooth="yes"/>
      <point x="661" y="256"/>
      <point x="650" y="244"/>
      <point x="635" y="244" type="curve" smooth="yes"/>
    </contour>
    <contour>
      <point x="778" y="528" type="line" smooth="yes"/>
      <point x="796" y="528"/>
      <point x="811" y="541"/>
      <point x="811" y="558" type="curve" smooth="yes"/>
      <point x="811" y="575"/>
      <point x="796" y="587"/>
      <point x="778" y="587" type="curve" smooth="yes"/>
      <point x="551" y="587" type="line" smooth="yes"/>
      <point x="544" y="587"/>
      <point x="526" y="582"/>
      <point x="526" y="558" type="curve" smooth="yes"/>
      <point x="526" y="536"/>
      <point x="542" y="528"/>
      <point x="551" y="528" type="curve" smooth="yes"/>
    </contour>
    <component base="bBhRa"/>
  </outline>
</glyph>
<glyph name="bBhRa_bSignUu" format="1">
  <advance width="725"/>
  <outline>
    <contour>
      <point x="725" y="528" type="line" smooth="yes"/>
      <point x="743" y="528"/>
      <point x="758" y="541"/>
      <point x="758" y="558" type="curve" smooth="yes"/>
      <point x="758" y="575"/>
      <point x="743" y="587"/>
      <point x="725" y="587" type="curve" smooth="yes"/>
      <point x="533" y="587" type="line" smooth="yes"/>
      <point x="526" y="587"/>
      <point x="508" y="582"/>
      <point x="508" y="559" type="curve" smooth="yes"/>
      <point x="508" y="536"/>
      <point x="524" y="528"/>
      <point x="533" y="528" type="curve" smooth="yes"/>
    </contour>
    <contour>
      <point x="627" y="-12"/>
      <point x="638" y="8"/>
      <point x="638" y="42" type="curve" smooth="yes"/>
      <point x="638" y="205" type="line" smooth="yes"/>
      <point x="638" y="299"/>
      <point x="664" y="334"/>
      <point x="664" y="368" type="curve" smooth="yes"/>
      <point x="664" y="387"/>
      <point x="653" y="404"/>
      <point x="627" y="404" type="curve" smooth="yes"/>
      <point x="597" y="404"/>
      <point x="458" y="311"/>
      <point x="431" y="281" type="curve"/>
      <point x="433" y="202" type="line"/>
      <point x="476" y="240"/>
      <point x="576" y="314"/>
      <point x="617" y="335" type="curve"/>
      <point x="613" y="355" type="line"/>
      <point x="583" y="311"/>
      <point x="571" y="256"/>
      <point x="571" y="212" type="curve" smooth="yes"/>
      <point x="571" y="42" type="line" smooth="yes"/>
      <point x="571" y="4"/>
      <point x="589" y="-12"/>
      <point x="605" y="-12" type="curve" smooth="yes"/>
    </contour>
    <component base="bBhRa"/>
  </outline>
</glyph>
<glyph name="bBha" format="1">
  <advance width="571"/>
  <outline>
    <contour>
      <point x="462" y="39"/>
      <point x="535" y="144"/>
      <point x="535" y="249" type="curve" smooth="yes"/>
      <point x="535" y="321"/>
      <point x="502" y="407"/>
      <point x="462" y="407" type="curve" smooth="yes"/>
      <point x="444" y="407"/>
      <point x="435" y="394"/>
      <point x="433" y="369" type="curve" smooth="yes"/>
      <point x="427" y="331"/>
      <point x="389" y="287"/>
      <point x="328" y="287" type="curve" smooth="yes"/>
      <point x="298" y="287"/>
      <point x="265" y="301"/>
      <point x="238" y="332" type="curve"/>
      <point x="215" y="320" type="line"/>
      <point x="225" y="305"/>
      <point x="248" y="295"/>
      <point x="271" y="295" type="curve" smooth="yes"/>
      <point x="317" y="295"/>
      <point x="358" y="333"/>
      <point x="358" y="380" type="curve" smooth="yes"/>
      <point x="358" y="429"/>
      <point x="320" y="467"/>
      <point x="266" y="467" type="curve" smooth="yes"/>
      <point x="218" y="467"/>
      <point x="170" y="432"/>
      <point x="170" y="370" type="curve" smooth="yes"/>
      <point x="170" y="290"/>
      <point x="243" y="222"/>
      <point x="329" y="222" type="curve" smooth="yes"/>
      <point x="424" y="222"/>
      <point x="475" y="303"/>
      <point x="475" y="350" type="curve"/>
      <point x="459" y="339" type="line"/>
      <point x="471" y="319"/>
      <point x="477" y="293"/>
      <point x="477" y="269" type="curve" smooth="yes"/>
      <point x="477" y="191"/>
      <point x="425" y="115"/>
      <point x="324" y="115" type="curve" smooth="yes"/>
      <point x="194" y="115"/>
      <point x="106" y="273"/>
      <point x="79" y="402" type="curve" smooth="yes"/>
      <point x="74" y="425"/>
      <point x="62" y="439"/>
      <point x="44" y="439" type="curve" smooth="yes"/>
      <point x="26" y="439"/>
      <point x="17" y="420"/>
      <point x="17" y="407" type="curve" smooth="yes"/>
      <point x="17" y="316"/>
      <point x="116" y="39"/>
      <point x="328" y="39" type="curve" smooth="yes"/>
    </contour>
    <contour>
      <point x="245" y="338"/>
      <point x="227" y="351"/>
      <point x="227" y="373" type="curve" smooth="yes"/>
      <point x="227" y="395"/>
      <point x="246" y="407"/>
      <point x="262" y="407" type="curve" smooth="yes"/>
      <point x="279" y="407"/>
      <point x="296" y="395"/>
      <point x="296" y="372" type="curve" smooth="yes"/>
      <point x="296" y="349"/>
      <point x="277" y="338"/>
      <point x="262" y="338" type="curve" smooth="yes"/>
    </contour>
    <contour>
      <point x="571" y="528" type="line" smooth="yes"/>
      <point x="582" y="528"/>
      <point x="601" y="536"/>
      <point x="601" y="558" type="curve" smooth="yes"/>
      <point x="601" y="579"/>
      <point x="583" y="587"/>
      <point x="571" y="587" type="curve" smooth="yes"/>
      <point x="-1" y="587" type="line" smooth="yes"/>
      <point x="-15" y="587"/>
      <point x="-33" y="579"/>
      <point x="-33" y="558" type="curve" smooth="yes"/>
      <point x="-33" y="536"/>
      <point x="-15" y="528"/>
      <point x="-1" y="528" type="curve" smooth="yes"/>
    </contour>
  </outline>
</glyph>
<glyph name="bCBa" format="1">
  <advance width="465"/>
  <outline>
    <contour>
      <point x="304" y="48"/>
      <point x="441" y="206"/>
      <point x="440" y="296" type="curve" smooth="yes"/>
      <point x="440" y="350"/>
      <point x="402" y="367"/>
      <point x="319" y="383" type="curve" smooth="yes"/>
      <point x="223" y="402"/>
      <point x="164" y="422"/>
      <point x="164" y="484" type="curve" smooth="yes"/>
      <point x="164" y="524"/>
      <point x="187" y="529"/>
      <point x="225" y="529" type="curve" smooth="yes"/>
      <point x="465" y="528" type="line" smooth="yes"/>
      <point x="484" y="528"/>
      <point x="498" y="541"/>
      <point x="498" y="558" type="curve" smooth="yes"/>
      <point x="498" y="575"/>
      <point x="484" y="587"/>
      <point x="465" y="587" type="curve" smooth="yes"/>
      <point x="184" y="587" type="line" smooth="yes"/>
      <point x="134" y="587"/>
      <point x="105" y="555"/>
      <point x="105" y="518" type="curve"/>
      <point x="118" y="526" type="line"/>
      <point x="113" y="553"/>
      <point x="81" y="587"/>
      <point x="36" y="587" type="curve" smooth="yes"/>
      <point x="0" y="587" type="line" smooth="yes"/>
      <point x="-19" y="587"/>
      <point x="-33" y="575"/>
      <point x="-33" y="558" type="curve" smooth="yes"/>
      <point x="-33" y="542"/>
      <point x="-19" y="528"/>
      <point x="0" y="528" type="curve" smooth="yes"/>
      <point x="34" y="528" type="line" smooth="yes"/>
      <point x="88" y="528"/>
      <point x="96" y="486"/>
      <point x="96" y="427" type="curve" smooth="yes"/>
      <point x="95" y="190" type="line" smooth="yes"/>
      <point x="94" y="101"/>
      <point x="115" y="48"/>
      <point x="183" y="48" type="curve" smooth="yes"/>
    </contour>
    <contour>
      <point x="335" y="-125" type="line"/>
      <point x="320" y="-64"/>
      <point x="205" y="10"/>
      <point x="144" y="10" type="curve"/>
      <point x="166" y="-15" type="line"/>
      <point x="317" y="95" type="line"/>
      <point x="281" y="143" type="line"/>
      <point x="133" y="37" type="line" smooth="yes"/>
      <point x="109" y="19"/>
      <point x="97" y="11"/>
      <point x="97" y="-7" type="curve" smooth="yes"/>
      <point x="97" y="-19"/>
      <point x="103" y="-35"/>
      <point x="128" y="-42" type="curve" smooth="yes"/>
      <point x="191" y="-59"/>
      <point x="281" y="-96"/>
      <point x="293" y="-148" type="curve"/>
    </contour>
    <contour>
      <point x="347" y="-182"/>
      <point x="359" y="-164"/>
      <point x="359" y="-141" type="curve" smooth="yes"/>
      <point x="359" y="158" type="line"/>
      <point x="291" y="139" type="line"/>
      <point x="291" y="-141" type="line" smooth="yes"/>
      <point x="291" y="-164"/>
      <point x="306" y="-182"/>
      <point x="327" y="-182" type="curve" smooth="yes"/>
    </contour>
    <contour>
      <point x="163" y="128"/>
      <point x="163" y="170"/>
      <point x="163" y="200" type="curve" smooth="yes"/>
      <point x="163" y="416" type="line"/>
      <point x="143" y="404" type="line"/>
      <point x="167" y="355"/>
      <point x="241" y="336"/>
      <point x="307" y="324" type="curve" smooth="yes"/>
      <point x="348" y="319"/>
      <point x="363" y="306"/>
      <point x="363" y="283" type="curve" smooth="yes"/>
      <point x="363" y="237"/>
      <point x="257" y="128"/>
      <point x="198" y="128" type="curve" smooth="yes"/>
    </contour>
  </outline>
</glyph>
<glyph name="bCCa" format="1">
  <advance width="734"/>
  <outline>
    <contour>
      <point x="288" y="63"/>
      <point x="405" y="209"/>
      <point x="405" y="291" type="curve" smooth="yes"/>
      <point x="405" y="335"/>
      <point x="398" y="366"/>
      <point x="297" y="387" type="curve" smooth="yes"/>
      <point x="225" y="402"/>
      <point x="154" y="431"/>
      <point x="154" y="494" type="curve" smooth="yes"/>
      <point x="154" y="528"/>
      <point x="176" y="528"/>
      <point x="197" y="528" type="curve" smooth="yes"/>
      <point x="283" y="528" type="line"/>
      <point x="283" y="587" type="line"/>
      <point x="167" y="587" type="line" smooth="yes"/>
      <point x="124" y="587"/>
      <point x="97" y="567"/>
      <point x="98" y="522" type="curve"/>
      <point x="107" y="522" type="line"/>
      <point x="101" y="562"/>
      <point x="81" y="587"/>
      <point x="26" y="587" type="curve" smooth="yes"/>
      <point x="0" y="587" type="line" smooth="yes"/>
      <point x="-19" y="587"/>
      <point x="-33" y="575"/>
      <point x="-33" y="558" type="curve" smooth="yes"/>
      <point x="-33" y="542"/>
      <point x="-19" y="528"/>
      <point x="0" y="528" type="curve" smooth="yes"/>
      <point x="31" y="528" type="line" smooth="yes"/>
      <point x="77" y="528"/>
      <point x="89" y="490"/>
      <point x="89" y="438" type="curve" smooth="yes"/>
      <point x="89" y="195" type="line" smooth="yes"/>
      <point x="89" y="112"/>
      <point x="113" y="63"/>
      <point x="184" y="63" type="curve" smooth="yes"/>
    </contour>
    <contour>
      <point x="172" y="131"/>
      <point x="156" y="144"/>
      <point x="156" y="195" type="curve" smooth="yes"/>
      <point x="156" y="416" type="line"/>
      <point x="127" y="411" type="line"/>
      <point x="169" y="348"/>
      <point x="262" y="328"/>
      <point x="296" y="319" type="curve" smooth="yes"/>
      <point x="324" y="312"/>
      <point x="340" y="301"/>
      <point x="340" y="282" type="curve" smooth="yes"/>
      <point x="340" y="231"/>
      <point x="252" y="131"/>
      <point x="192" y="131" type="curve" smooth="yes"/>
    </contour>
    <component base="bCa" xOffset="269"/>
  </outline>
</glyph>
<glyph name="bCChBa" format="1">
  <advance width="772"/>
  <outline>
    <contour>
      <point x="774" y="2"/>
      <point x="787" y="15"/>
      <point x="787" y="32" type="curve" smooth="yes"/>
      <point x="787" y="47"/>
      <point x="776" y="59"/>
      <point x="751" y="63" type="curve" smooth="yes"/>
      <point x="713" y="67"/>
      <point x="658" y="74"/>
      <point x="603" y="118" type="curve" smooth="yes"/>
      <point x="552" y="162"/>
      <point x="503" y="188"/>
      <point x="461" y="188" type="curve" smooth="yes"/>
      <point x="408" y="188"/>
      <point x="380" y="156"/>
      <point x="380" y="120" type="curve" smooth="yes"/>
      <point x="380" y="77"/>
      <point x="422" y="50"/>
      <point x="472" y="50" type="curve" smooth="yes"/>
      <point x="591" y="50"/>
      <point x="739" y="156"/>
      <point x="739" y="287" type="curve" smooth="yes"/>
      <point x="739" y="383"/>
      <point x="673" y="455"/>
      <point x="558" y="455" type="curve" smooth="yes"/>
      <point x="502" y="455"/>
      <point x="440" y="468"/>
      <point x="440" y="499" type="curve" smooth="yes"/>
      <point x="440" y="524"/>
      <point x="456" y="528"/>
      <point x="483" y="528" type="curve" smooth="yes"/>
      <point x="772" y="528" type="line" smooth="yes"/>
      <point x="791" y="528"/>
      <point x="805" y="541"/>
      <point x="805" y="558" type="curve" smooth="yes"/>
      <point x="805" y="575"/>
      <point x="791" y="587"/>
      <point x="772" y="587" type="curve" smooth="yes"/>
      <point x="463" y="587" type="line" smooth="yes"/>
      <point x="410" y="587"/>
      <point x="387" y="560"/>
      <point x="387" y="516" type="curve"/>
      <point x="401" y="523" type="line"/>
      <point x="394" y="560"/>
      <point x="362" y="587"/>
      <point x="311" y="587" type="curve" smooth="yes"/>
      <point x="167" y="587" type="line" smooth="yes"/>
      <point x="121" y="587"/>
      <point x="98" y="568"/>
      <point x="98" y="515" type="curve"/>
      <point x="112" y="515" type="line"/>
      <point x="106" y="560"/>
      <point x="81" y="587"/>
      <point x="26" y="587" type="curve" smooth="yes"/>
      <point x="0" y="587" type="line" smooth="yes"/>
      <point x="-19" y="587"/>
      <point x="-33" y="575"/>
      <point x="-33" y="558" type="curve" smooth="yes"/>
      <point x="-33" y="542"/>
      <point x="-19" y="528"/>
      <point x="0" y="528" type="curve" smooth="yes"/>
      <point x="31" y="528" type="line" smooth="yes"/>
      <point x="77" y="528"/>
      <point x="90" y="490"/>
      <point x="90" y="438" type="curve" smooth="yes"/>
      <point x="90" y="185" type="line" smooth="yes"/>
      <point x="90" y="112"/>
      <point x="117" y="63"/>
      <point x="180" y="63" type="curve" smooth="yes"/>
      <point x="299" y="63"/>
      <point x="415" y="220"/>
      <point x="415" y="290" type="curve" smooth="yes"/>
      <point x="415" y="334"/>
      <point x="403" y="371"/>
      <point x="297" y="391" type="curve" smooth="yes"/>
      <point x="230" y="404"/>
      <point x="154" y="431"/>
      <point x="154" y="491" type="curve" smooth="yes"/>
      <point x="154" y="525"/>
      <point x="176" y="528"/>
      <point x="202" y="528" type="curve" smooth="yes"/>
      <point x="308" y="528" type="line" smooth="yes"/>
      <point x="363" y="528"/>
      <point x="373" y="502"/>
      <point x="373" y="468" type="curve" smooth="yes"/>
      <point x="372" y="308" type="line" smooth="yes"/>
      <point x="371" y="246"/>
      <point x="399" y="213"/>
      <point x="462" y="213" type="curve" smooth="yes"/>
      <point x="553" y="213"/>
      <point x="656" y="319"/>
      <point x="638" y="392" type="curve"/>
      <point x="622" y="397" type="line"/>
      <point x="659" y="375"/>
      <point x="677" y="343"/>
      <point x="677" y="298" type="curve" smooth="yes"/>
      <point x="677" y="206"/>
      <point x="555" y="111"/>
      <point x="470" y="111" type="curve" smooth="yes"/>
      <point x="449" y="111"/>
      <point x="439" y="119"/>
      <point x="439" y="125" type="curve" smooth="yes"/>
      <point x="439" y="130"/>
      <point x="444" y="133"/>
      <point x="453" y="133" type="curve" smooth="yes"/>
      <point x="473" y="133"/>
      <point x="512" y="113"/>
      <point x="542" y="87" type="curve" smooth="yes"/>
      <point x="609" y="31"/>
      <point x="704" y="2"/>
      <point x="751" y="2" type="curve" smooth="yes"/>
    </contour>
    <contour>
      <point x="173" y="131"/>
      <point x="157" y="145"/>
      <point x="157" y="198" type="curve" smooth="yes"/>
      <point x="157" y="416" type="line"/>
      <point x="127" y="416" type="line"/>
      <point x="169" y="344"/>
      <point x="267" y="334"/>
      <point x="301" y="325" type="curve" smooth="yes"/>
      <point x="329" y="318"/>
      <point x="345" y="306"/>
      <point x="345" y="287" type="curve" smooth="yes"/>
      <point x="345" y="236"/>
      <point x="245" y="131"/>
      <point x="197" y="131" type="curve" smooth="yes"/>
    </contour>
    <contour>
      <point x="682" y="-138" type="line"/>
      <point x="657" y="-67"/>
      <point x="561" y="-32"/>
      <point x="507" y="-32" type="curve"/>
      <point x="522" y="-53" type="line"/>
      <point x="672" y="29" type="line"/>
      <point x="643" y="72" type="line"/>
      <point x="497" y="-3" type="line" smooth="yes"/>
      <point x="475" y="-15"/>
      <point x="461" y="-25"/>
      <point x="461" y="-43" type="curve" smooth="yes"/>
      <point x="461" y="-59"/>
      <point x="472" y="-70"/>
      <point x="492" y="-76" type="curve" smooth="yes"/>
      <point x="553" y="-91"/>
      <point x="639" y="-115"/>
      <point x="646" y="-151" type="curve"/>
    </contour>
    <contour>
      <point x="696" y="-181"/>
      <point x="706" y="-165"/>
      <point x="706" y="-143" type="curve" smooth="yes"/>
      <point x="707" y="51" type="line"/>
      <point x="644" y="49" type="line"/>
      <point x="644" y="-143" type="line" smooth="yes"/>
      <point x="644" y="-165"/>
      <point x="658" y="-181"/>
      <point x="678" y="-181" type="curve" smooth="yes"/>
    </contour>
    <contour>
      <point x="443" y="273"/>
      <point x="439" y="294"/>
      <point x="439" y="330" type="curve" smooth="yes"/>
      <point x="439" y="457" type="line"/>
      <point x="424" y="440" type="line"/>
      <point x="438" y="414"/>
      <point x="479" y="406"/>
      <point x="524" y="406" type="curve" smooth="yes"/>
      <point x="560" y="406"/>
      <point x="584" y="404"/>
      <point x="584" y="377" type="curve" smooth="yes"/>
      <point x="584" y="335"/>
      <point x="516" y="273"/>
      <point x="470" y="273" type="curve" smooth="yes"/>
    </contour>
  </outline>
</glyph>
<glyph name="bCChRa" format="1">
  <advance width="772"/>
  <outline>
    <contour>
      <point x="770" y="-17"/>
      <point x="787" y="-4"/>
      <point x="787" y="14" type="curve" smooth="yes"/>
      <point x="787" y="30"/>
      <point x="776" y="43"/>
      <point x="751" y="44" type="curve" smooth="yes"/>
      <point x="714" y="45"/>
      <point x="662" y="67"/>
      <point x="608" y="104" type="curve" smooth="yes"/>
      <point x="554" y="144"/>
      <point x="508" y="174"/>
      <point x="466" y="174" type="curve" smooth="yes"/>
      <point x="413" y="174"/>
      <point x="385" y="142"/>
      <point x="385" y="106" type="curve" smooth="yes"/>
      <point x="385" y="63"/>
      <point x="427" y="36"/>
      <point x="477" y="36" type="curve" smooth="yes"/>
      <point x="596" y="36"/>
      <point x="739" y="135"/>
      <point x="739" y="269" type="curve" smooth="yes"/>
      <point x="739" y="354"/>
      <point x="673" y="438"/>
      <point x="558" y="438" type="curve" smooth="yes"/>
      <point x="502" y="438"/>
      <point x="440" y="452"/>
      <point x="440" y="497" type="curve" smooth="yes"/>
      <point x="440" y="524"/>
      <point x="456" y="528"/>
      <point x="483" y="528" type="curve" smooth="yes"/>
      <point x="772" y="528" type="line" smooth="yes"/>
      <point x="791" y="528"/>
      <point x="805" y="541"/>
      <point x="805" y="558" type="curve" smooth="yes"/>
      <point x="805" y="575"/>
      <point x="791" y="587"/>
      <point x="772" y="587" type="curve" smooth="yes"/>
      <point x="463" y="587" type="line" smooth="yes"/>
      <point x="410" y="587"/>
      <point x="387" y="560"/>
      <point x="387" y="516" type="curve"/>
      <point x="401" y="523" type="line"/>
      <point x="394" y="560"/>
      <point x="362" y="587"/>
      <point x="311" y="587" type="curve" smooth="yes"/>
      <point x="167" y="587" type="line" smooth="yes"/>
      <point x="129" y="587"/>
      <point x="98" y="568"/>
      <point x="98" y="515" type="curve"/>
      <point x="112" y="515" type="line"/>
      <point x="106" y="560"/>
      <point x="81" y="587"/>
      <point x="26" y="587" type="curve" smooth="yes"/>
      <point x="0" y="587" type="line" smooth="yes"/>
      <point x="-19" y="587"/>
      <point x="-33" y="575"/>
      <point x="-33" y="558" type="curve" smooth="yes"/>
      <point x="-33" y="542"/>
      <point x="-19" y="528"/>
      <point x="0" y="528" type="curve" smooth="yes"/>
      <point x="31" y="528" type="line" smooth="yes"/>
      <point x="77" y="528"/>
      <point x="90" y="490"/>
      <point x="90" y="438" type="curve" smooth="yes"/>
      <point x="90" y="185" type="line" smooth="yes"/>
      <point x="90" y="112"/>
      <point x="117" y="63"/>
      <point x="180" y="63" type="curve" smooth="yes"/>
      <point x="299" y="63"/>
      <point x="415" y="220"/>
      <point x="415" y="290" type="curve" smooth="yes"/>
      <point x="415" y="334"/>
      <point x="403" y="371"/>
      <point x="297" y="391" type="curve" smooth="yes"/>
      <point x="230" y="404"/>
      <point x="154" y="431"/>
      <point x="154" y="491" type="curve" smooth="yes"/>
      <point x="154" y="525"/>
      <point x="174" y="528"/>
      <point x="207" y="528" type="curve" smooth="yes"/>
      <point x="308" y="528" type="line" smooth="yes"/>
      <point x="359" y="528"/>
      <point x="373" y="502"/>
      <point x="373" y="468" type="curve" smooth="yes"/>
      <point x="372" y="279" type="line" smooth="yes"/>
      <point x="371" y="217"/>
      <point x="399" y="184"/>
      <point x="462" y="184" type="curve" smooth="yes"/>
      <point x="553" y="184"/>
      <point x="664" y="302"/>
      <point x="640" y="370" type="curve"/>
      <point x="622" y="368" type="line"/>
      <point x="665" y="347"/>
      <point x="681" y="313"/>
      <point x="681" y="270" type="curve" smooth="yes"/>
      <point x="681" y="176"/>
      <point x="560" y="97"/>
      <point x="475" y="97" type="curve" smooth="yes"/>
      <point x="454" y="97"/>
      <point x="444" y="105"/>
      <point x="444" y="111" type="curve" smooth="yes"/>
      <point x="444" y="116"/>
      <point x="449" y="119"/>
      <point x="458" y="119" type="curve" smooth="yes"/>
      <point x="478" y="119"/>
      <point x="514" y="97"/>
      <point x="564" y="61" type="curve" smooth="yes"/>
      <point x="638" y="9"/>
      <point x="701" y="-17"/>
      <point x="746" y="-17" type="curve" smooth="yes"/>
    </contour>
    <contour>
      <point x="173" y="131"/>
      <point x="157" y="145"/>
      <point x="157" y="198" type="curve" smooth="yes"/>
      <point x="157" y="416" type="line"/>
      <point x="127" y="416" type="line"/>
      <point x="169" y="344"/>
      <point x="267" y="334"/>
      <point x="301" y="325" type="curve" smooth="yes"/>
      <point x="329" y="318"/>
      <point x="345" y="306"/>
      <point x="345" y="287" type="curve" smooth="yes"/>
      <point x="345" y="236"/>
      <point x="245" y="131"/>
      <point x="197" y="131" type="curve" smooth="yes"/>
    </contour>
    <contour>
      <point x="443" y="244"/>
      <point x="439" y="265"/>
      <point x="439" y="301" type="curve" smooth="yes"/>
      <point x="439" y="457" type="line"/>
      <point x="424" y="447" type="line"/>
      <point x="435" y="400"/>
      <point x="479" y="386"/>
      <point x="524" y="386" type="curve" smooth="yes"/>
      <point x="560" y="386"/>
      <point x="584" y="377"/>
      <point x="584" y="350" type="curve" smooth="yes"/>
      <point x="584" y="308"/>
      <point x="516" y="244"/>
      <point x="470" y="244" type="curve" smooth="yes"/>
    </contour>
    <contour>
      <point x="667" y="-105" type="line"/>
      <point x="658" y="-50"/>
      <point x="609" y="-1"/>
      <point x="544" y="-1" type="curve" smooth="yes"/>
      <point x="492" y="-1"/>
      <point x="441" y="-27"/>
      <point x="395" y="-27" type="curve" smooth="yes"/>
      <point x="362" y="-27"/>
      <point x="338" y="-10"/>
      <point x="338" y="21" type="curve" smooth="yes"/>
      <point x="338" y="40"/>
      <point x="348" y="59"/>
      <point x="348" y="73" type="curve" smooth="yes"/>
      <point x="348" y="92"/>
      <point x="336" y="101"/>
      <point x="322" y="101" type="curve" smooth="yes"/>
      <point x="291" y="101"/>
      <point x="273" y="59"/>
      <point x="273" y="21" type="curve" smooth="yes"/>
      <point x="273" y="-35"/>
      <point x="306" y="-97"/>
      <point x="394" y="-97" type="curve" smooth="yes"/>
      <point x="457" y="-97"/>
      <point x="514" y="-67"/>
      <point x="561" y="-67" type="curve" smooth="yes"/>
      <point x="600" y="-67"/>
      <point x="632" y="-88"/>
      <point x="632" y="-125" type="curve"/>
    </contour>
    <contour>
      <point x="691" y="-170"/>
      <point x="704" y="-150"/>
      <point x="704" y="-125" type="curve" smooth="yes"/>
      <point x="704" y="36" type="line"/>
      <point x="631" y="36" type="line"/>
      <point x="631" y="-125" type="line" smooth="yes"/>
      <point x="631" y="-146"/>
      <point x="643" y="-170"/>
      <point x="670" y="-170" type="curve" smooth="yes"/>
    </contour>
  </outline>
</glyph>
<glyph name="bCCha" format="1">
  <advance width="772"/>
  <outline>
    <contour>
      <point x="299" y="63"/>
      <point x="415" y="220"/>
      <point x="415" y="290" type="curve" smooth="yes"/>
      <point x="415" y="334"/>
      <point x="403" y="371"/>
      <point x="297" y="391" type="curve" smooth="yes"/>
      <point x="230" y="404"/>
      <point x="154" y="431"/>
      <point x="154" y="491" type="curve" smooth="yes"/>
      <point x="154" y="525"/>
      <point x="176" y="528"/>
      <point x="202" y="528" type="curve" smooth="yes"/>
      <point x="281" y="528" type="line"/>
      <point x="281" y="587" type="line"/>
      <point x="167" y="587" type="line" smooth="yes"/>
      <point x="121" y="587"/>
      <point x="98" y="568"/>
      <point x="98" y="515" type="curve"/>
      <point x="112" y="515" type="line"/>
      <point x="106" y="560"/>
      <point x="81" y="587"/>
      <point x="26" y="587" type="curve" smooth="yes"/>
      <point x="0" y="587" type="line" smooth="yes"/>
      <point x="-19" y="587"/>
      <point x="-33" y="575"/>
      <point x="-33" y="558" type="curve" smooth="yes"/>
      <point x="-33" y="542"/>
      <point x="-19" y="528"/>
      <point x="0" y="528" type="curve" smooth="yes"/>
      <point x="31" y="528" type="line" smooth="yes"/>
      <point x="77" y="528"/>
      <point x="90" y="490"/>
      <point x="90" y="438" type="curve" smooth="yes"/>
      <point x="90" y="185" type="line" smooth="yes"/>
      <point x="90" y="112"/>
      <point x="117" y="63"/>
      <point x="180" y="63" type="curve" smooth="yes"/>
    </contour>
    <contour>
      <point x="173" y="131"/>
      <point x="157" y="145"/>
      <point x="157" y="198" type="curve" smooth="yes"/>
      <point x="157" y="416" type="line"/>
      <point x="127" y="416" type="line"/>
      <point x="169" y="344"/>
      <point x="267" y="334"/>
      <point x="301" y="325" type="curve" smooth="yes"/>
      <point x="329" y="318"/>
      <point x="345" y="306"/>
      <point x="345" y="287" type="curve" smooth="yes"/>
      <point x="345" y="236"/>
      <point x="245" y="131"/>
      <point x="197" y="131" type="curve" smooth="yes"/>
    </contour>
    <component base="bCha" xOffset="272"/>
  </outline>
</glyph>
<glyph name="bCNa" format="1">
  <advance width="465"/>
  <outline>
    <contour>
      <point x="304" y="53"/>
      <point x="441" y="208"/>
      <point x="440" y="296" type="curve" smooth="yes"/>
      <point x="440" y="350"/>
      <point x="402" y="367"/>
      <point x="319" y="383" type="curve" smooth="yes"/>
      <point x="223" y="402"/>
      <point x="164" y="422"/>
      <point x="164" y="484" type="curve" smooth="yes"/>
      <point x="164" y="524"/>
      <point x="187" y="529"/>
      <point x="225" y="529" type="curve" smooth="yes"/>
      <point x="465" y="528" type="line" smooth="yes"/>
      <point x="484" y="528"/>
      <point x="498" y="541"/>
      <point x="498" y="558" type="curve" smooth="yes"/>
      <point x="498" y="575"/>
      <point x="484" y="587"/>
      <point x="465" y="587" type="curve" smooth="yes"/>
      <point x="184" y="587" type="line" smooth="yes"/>
      <point x="134" y="587"/>
      <point x="105" y="555"/>
      <point x="105" y="518" type="curve"/>
      <point x="118" y="526" type="line"/>
      <point x="113" y="553"/>
      <point x="81" y="587"/>
      <point x="36" y="587" type="curve" smooth="yes"/>
      <point x="0" y="587" type="line" smooth="yes"/>
      <point x="-19" y="587"/>
      <point x="-33" y="575"/>
      <point x="-33" y="558" type="curve" smooth="yes"/>
      <point x="-33" y="542"/>
      <point x="-19" y="528"/>
      <point x="0" y="528" type="curve" smooth="yes"/>
      <point x="34" y="528" type="line" smooth="yes"/>
      <point x="88" y="528"/>
      <point x="96" y="486"/>
      <point x="96" y="427" type="curve" smooth="yes"/>
      <point x="95" y="195" type="line" smooth="yes"/>
      <point x="94" y="106"/>
      <point x="115" y="53"/>
      <point x="183" y="53" type="curve" smooth="yes"/>
    </contour>
    <contour>
      <point x="344" y="-182"/>
      <point x="359" y="-164"/>
      <point x="359" y="-141" type="curve" smooth="yes"/>
      <point x="359" y="158" type="line"/>
      <point x="291" y="139" type="line"/>
      <point x="291" y="-141" type="line" smooth="yes"/>
      <point x="291" y="-164"/>
      <point x="306" y="-182"/>
      <point x="325" y="-182" type="curve" smooth="yes"/>
    </contour>
    <contour>
      <point x="115" y="-106"/>
      <point x="97" y="-92"/>
      <point x="97" y="-72" type="curve" smooth="yes"/>
      <point x="97" y="-50"/>
      <point x="112" y="-37"/>
      <point x="132" y="-37" type="curve" smooth="yes"/>
      <point x="150" y="-37"/>
      <point x="166" y="-49"/>
      <point x="166" y="-71" type="curve" smooth="yes"/>
      <point x="166" y="-91"/>
      <point x="150" y="-106"/>
      <point x="133" y="-106" type="curve" smooth="yes"/>
    </contour>
    <contour>
      <point x="174" y="-161"/>
      <point x="216" y="-127"/>
      <point x="216" y="-78" type="curve" smooth="yes"/>
      <point x="216" y="-37"/>
      <point x="187" y="2"/>
      <point x="144" y="5" type="curve"/>
      <point x="161" y="-25" type="line"/>
      <point x="217" y="-20"/>
      <point x="291" y="-64"/>
      <point x="291" y="-128" type="curve"/>
      <point x="333" y="-107" type="line"/>
      <point x="312" y="-22"/>
      <point x="236" y="34"/>
      <point x="153" y="34" type="curve" smooth="yes"/>
      <point x="78" y="34"/>
      <point x="34" y="-16"/>
      <point x="34" y="-69" type="curve" smooth="yes"/>
      <point x="34" y="-122"/>
      <point x="76" y="-161"/>
      <point x="128" y="-161" type="curve" smooth="yes"/>
    </contour>
    <contour>
      <point x="163" y="133"/>
      <point x="163" y="175"/>
      <point x="163" y="205" type="curve" smooth="yes"/>
      <point x="163" y="416" type="line"/>
      <point x="143" y="404" type="line"/>
      <point x="167" y="355"/>
      <point x="241" y="336"/>
      <point x="307" y="324" type="curve" smooth="yes"/>
      <point x="348" y="319"/>
      <point x="363" y="306"/>
      <point x="363" y="283" type="curve" smooth="yes"/>
      <point x="363" y="238"/>
      <point x="257" y="133"/>
      <point x="198" y="133" type="curve" smooth="yes"/>
    </contour>
  </outline>
</glyph>
<glyph name="bCNya" format="1">
  <advance width="860"/>
  <outline>
    <contour>
      <point x="288" y="118"/>
      <point x="405" y="256"/>
      <point x="405" y="337" type="curve" smooth="yes"/>
      <point x="405" y="375"/>
      <point x="386" y="405"/>
      <point x="293" y="426" type="curve" smooth="yes"/>
      <point x="225" y="441"/>
      <point x="154" y="465"/>
      <point x="154" y="505" type="curve" smooth="yes"/>
      <point x="154" y="528"/>
      <point x="176" y="528"/>
      <point x="197" y="528" type="curve" smooth="yes"/>
      <point x="860" y="528" type="line" smooth="yes"/>
      <point x="879" y="528"/>
      <point x="893" y="541"/>
      <point x="893" y="558" type="curve" smooth="yes"/>
      <point x="893" y="575"/>
      <point x="879" y="587"/>
      <point x="860" y="587" type="curve" smooth="yes"/>
      <point x="167" y="587" type="line" smooth="yes"/>
      <point x="124" y="587"/>
      <point x="97" y="567"/>
      <point x="97" y="522" type="curve"/>
      <point x="107" y="522" type="line"/>
      <point x="107" y="557"/>
      <point x="81" y="587"/>
      <point x="35" y="587" type="curve" smooth="yes"/>
      <point x="0" y="587" type="line" smooth="yes"/>
      <point x="-19" y="587"/>
      <point x="-33" y="575"/>
      <point x="-33" y="558" type="curve" smooth="yes"/>
      <point x="-33" y="542"/>
      <point x="-19" y="528"/>
      <point x="0" y="528" type="curve" smooth="yes"/>
      <point x="37" y="528" type="line" smooth="yes"/>
      <point x="77" y="528"/>
      <point x="89" y="495"/>
      <point x="89" y="456" type="curve" smooth="yes"/>
      <point x="89" y="231" type="line" smooth="yes"/>
      <point x="89" y="161"/>
      <point x="116" y="118"/>
      <point x="174" y="118" type="curve" smooth="yes"/>
    </contour>
    <contour>
      <point x="588" y="-165"/>
      <point x="598" y="-146"/>
      <point x="598" y="-122" type="curve" smooth="yes"/>
      <point x="598" y="290" type="line" smooth="yes"/>
      <point x="598" y="361"/>
      <point x="583" y="406"/>
      <point x="517" y="406" type="curve" smooth="yes"/>
      <point x="392" y="406"/>
      <point x="271" y="256"/>
      <point x="271" y="158" type="curve" smooth="yes"/>
      <point x="271" y="90"/>
      <point x="314" y="58"/>
      <point x="364" y="58" type="curve" smooth="yes"/>
      <point x="420" y="58"/>
      <point x="461" y="93"/>
      <point x="461" y="147" type="curve" smooth="yes"/>
      <point x="461" y="193"/>
      <point x="423" y="231"/>
      <point x="376" y="231" type="curve" smooth="yes"/>
      <point x="358" y="231"/>
      <point x="341" y="226"/>
      <point x="324" y="214" type="curve"/>
      <point x="355" y="207" type="line"/>
      <point x="378" y="279"/>
      <point x="453" y="343"/>
      <point x="501" y="343" type="curve" smooth="yes"/>
      <point x="532" y="343"/>
      <point x="531" y="313"/>
      <point x="531" y="266" type="curve" smooth="yes"/>
      <point x="531" y="-75" type="line"/>
      <point x="554" y="-64" type="line"/>
      <point x="533" y="-23"/>
      <point x="491" y="5"/>
      <point x="429" y="5" type="curve" smooth="yes"/>
      <point x="343" y="5"/>
      <point x="271" y="-49"/>
      <point x="183" y="-49" type="curve" smooth="yes"/>
      <point x="145" y="-49"/>
      <point x="101" y="-34"/>
      <point x="101" y="19" type="curve" smooth="yes"/>
      <point x="101" y="54"/>
      <point x="115" y="71"/>
      <point x="115" y="91" type="curve" smooth="yes"/>
      <point x="115" y="110"/>
      <point x="100" y="117"/>
      <point x="86" y="117" type="curve" smooth="yes"/>
      <point x="55" y="117"/>
      <point x="30" y="79"/>
      <point x="30" y="19" type="curve" smooth="yes"/>
      <point x="30" y="-77"/>
      <point x="109" y="-124"/>
      <point x="185" y="-124" type="curve" smooth="yes"/>
      <point x="302" y="-124"/>
      <point x="369" y="-69"/>
      <point x="443" y="-69" type="curve" smooth="yes"/>
      <point x="476" y="-69"/>
      <point x="517" y="-75"/>
      <point x="526" y="-129" type="curve" smooth="yes"/>
      <point x="530" y="-146"/>
      <point x="542" y="-165"/>
      <point x="563" y="-165" type="curve" smooth="yes"/>
    </contour>
    <contour>
      <point x="173" y="184"/>
      <point x="157" y="197"/>
      <point x="157" y="250" type="curve" smooth="yes"/>
      <point x="157" y="451" type="line"/>
      <point x="126" y="436" type="line"/>
      <point x="164" y="383"/>
      <point x="253" y="368"/>
      <point x="287" y="359" type="curve" smooth="yes"/>
      <point x="314" y="352"/>
      <point x="330" y="341"/>
      <point x="330" y="322" type="curve" smooth="yes"/>
      <point x="330" y="276"/>
      <point x="242" y="184"/>
      <point x="193" y="184" type="curve" smooth="yes"/>
    </contour>
    <contour>
      <point x="349" y="116"/>
      <point x="334" y="129"/>
      <point x="334" y="149" type="curve" smooth="yes"/>
      <point x="334" y="167"/>
      <point x="349" y="182"/>
      <point x="367" y="182" type="curve" smooth="yes"/>
      <point x="386" y="182"/>
      <point x="400" y="167"/>
      <point x="400" y="149" type="curve" smooth="yes"/>
      <point x="400" y="129"/>
      <point x="385" y="116"/>
      <point x="368" y="116" type="curve" smooth="yes"/>
    </contour>
    <contour>
      <point x="798" y="-64"/>
      <point x="860" y="-19"/>
      <point x="860" y="58" type="curve" smooth="yes"/>
      <point x="860" y="126"/>
      <point x="807" y="197"/>
      <point x="737" y="197" type="curve" smooth="yes"/>
      <point x="700" y="197"/>
      <point x="669" y="169"/>
      <point x="669" y="132" type="curve" smooth="yes"/>
      <point x="669" y="96"/>
      <point x="699" y="71"/>
      <point x="737" y="71" type="curve" smooth="yes"/>
      <point x="805" y="71"/>
      <point x="856" y="155"/>
      <point x="856" y="225" type="curve" smooth="yes"/>
      <point x="856" y="282"/>
      <point x="810" y="343"/>
      <point x="730" y="343" type="curve" smooth="yes"/>
      <point x="613" y="343"/>
      <point x="548" y="224"/>
      <point x="548" y="135" type="curve" smooth="yes"/>
      <point x="548" y="41"/>
      <point x="618" y="-64"/>
      <point x="731" y="-64" type="curve" smooth="yes"/>
    </contour>
    <contour>
      <point x="662" y="-2"/>
      <point x="598" y="50"/>
      <point x="598" y="131" type="curve" smooth="yes"/>
      <point x="598" y="209"/>
      <point x="657" y="279"/>
      <point x="730" y="279" type="curve" smooth="yes"/>
      <point x="770" y="279"/>
      <point x="799" y="252"/>
      <point x="799" y="210" type="curve" smooth="yes"/>
      <point x="799" y="161"/>
      <point x="769" y="122"/>
      <point x="739" y="122" type="curve" smooth="yes"/>
      <point x="727" y="122"/>
      <point x="722" y="129"/>
      <point x="722" y="135" type="curve" smooth="yes"/>
      <point x="722" y="141"/>
      <point x="727" y="148"/>
      <point x="739" y="148" type="curve" smooth="yes"/>
      <point x="771" y="148"/>
      <point x="803" y="114"/>
      <point x="803" y="76" type="curve" smooth="yes"/>
      <point x="803" y="30"/>
      <point x="767" y="-2"/>
      <point x="721" y="-2" type="curve" smooth="yes"/>
    </contour>
  </outline>
</glyph>
<glyph name="bCRa" format="1">
  <advance width="500"/>
  <outline>
    <contour>
      <point x="336" y="28"/>
      <point x="475" y="181"/>
      <point x="475" y="291" type="curve" smooth="yes"/>
      <point x="475" y="350"/>
      <point x="437" y="367"/>
      <point x="354" y="383" type="curve" smooth="yes"/>
      <point x="258" y="402"/>
      <point x="199" y="420"/>
      <point x="199" y="484" type="curve" smooth="yes"/>
      <point x="199" y="521"/>
      <point x="220" y="529"/>
      <point x="252" y="529" type="curve" smooth="yes"/>
      <point x="500" y="528" type="line" smooth="yes"/>
      <point x="519" y="528"/>
      <point x="533" y="541"/>
      <point x="533" y="558" type="curve" smooth="yes"/>
      <point x="533" y="575"/>
      <point x="519" y="587"/>
      <point x="500" y="587" type="curve" smooth="yes"/>
      <point x="219" y="587" type="line" smooth="yes"/>
      <point x="169" y="587"/>
      <point x="140" y="555"/>
      <point x="140" y="518" type="curve"/>
      <point x="153" y="526" type="line"/>
      <point x="148" y="553"/>
      <point x="116" y="587"/>
      <point x="71" y="587" type="curve" smooth="yes"/>
      <point x="0" y="587" type="line" smooth="yes"/>
      <point x="-19" y="587"/>
      <point x="-33" y="575"/>
      <point x="-33" y="558" type="curve" smooth="yes"/>
      <point x="-33" y="542"/>
      <point x="-19" y="528"/>
      <point x="0" y="528" type="curve" smooth="yes"/>
      <point x="69" y="528" type="line" smooth="yes"/>
      <point x="131" y="528"/>
      <point x="131" y="467"/>
      <point x="131" y="388" type="curve" smooth="yes"/>
      <point x="130" y="158" type="line" smooth="yes"/>
      <point x="129" y="64"/>
      <point x="150" y="28"/>
      <point x="215" y="28" type="curve" smooth="yes"/>
    </contour>
    <contour>
      <point x="198" y="103"/>
      <point x="198" y="145"/>
      <point x="198" y="175" type="curve" smooth="yes"/>
      <point x="198" y="411" type="line"/>
      <point x="178" y="399" type="line"/>
      <point x="201" y="350"/>
      <point x="271" y="330"/>
      <point x="337" y="319" type="curve" smooth="yes"/>
      <point x="383" y="314"/>
      <point x="398" y="302"/>
      <point x="398" y="277" type="curve" smooth="yes"/>
      <point x="398" y="220"/>
      <point x="291" y="103"/>
      <point x="233" y="103" type="curve" smooth="yes"/>
    </contour>
    <contour>
      <point x="425" y="-184"/>
      <point x="437" y="-164"/>
      <point x="437" y="-138" type="curve" smooth="yes"/>
      <point x="437" y="214" type="line"/>
      <point x="369" y="160" type="line"/>
      <point x="369" y="-138" type="line" smooth="yes"/>
      <point x="369" y="-159"/>
      <point x="380" y="-184"/>
      <point x="405" y="-184" type="curve" smooth="yes"/>
    </contour>
    <contour>
      <point x="402" y="-123" type="line"/>
      <point x="394" y="-69"/>
      <point x="356" y="-12"/>
      <point x="294" y="-12" type="curve" smooth="yes"/>
      <point x="247" y="-12"/>
      <point x="192" y="-35"/>
      <point x="149" y="-35" type="curve" smooth="yes"/>
      <point x="114" y="-35"/>
      <point x="91" y="-14"/>
      <point x="91" y="17" type="curve" smooth="yes"/>
      <point x="91" y="36"/>
      <point x="100" y="55"/>
      <point x="100" y="70" type="curve" smooth="yes"/>
      <point x="100" y="88"/>
      <point x="89" y="98"/>
      <point x="74" y="98" type="curve" smooth="yes"/>
      <point x="44" y="98"/>
      <point x="27" y="55"/>
      <point x="27" y="18" type="curve" smooth="yes"/>
      <point x="27" y="-38"/>
      <point x="61" y="-103"/>
      <point x="152" y="-103" type="curve" smooth="yes"/>
      <point x="210" y="-103"/>
      <point x="271" y="-80"/>
      <point x="313" y="-80" type="curve" smooth="yes"/>
      <point x="342" y="-80"/>
      <point x="369" y="-98"/>
      <point x="369" y="-138" type="curve"/>
    </contour>
  </outline>
</glyph>
<glyph name="bCa" format="1">
  <advance width="465"/>
  <outline>
    <contour>
      <point x="301" y="-12"/>
      <point x="440" y="189"/>
      <point x="440" y="281" type="curve" smooth="yes"/>
      <point x="440" y="340"/>
      <point x="402" y="357"/>
      <point x="319" y="373" type="curve" smooth="yes"/>
      <point x="223" y="392"/>
      <point x="164" y="415"/>
      <point x="164" y="480" type="curve" smooth="yes"/>
      <point x="164" y="521"/>
      <point x="187" y="529"/>
      <point x="225" y="529" type="curve" smooth="yes"/>
      <point x="465" y="528" type="line" smooth="yes"/>
      <point x="484" y="528"/>
      <point x="498" y="541"/>
      <point x="498" y="558" type="curve" smooth="yes"/>
      <point x="498" y="575"/>
      <point x="484" y="587"/>
      <point x="465" y="587" type="curve" smooth="yes"/>
      <point x="184" y="587" type="line" smooth="yes"/>
      <point x="134" y="587"/>
      <point x="105" y="555"/>
      <point x="105" y="518" type="curve"/>
      <point x="118" y="526" type="line"/>
      <point x="113" y="553"/>
      <point x="81" y="587"/>
      <point x="36" y="587" type="curve" smooth="yes"/>
      <point x="0" y="587" type="line" smooth="yes"/>
      <point x="-19" y="587"/>
      <point x="-33" y="575"/>
      <point x="-33" y="558" type="curve" smooth="yes"/>
      <point x="-33" y="542"/>
      <point x="-19" y="528"/>
      <point x="0" y="528" type="curve" smooth="yes"/>
      <point x="34" y="528" type="line" smooth="yes"/>
      <point x="88" y="528"/>
      <point x="96" y="486"/>
      <point x="96" y="427" type="curve" smooth="yes"/>
      <point x="95" y="130" type="line" smooth="yes"/>
      <point x="94" y="41"/>
      <point x="115" y="-12"/>
      <point x="187" y="-12" type="curve" smooth="yes"/>
    </contour>
    <contour>
      <point x="163" y="68"/>
      <point x="163" y="110"/>
      <point x="163" y="140" type="curve" smooth="yes"/>
      <point x="163" y="406" type="line"/>
      <point x="143" y="394" type="line"/>
      <point x="167" y="345"/>
      <point x="241" y="326"/>
      <point x="307" y="314" type="curve" smooth="yes"/>
      <point x="348" y="309"/>
      <point x="363" y="292"/>
      <point x="363" y="268" type="curve" smooth="yes"/>
      <point x="363" y="214"/>
      <point x="257" y="68"/>
      <point x="198" y="68" type="curve" smooth="yes"/>
    </contour>
  </outline>
</glyph>
<glyph name="bCandrabindu" format="1">
  <advance width="0"/>
  <outline>
    <contour>
      <point x="-48" y="617"/>
      <point x="4" y="670"/>
      <point x="4" y="712" type="curve" smooth="yes"/>
      <point x="4" y="731"/>
      <point x="-8" y="735"/>
      <point x="-15" y="735" type="curve" smooth="yes"/>
      <point x="-43" y="735"/>
      <point x="-48" y="673"/>
      <point x="-121" y="673" type="curve" smooth="yes"/>
      <point x="-194" y="673"/>
      <point x="-204" y="737"/>
      <point x="-230" y="737" type="curve" smooth="yes"/>
      <point x="-238" y="737"/>
      <point x="-249" y="731"/>
      <point x="-249" y="712" type="curve" smooth="yes"/>
      <point x="-249" y="671"/>
      <point x="-194" y="617"/>
      <point x="-120" y="617" type="curve" smooth="yes"/>
    </contour>
    <contour>
      <point x="-91" y="705"/>
      <point x="-63" y="726"/>
      <point x="-63" y="762" type="curve" smooth="yes"/>
      <point x="-63" y="797"/>
      <point x="-91" y="824"/>
      <point x="-124" y="824" type="curve" smooth="yes"/>
      <point x="-156" y="824"/>
      <point x="-183" y="799"/>
      <point x="-183" y="765" type="curve" smooth="yes"/>
      <point x="-183" y="732"/>
      <point x="-156" y="705"/>
      <point x="-122" y="705" type="curve" smooth="yes"/>
    </contour>
    <contour>
      <point x="-133" y="744"/>
      <point x="-143" y="753"/>
      <point x="-143" y="766" type="curve" smooth="yes"/>
      <point x="-143" y="777"/>
      <point x="-134" y="787"/>
      <point x="-123" y="787" type="curve" smooth="yes"/>
      <point x="-110" y="787"/>
      <point x="-102" y="776"/>
      <point x="-102" y="765" type="curve" smooth="yes"/>
      <point x="-102" y="751"/>
      <point x="-111" y="744"/>
      <point x="-122" y="744" type="curve" smooth="yes"/>
    </contour>
  </outline>
</glyph>
<glyph name="bChBa" format="1">
  <advance width="500"/>
  <outline>
    <contour>
      <point x="502" y="-3"/>
      <point x="515" y="11"/>
      <point x="515" y="27" type="curve" smooth="yes"/>
      <point x="515" y="43"/>
      <point x="504" y="54"/>
      <point x="479" y="58" type="curve" smooth="yes"/>
      <point x="441" y="62"/>
      <point x="386" y="70"/>
      <point x="331" y="114" type="curve" smooth="yes"/>
      <point x="280" y="157"/>
      <point x="231" y="184"/>
      <point x="189" y="184" type="curve" smooth="yes"/>
      <point x="136" y="184"/>
      <point x="108" y="151"/>
      <point x="108" y="115" type="curve" smooth="yes"/>
      <point x="108" y="73"/>
      <point x="150" y="46"/>
      <point x="200" y="46" type="curve" smooth="yes"/>
      <point x="319" y="46"/>
      <point x="467" y="152"/>
      <point x="467" y="283" type="curve" smooth="yes"/>
      <point x="467" y="379"/>
      <point x="401" y="453"/>
      <point x="286" y="453" type="curve" smooth="yes"/>
      <point x="230" y="453"/>
      <point x="168" y="461"/>
      <point x="168" y="497" type="curve" smooth="yes"/>
      <point x="168" y="524"/>
      <point x="184" y="528"/>
      <point x="211" y="528" type="curve" smooth="yes"/>
      <point x="500" y="528" type="line" smooth="yes"/>
      <point x="519" y="528"/>
      <point x="533" y="541"/>
      <point x="533" y="558" type="curve" smooth="yes"/>
      <point x="533" y="575"/>
      <point x="519" y="587"/>
      <point x="500" y="587" type="curve" smooth="yes"/>
      <point x="191" y="587" type="line" smooth="yes"/>
      <point x="138" y="587"/>
      <point x="115" y="560"/>
      <point x="115" y="516" type="curve"/>
      <point x="129" y="523" type="line"/>
      <point x="122" y="560"/>
      <point x="90" y="587"/>
      <point x="39" y="587" type="curve" smooth="yes"/>
      <point x="0" y="587" type="line" smooth="yes"/>
      <point x="-19" y="587"/>
      <point x="-33" y="575"/>
      <point x="-33" y="558" type="curve" smooth="yes"/>
      <point x="-33" y="542"/>
      <point x="-19" y="528"/>
      <point x="0" y="528" type="curve" smooth="yes"/>
      <point x="36" y="528" type="line" smooth="yes"/>
      <point x="91" y="528"/>
      <point x="101" y="502"/>
      <point x="101" y="468" type="curve" smooth="yes"/>
      <point x="100" y="304" type="line" smooth="yes"/>
      <point x="99" y="241"/>
      <point x="127" y="209"/>
      <point x="190" y="209" type="curve" smooth="yes"/>
      <point x="281" y="209"/>
      <point x="384" y="315"/>
      <point x="366" y="388" type="curve"/>
      <point x="350" y="392" type="line"/>
      <point x="387" y="370"/>
      <point x="405" y="339"/>
      <point x="405" y="294" type="curve" smooth="yes"/>
      <point x="405" y="201"/>
      <point x="283" y="107"/>
      <point x="198" y="107" type="curve" smooth="yes"/>
      <point x="177" y="107"/>
      <point x="167" y="115"/>
      <point x="167" y="121" type="curve" smooth="yes"/>
      <point x="167" y="126"/>
      <point x="172" y="129"/>
      <point x="181" y="129" type="curve" smooth="yes"/>
      <point x="201" y="129"/>
      <point x="240" y="109"/>
      <point x="270" y="83" type="curve" smooth="yes"/>
      <point x="337" y="27"/>
      <point x="432" y="-3"/>
      <point x="479" y="-3" type="curve" smooth="yes"/>
    </contour>
    <contour>
      <point x="424" y="-138" type="line"/>
      <point x="399" y="-67"/>
      <point x="303" y="-32"/>
      <point x="249" y="-32" type="curve"/>
      <point x="264" y="-53" type="line"/>
      <point x="414" y="29" type="line"/>
      <point x="385" y="72" type="line"/>
      <point x="239" y="-3" type="line" smooth="yes"/>
      <point x="218" y="-15"/>
      <point x="203" y="-25"/>
      <point x="203" y="-43" type="curve" smooth="yes"/>
      <point x="203" y="-59"/>
      <point x="214" y="-70"/>
      <point x="234" y="-76" type="curve" smooth="yes"/>
      <point x="295" y="-91"/>
      <point x="381" y="-115"/>
      <point x="388" y="-151" type="curve"/>
    </contour>
    <contour>
      <point x="439" y="-181"/>
      <point x="449" y="-165"/>
      <point x="449" y="-143" type="curve" smooth="yes"/>
      <point x="450" y="51" type="line"/>
      <point x="387" y="49" type="line"/>
      <point x="387" y="-143" type="line" smooth="yes"/>
      <point x="387" y="-165"/>
      <point x="401" y="-181"/>
      <point x="421" y="-181" type="curve" smooth="yes"/>
    </contour>
    <contour>
      <point x="171" y="268"/>
      <point x="167" y="289"/>
      <point x="167" y="325" type="curve" smooth="yes"/>
      <point x="167" y="457" type="line"/>
      <point x="152" y="447" type="line"/>
      <point x="163" y="415"/>
      <point x="207" y="401"/>
      <point x="252" y="401" type="curve" smooth="yes"/>
      <point x="288" y="401"/>
      <point x="312" y="402"/>
      <point x="312" y="374" type="curve" smooth="yes"/>
      <point x="312" y="333"/>
      <point x="244" y="268"/>
      <point x="198" y="268" type="curve" smooth="yes"/>
    </contour>
  </outline>
</glyph>
<glyph name="bChRa" format="1">
  <advance width="548"/>
  <outline>
    <contour>
      <point x="514" y="-17"/>
      <point x="531" y="-4"/>
      <point x="531" y="14" type="curve" smooth="yes"/>
      <point x="531" y="30"/>
      <point x="520" y="43"/>
      <point x="495" y="44" type="curve" smooth="yes"/>
      <point x="457" y="45"/>
      <point x="401" y="67"/>
      <point x="347" y="104" type="curve" smooth="yes"/>
      <point x="293" y="144"/>
      <point x="247" y="174"/>
      <point x="205" y="174" type="curve" smooth="yes"/>
      <point x="152" y="174"/>
      <point x="124" y="142"/>
      <point x="124" y="106" type="curve" smooth="yes"/>
      <point x="124" y="63"/>
      <point x="166" y="36"/>
      <point x="216" y="36" type="curve" smooth="yes"/>
      <point x="335" y="36"/>
      <point x="483" y="133"/>
      <point x="483" y="267" type="curve" smooth="yes"/>
      <point x="483" y="354"/>
      <point x="417" y="438"/>
      <point x="302" y="438" type="curve" smooth="yes"/>
      <point x="246" y="438"/>
      <point x="184" y="452"/>
      <point x="184" y="497" type="curve" smooth="yes"/>
      <point x="184" y="524"/>
      <point x="200" y="528"/>
      <point x="227" y="528" type="curve" smooth="yes"/>
      <point x="548" y="528" type="line" smooth="yes"/>
      <point x="567" y="528"/>
      <point x="581" y="541"/>
      <point x="581" y="558" type="curve" smooth="yes"/>
      <point x="581" y="575"/>
      <point x="567" y="587"/>
      <point x="548" y="587" type="curve" smooth="yes"/>
      <point x="207" y="587" type="line" smooth="yes"/>
      <point x="154" y="587"/>
      <point x="131" y="560"/>
      <point x="131" y="516" type="curve"/>
      <point x="145" y="523" type="line"/>
      <point x="138" y="560"/>
      <point x="106" y="587"/>
      <point x="55" y="587" type="curve" smooth="yes"/>
      <point x="0" y="587" type="line" smooth="yes"/>
      <point x="-19" y="587"/>
      <point x="-33" y="575"/>
      <point x="-33" y="558" type="curve" smooth="yes"/>
      <point x="-33" y="542"/>
      <point x="-19" y="528"/>
      <point x="0" y="528" type="curve" smooth="yes"/>
      <point x="52" y="528" type="line" smooth="yes"/>
      <point x="107" y="528"/>
      <point x="117" y="502"/>
      <point x="117" y="468" type="curve" smooth="yes"/>
      <point x="116" y="279" type="line" smooth="yes"/>
      <point x="115" y="217"/>
      <point x="143" y="184"/>
      <point x="206" y="184" type="curve" smooth="yes"/>
      <point x="297" y="184"/>
      <point x="408" y="304"/>
      <point x="385" y="377" type="curve"/>
      <point x="362" y="372" type="line"/>
      <point x="406" y="347"/>
      <point x="421" y="314"/>
      <point x="421" y="275" type="curve" smooth="yes"/>
      <point x="421" y="172"/>
      <point x="299" y="97"/>
      <point x="214" y="97" type="curve" smooth="yes"/>
      <point x="193" y="97"/>
      <point x="183" y="105"/>
      <point x="183" y="111" type="curve" smooth="yes"/>
      <point x="183" y="116"/>
      <point x="188" y="119"/>
      <point x="197" y="119" type="curve" smooth="yes"/>
      <point x="217" y="119"/>
      <point x="252" y="95"/>
      <point x="292" y="68" type="curve" smooth="yes"/>
      <point x="359" y="23"/>
      <point x="448" y="-17"/>
      <point x="490" y="-17" type="curve" smooth="yes"/>
    </contour>
    <contour>
      <point x="187" y="244"/>
      <point x="183" y="265"/>
      <point x="183" y="301" type="curve" smooth="yes"/>
      <point x="183" y="457" type="line"/>
      <point x="168" y="447" type="line"/>
      <point x="179" y="400"/>
      <point x="223" y="386"/>
      <point x="268" y="386" type="curve" smooth="yes"/>
      <point x="304" y="386"/>
      <point x="328" y="377"/>
      <point x="328" y="350" type="curve" smooth="yes"/>
      <point x="328" y="308"/>
      <point x="260" y="244"/>
      <point x="214" y="244" type="curve" smooth="yes"/>
    </contour>
    <contour>
      <point x="420" y="-105" type="line"/>
      <point x="412" y="-47"/>
      <point x="365" y="-2"/>
      <point x="304" y="-2" type="curve" smooth="yes"/>
      <point x="251" y="-2"/>
      <point x="196" y="-27"/>
      <point x="148" y="-27" type="curve" smooth="yes"/>
      <point x="111" y="-27"/>
      <point x="88" y="-5"/>
      <point x="88" y="26" type="curve" smooth="yes"/>
      <point x="88" y="45"/>
      <point x="97" y="64"/>
      <point x="97" y="78" type="curve" smooth="yes"/>
      <point x="97" y="97"/>
      <point x="86" y="106"/>
      <point x="71" y="106" type="curve" smooth="yes"/>
      <point x="41" y="106"/>
      <point x="24" y="63"/>
      <point x="24" y="27" type="curve" smooth="yes"/>
      <point x="24" y="-37"/>
      <point x="66" y="-94"/>
      <point x="153" y="-94" type="curve" smooth="yes"/>
      <point x="226" y="-94"/>
      <point x="274" y="-68"/>
      <point x="318" y="-68" type="curve" smooth="yes"/>
      <point x="352" y="-68"/>
      <point x="381" y="-86"/>
      <point x="381" y="-125" type="curve"/>
    </contour>
    <contour>
      <point x="437" y="-170"/>
      <point x="449" y="-150"/>
      <point x="449" y="-125" type="curve" smooth="yes"/>
      <point x="449" y="44" type="line"/>
      <point x="381" y="44" type="line"/>
      <point x="381" y="-125" type="line" smooth="yes"/>
      <point x="381" y="-146"/>
      <point x="392" y="-170"/>
      <point x="417" y="-170" type="curve" smooth="yes"/>
    </contour>
  </outline>
</glyph>
<glyph name="bCha" format="1">
  <advance width="500"/>
  <outline>
    <contour>
      <point x="512" y="-82"/>
      <point x="525" y="-70"/>
      <point x="525" y="-53" type="curve" smooth="yes"/>
      <point x="525" y="-37"/>
      <point x="514" y="-26"/>
      <point x="489" y="-22" type="curve" smooth="yes"/>
      <point x="451" y="-18"/>
      <point x="401" y="38"/>
      <point x="346" y="84" type="curve" smooth="yes"/>
      <point x="297" y="130"/>
      <point x="246" y="159"/>
      <point x="204" y="159" type="curve" smooth="yes"/>
      <point x="151" y="159"/>
      <point x="123" y="127"/>
      <point x="123" y="91" type="curve" smooth="yes"/>
      <point x="123" y="48"/>
      <point x="165" y="21"/>
      <point x="215" y="21" type="curve" smooth="yes"/>
      <point x="334" y="21"/>
      <point x="467" y="127"/>
      <point x="467" y="258" type="curve" smooth="yes"/>
      <point x="467" y="354"/>
      <point x="401" y="438"/>
      <point x="286" y="438" type="curve" smooth="yes"/>
      <point x="220" y="438"/>
      <point x="168" y="454"/>
      <point x="168" y="497" type="curve" smooth="yes"/>
      <point x="168" y="524"/>
      <point x="184" y="528"/>
      <point x="211" y="528" type="curve" smooth="yes"/>
      <point x="500" y="528" type="line" smooth="yes"/>
      <point x="519" y="528"/>
      <point x="533" y="541"/>
      <point x="533" y="558" type="curve" smooth="yes"/>
      <point x="533" y="575"/>
      <point x="519" y="587"/>
      <point x="500" y="587" type="curve" smooth="yes"/>
      <point x="187" y="587" type="line" smooth="yes"/>
      <point x="132" y="587"/>
      <point x="110" y="560"/>
      <point x="110" y="516" type="curve"/>
      <point x="129" y="523" type="line"/>
      <point x="122" y="560"/>
      <point x="90" y="587"/>
      <point x="39" y="587" type="curve" smooth="yes"/>
      <point x="0" y="587" type="line" smooth="yes"/>
      <point x="-19" y="587"/>
      <point x="-33" y="575"/>
      <point x="-33" y="558" type="curve" smooth="yes"/>
      <point x="-33" y="542"/>
      <point x="-19" y="528"/>
      <point x="0" y="528" type="curve" smooth="yes"/>
      <point x="36" y="528" type="line" smooth="yes"/>
      <point x="91" y="528"/>
      <point x="101" y="502"/>
      <point x="101" y="468" type="curve" smooth="yes"/>
      <point x="100" y="279" type="line" smooth="yes"/>
      <point x="99" y="217"/>
      <point x="127" y="184"/>
      <point x="190" y="184" type="curve" smooth="yes"/>
      <point x="281" y="184"/>
      <point x="367" y="287"/>
      <point x="367" y="355" type="curve" smooth="yes"/>
      <point x="367" y="383"/>
      <point x="348" y="398"/>
      <point x="335" y="398" type="curve"/>
      <point x="336" y="379" type="line"/>
      <point x="377" y="364"/>
      <point x="405" y="324"/>
      <point x="405" y="269" type="curve" smooth="yes"/>
      <point x="405" y="177"/>
      <point x="298" y="82"/>
      <point x="213" y="82" type="curve" smooth="yes"/>
      <point x="192" y="82"/>
      <point x="182" y="90"/>
      <point x="182" y="96" type="curve" smooth="yes"/>
      <point x="182" y="101"/>
      <point x="187" y="104"/>
      <point x="196" y="104" type="curve" smooth="yes"/>
      <point x="216" y="104"/>
      <point x="256" y="80"/>
      <point x="285" y="53" type="curve" smooth="yes"/>
      <point x="350" y="-5"/>
      <point x="431" y="-82"/>
      <point x="491" y="-82" type="curve" smooth="yes"/>
    </contour>
    <contour>
      <point x="171" y="244"/>
      <point x="167" y="265"/>
      <point x="167" y="301" type="curve" smooth="yes"/>
      <point x="167" y="457" type="line"/>
      <point x="152" y="449" type="line"/>
      <point x="161" y="406"/>
      <point x="207" y="388"/>
      <point x="252" y="388" type="curve" smooth="yes"/>
      <point x="288" y="388"/>
      <point x="307" y="377"/>
      <point x="307" y="350" type="curve" smooth="yes"/>
      <point x="307" y="308"/>
      <point x="244" y="244"/>
      <point x="198" y="244" type="curve" smooth="yes"/>
    </contour>
  </outline>
</glyph>
<glyph name="bDBa" format="1">
  <advance width="528"/>
  <outline>
    <contour>
      <point x="435" y="-82"/>
      <point x="445" y="-60"/>
      <point x="445" y="-29" type="curve" smooth="yes"/>
      <point x="443" y="109"/>
      <point x="435" y="164"/>
      <point x="435" y="234" type="curve" smooth="yes"/>
      <point x="435" y="316"/>
      <point x="459" y="379"/>
      <point x="459" y="413" type="curve" smooth="yes"/>
      <point x="459" y="428"/>
      <point x="453" y="444"/>
      <point x="428" y="444" type="curve" smooth="yes"/>
      <point x="388" y="444"/>
      <point x="247" y="370"/>
      <point x="131" y="280" type="curve"/>
      <point x="156" y="260" type="line"/>
      <point x="156" y="432" type="line" smooth="yes"/>
      <point x="156" y="476"/>
      <point x="155" y="528"/>
      <point x="205" y="528" type="curve" smooth="yes"/>
      <point x="528" y="528" type="line" smooth="yes"/>
      <point x="547" y="528"/>
      <point x="561" y="541"/>
      <point x="561" y="558" type="curve" smooth="yes"/>
      <point x="561" y="575"/>
      <point x="547" y="587"/>
      <point x="528" y="587" type="curve" smooth="yes"/>
      <point x="182" y="587" type="line" smooth="yes"/>
      <point x="136" y="587"/>
      <point x="105" y="556"/>
      <point x="105" y="521" type="curve"/>
      <point x="118" y="526" type="line"/>
      <point x="119" y="558"/>
      <point x="77" y="587"/>
      <point x="36" y="587" type="curve" smooth="yes"/>
      <point x="0" y="587" type="line" smooth="yes"/>
      <point x="-19" y="587"/>
      <point x="-33" y="575"/>
      <point x="-33" y="558" type="curve" smooth="yes"/>
      <point x="-33" y="542"/>
      <point x="-19" y="528"/>
      <point x="0" y="528" type="curve" smooth="yes"/>
      <point x="36" y="528" type="line" smooth="yes"/>
      <point x="93" y="528"/>
      <point x="88" y="479"/>
      <point x="88" y="441" type="curve" smooth="yes"/>
      <point x="88" y="231" type="line" smooth="yes"/>
      <point x="88" y="200"/>
      <point x="101" y="189"/>
      <point x="119" y="191" type="curve" smooth="yes"/>
      <point x="139" y="193"/>
      <point x="150" y="204"/>
      <point x="193" y="234" type="curve" smooth="yes"/>
      <point x="254" y="281"/>
      <point x="348" y="346"/>
      <point x="413" y="372" type="curve"/>
      <point x="412" y="393" type="line"/>
      <point x="375" y="353"/>
      <point x="370" y="286"/>
      <point x="370" y="235" type="curve" smooth="yes"/>
      <point x="370" y="164"/>
      <point x="376" y="121"/>
      <point x="377" y="-29" type="curve" smooth="yes"/>
      <point x="377" y="-63"/>
      <point x="392" y="-82"/>
      <point x="413" y="-82" type="curve" smooth="yes"/>
    </contour>
    <contour>
      <point x="417" y="-6" type="line"/>
      <point x="383" y="65"/>
      <point x="266" y="120"/>
      <point x="213" y="118" type="curve"/>
      <point x="215" y="94" type="line"/>
      <point x="409" y="211" type="line"/>
      <point x="409" y="289" type="line"/>
      <point x="186" y="157" type="line" smooth="yes"/>
      <point x="155" y="139"/>
      <point x="142" y="127"/>
      <point x="142" y="108" type="curve" smooth="yes"/>
      <point x="142" y="87"/>
      <point x="156" y="74"/>
      <point x="176" y="70" type="curve" smooth="yes"/>
      <point x="274" y="44"/>
      <point x="372" y="-4"/>
      <point x="378" y="-39" type="curve"/>
    </contour>
  </outline>
</glyph>
<glyph name="bDBhRa" format="1">
  <advance width="571"/>
  <outline>
    <contour>
      <point x="407" y="150" type="line"/>
      <point x="405" y="203"/>
      <point x="383" y="253"/>
      <point x="383" y="313" type="curve" smooth="yes"/>
      <point x="383" y="382"/>
      <point x="421" y="424"/>
      <point x="421" y="458" type="curve" smooth="yes"/>
      <point x="421" y="473"/>
      <point x="415" y="489"/>
      <point x="390" y="489" type="curve" smooth="yes"/>
      <point x="350" y="489"/>
      <point x="214" y="417"/>
      <point x="152" y="375" type="curve"/>
      <point x="183" y="360" type="line"/>
      <point x="183" y="443" type="line" smooth="yes"/>
      <point x="183" y="476"/>
      <point x="182" y="528"/>
      <point x="232" y="528" type="curve" smooth="yes"/>
      <point x="557" y="528" type="line" smooth="yes"/>
      <point x="575" y="528"/>
      <point x="590" y="541"/>
      <point x="590" y="558" type="curve" smooth="yes"/>
      <point x="590" y="575"/>
      <point x="575" y="587"/>
      <point x="557" y="587" type="curve" smooth="yes"/>
      <point x="209" y="587" type="line" smooth="yes"/>
      <point x="163" y="587"/>
      <point x="132" y="556"/>
      <point x="132" y="521" type="curve"/>
      <point x="145" y="526" type="line"/>
      <point x="146" y="558"/>
      <point x="104" y="587"/>
      <point x="63" y="587" type="curve" smooth="yes"/>
      <point x="-15" y="587" type="line" smooth="yes"/>
      <point x="-34" y="587"/>
      <point x="-48" y="575"/>
      <point x="-48" y="558" type="curve" smooth="yes"/>
      <point x="-48" y="542"/>
      <point x="-34" y="528"/>
      <point x="-15" y="528" type="curve" smooth="yes"/>
      <point x="63" y="528" type="line" smooth="yes"/>
      <point x="120" y="528"/>
      <point x="115" y="479"/>
      <point x="115" y="441" type="curve" smooth="yes"/>
      <point x="115" y="336" type="line" smooth="yes"/>
      <point x="115" y="307"/>
      <point x="130" y="299"/>
      <point x="142" y="299" type="curve" smooth="yes"/>
      <point x="158" y="299"/>
      <point x="171" y="308"/>
      <point x="203" y="328" type="curve" smooth="yes"/>
      <point x="247" y="359"/>
      <point x="320" y="401"/>
      <point x="381" y="426" type="curve"/>
      <point x="369" y="441" type="line"/>
      <point x="335" y="401"/>
      <point x="324" y="354"/>
      <point x="324" y="312" type="curve" smooth="yes"/>
      <point x="324" y="267"/>
      <point x="349" y="205"/>
      <point x="351" y="134" type="curve"/>
    </contour>
    <contour>
      <point x="511" y="-90"/>
      <point x="519" y="-67"/>
      <point x="519" y="-43" type="curve" smooth="yes"/>
      <point x="519" y="113" type="line" smooth="yes"/>
      <point x="519" y="198"/>
      <point x="489" y="281"/>
      <point x="444" y="281" type="curve" smooth="yes"/>
      <point x="424" y="281"/>
      <point x="412" y="263"/>
      <point x="410" y="238" type="curve" smooth="yes"/>
      <point x="406" y="197"/>
      <point x="368" y="142"/>
      <point x="299" y="142" type="curve" smooth="yes"/>
      <point x="274" y="142"/>
      <point x="240" y="152"/>
      <point x="215" y="170" type="curve"/>
      <point x="187" y="166" type="line"/>
      <point x="200" y="151"/>
      <point x="221" y="140"/>
      <point x="241" y="140" type="curve" smooth="yes"/>
      <point x="295" y="140"/>
      <point x="320" y="182"/>
      <point x="320" y="219" type="curve" smooth="yes"/>
      <point x="320" y="262"/>
      <point x="287" y="302"/>
      <point x="240" y="302" type="curve" smooth="yes"/>
      <point x="198" y="302"/>
      <point x="150" y="271"/>
      <point x="150" y="213" type="curve" smooth="yes"/>
      <point x="150" y="149"/>
      <point x="214" y="82"/>
      <point x="305" y="82" type="curve" smooth="yes"/>
      <point x="414" y="82"/>
      <point x="452" y="185"/>
      <point x="452" y="218" type="curve"/>
      <point x="425" y="205" type="line"/>
      <point x="448" y="186"/>
      <point x="452" y="140"/>
      <point x="452" y="100" type="curve" smooth="yes"/>
      <point x="452" y="-29" type="line"/>
      <point x="467" y="-36" type="line"/>
      <point x="462" y="15"/>
      <point x="406" y="40"/>
      <point x="354" y="40" type="curve" smooth="yes"/>
      <point x="304" y="40"/>
      <point x="220" y="16"/>
      <point x="178" y="16" type="curve" smooth="yes"/>
      <point x="139" y="16"/>
      <point x="115" y="36"/>
      <point x="115" y="70" type="curve" smooth="yes"/>
      <point x="115" y="93"/>
      <point x="124" y="114"/>
      <point x="124" y="129" type="curve" smooth="yes"/>
      <point x="124" y="144"/>
      <point x="115" y="154"/>
      <point x="99" y="154" type="curve" smooth="yes"/>
      <point x="65" y="154"/>
      <point x="52" y="107"/>
      <point x="52" y="73" type="curve" smooth="yes"/>
      <point x="52" y="14"/>
      <point x="87" y="-54"/>
      <point x="175" y="-54" type="curve" smooth="yes"/>
      <point x="229" y="-54"/>
      <point x="322" y="-29"/>
      <point x="370" y="-29" type="curve" smooth="yes"/>
      <point x="409" y="-29"/>
      <point x="440" y="-45"/>
      <point x="445" y="-63" type="curve" smooth="yes"/>
      <point x="452" y="-76"/>
      <point x="463" y="-90"/>
      <point x="483" y="-90" type="curve" smooth="yes"/>
    </contour>
    <contour>
      <point x="221" y="179"/>
      <point x="205" y="190"/>
      <point x="205" y="210" type="curve" smooth="yes"/>
      <point x="205" y="230"/>
      <point x="222" y="240"/>
      <point x="236" y="240" type="curve" smooth="yes"/>
      <point x="251" y="240"/>
      <point x="267" y="230"/>
      <point x="267" y="209" type="curve" smooth="yes"/>
      <point x="267" y="188"/>
      <point x="250" y="179"/>
      <point x="236" y="179" type="curve" smooth="yes"/>
    </contour>
  </outline>
</glyph>
<glyph name="bDBha" format="1">
  <advance width="571"/>
  <outline>
    <contour>
      <point x="447" y="150" type="line"/>
      <point x="445" y="203"/>
      <point x="423" y="253"/>
      <point x="423" y="311" type="curve" smooth="yes"/>
      <point x="423" y="382"/>
      <point x="461" y="424"/>
      <point x="461" y="458" type="curve" smooth="yes"/>
      <point x="461" y="473"/>
      <point x="455" y="489"/>
      <point x="430" y="489" type="curve" smooth="yes"/>
      <point x="390" y="489"/>
      <point x="254" y="417"/>
      <point x="192" y="375" type="curve"/>
      <point x="223" y="360" type="line"/>
      <point x="223" y="443" type="line" smooth="yes"/>
      <point x="223" y="476"/>
      <point x="222" y="528"/>
      <point x="272" y="528" type="curve" smooth="yes"/>
      <point x="590" y="528" type="line" smooth="yes"/>
      <point x="609" y="528"/>
      <point x="623" y="541"/>
      <point x="623" y="558" type="curve" smooth="yes"/>
      <point x="623" y="575"/>
      <point x="609" y="587"/>
      <point x="590" y="587" type="curve" smooth="yes"/>
      <point x="249" y="587" type="line" smooth="yes"/>
      <point x="203" y="587"/>
      <point x="172" y="556"/>
      <point x="172" y="521" type="curve"/>
      <point x="185" y="526" type="line"/>
      <point x="186" y="558"/>
      <point x="144" y="587"/>
      <point x="103" y="587" type="curve" smooth="yes"/>
      <point x="0" y="587" type="line" smooth="yes"/>
      <point x="-19" y="587"/>
      <point x="-33" y="575"/>
      <point x="-33" y="558" type="curve" smooth="yes"/>
      <point x="-33" y="542"/>
      <point x="-19" y="528"/>
      <point x="0" y="528" type="curve" smooth="yes"/>
      <point x="103" y="528" type="line" smooth="yes"/>
      <point x="160" y="528"/>
      <point x="155" y="479"/>
      <point x="155" y="441" type="curve" smooth="yes"/>
      <point x="155" y="336" type="line" smooth="yes"/>
      <point x="155" y="307"/>
      <point x="170" y="299"/>
      <point x="182" y="299" type="curve" smooth="yes"/>
      <point x="198" y="299"/>
      <point x="211" y="308"/>
      <point x="243" y="328" type="curve" smooth="yes"/>
      <point x="287" y="359"/>
      <point x="360" y="401"/>
      <point x="421" y="426" type="curve"/>
      <point x="409" y="441" type="line"/>
      <point x="377" y="402"/>
      <point x="367" y="357"/>
      <point x="367" y="316" type="curve" smooth="yes"/>
      <point x="367" y="261"/>
      <point x="389" y="219"/>
      <point x="391" y="134" type="curve"/>
    </contour>
    <contour>
      <point x="483" y="-66"/>
      <point x="555" y="32"/>
      <point x="555" y="136" type="curve" smooth="yes"/>
      <point x="555" y="211"/>
      <point x="524" y="281"/>
      <point x="483" y="281" type="curve" smooth="yes"/>
      <point x="464" y="281"/>
      <point x="452" y="262"/>
      <point x="451" y="240" type="curve" smooth="yes"/>
      <point x="450" y="201"/>
      <point x="410" y="143"/>
      <point x="340" y="143" type="curve" smooth="yes"/>
      <point x="314" y="143"/>
      <point x="279" y="152"/>
      <point x="255" y="170" type="curve"/>
      <point x="226" y="166" type="line"/>
      <point x="240" y="151"/>
      <point x="260" y="140"/>
      <point x="280" y="140" type="curve" smooth="yes"/>
      <point x="335" y="140"/>
      <point x="359" y="182"/>
      <point x="359" y="219" type="curve" smooth="yes"/>
      <point x="359" y="262"/>
      <point x="327" y="302"/>
      <point x="279" y="302" type="curve" smooth="yes"/>
      <point x="237" y="302"/>
      <point x="189" y="271"/>
      <point x="189" y="213" type="curve" smooth="yes"/>
      <point x="189" y="149"/>
      <point x="254" y="82"/>
      <point x="345" y="82" type="curve" smooth="yes"/>
      <point x="453" y="82"/>
      <point x="493" y="173"/>
      <point x="493" y="213" type="curve"/>
      <point x="474" y="203" type="line"/>
      <point x="488" y="186"/>
      <point x="495" y="158"/>
      <point x="495" y="132" type="curve" smooth="yes"/>
      <point x="495" y="57"/>
      <point x="435" y="7"/>
      <point x="347" y="7" type="curve" smooth="yes"/>
      <point x="157" y="7"/>
      <point x="83" y="271"/>
      <point x="61" y="411" type="curve" smooth="yes"/>
      <point x="58" y="432"/>
      <point x="50" y="446"/>
      <point x="32" y="446" type="curve" smooth="yes"/>
      <point x="11" y="446"/>
      <point x="5" y="428"/>
      <point x="5" y="412" type="curve" smooth="yes"/>
      <point x="5" y="316"/>
      <point x="82" y="-66"/>
      <point x="347" y="-66" type="curve" smooth="yes"/>
    </contour>
    <contour>
      <point x="261" y="179"/>
      <point x="245" y="190"/>
      <point x="245" y="210" type="curve" smooth="yes"/>
      <point x="245" y="230"/>
      <point x="262" y="240"/>
      <point x="276" y="240" type="curve" smooth="yes"/>
      <point x="291" y="240"/>
      <point x="307" y="230"/>
      <point x="307" y="209" type="curve" smooth="yes"/>
      <point x="307" y="188"/>
      <point x="290" y="179"/>
      <point x="276" y="179" type="curve" smooth="yes"/>
    </contour>
  </outline>
</glyph>
<glyph name="bDDBa" format="1">
  <advance width="692"/>
  <outline>
    <contour>
      <point x="629" y="-140"/>
      <point x="639" y="-118"/>
      <point x="639" y="-98" type="curve" smooth="yes"/>
      <point x="639" y="81"/>
      <point x="624" y="112"/>
      <point x="624" y="193" type="curve" smooth="yes"/>
      <point x="624" y="290"/>
      <point x="653" y="344"/>
      <point x="653" y="378" type="curve" smooth="yes"/>
      <point x="653" y="393"/>
      <point x="646" y="412"/>
      <point x="622" y="412" type="curve" smooth="yes"/>
      <point x="580" y="412"/>
      <point x="461" y="316"/>
      <point x="361" y="220" type="curve"/>
      <point x="392" y="197" type="line"/>
      <point x="392" y="292" type="line" smooth="yes"/>
      <point x="392" y="388"/>
      <point x="424" y="411"/>
      <point x="424" y="443" type="curve" smooth="yes"/>
      <point x="424" y="458"/>
      <point x="418" y="477"/>
      <point x="393" y="477" type="curve" smooth="yes"/>
      <point x="352" y="477"/>
      <point x="228" y="371"/>
      <point x="136" y="267" type="curve"/>
      <point x="156" y="250" type="line"/>
      <point x="156" y="432" type="line" smooth="yes"/>
      <point x="156" y="478"/>
      <point x="154" y="528"/>
      <point x="210" y="528" type="curve" smooth="yes"/>
      <point x="692" y="528" type="line" smooth="yes"/>
      <point x="710" y="528"/>
      <point x="723" y="541"/>
      <point x="723" y="558" type="curve" smooth="yes"/>
      <point x="723" y="575"/>
      <point x="709" y="587"/>
      <point x="692" y="587" type="curve" smooth="yes"/>
      <point x="182" y="587" type="line" smooth="yes"/>
      <point x="131" y="587"/>
      <point x="98" y="555"/>
      <point x="101" y="515" type="curve"/>
      <point x="118" y="520" type="line"/>
      <point x="117" y="557"/>
      <point x="78" y="587"/>
      <point x="35" y="587" type="curve" smooth="yes"/>
      <point x="0" y="587" type="line" smooth="yes"/>
      <point x="-19" y="587"/>
      <point x="-33" y="574"/>
      <point x="-33" y="558" type="curve" smooth="yes"/>
      <point x="-33" y="541"/>
      <point x="-19" y="528"/>
      <point x="0" y="528" type="curve" smooth="yes"/>
      <point x="36" y="528" type="line" smooth="yes"/>
      <point x="93" y="528"/>
      <point x="89" y="479"/>
      <point x="89" y="441" type="curve" smooth="yes"/>
      <point x="89" y="189" type="line" smooth="yes"/>
      <point x="89" y="167"/>
      <point x="98" y="156"/>
      <point x="117" y="156" type="curve" smooth="yes"/>
      <point x="140" y="156"/>
      <point x="153" y="177"/>
      <point x="186" y="214" type="curve" smooth="yes"/>
      <point x="229" y="264"/>
      <point x="315" y="349"/>
      <point x="367" y="392" type="curve"/>
      <point x="356" y="396" type="line"/>
      <point x="334" y="366"/>
      <point x="325" y="327"/>
      <point x="325" y="281" type="curve" smooth="yes"/>
      <point x="325" y="181" type="line" smooth="yes"/>
      <point x="325" y="148"/>
      <point x="340" y="138"/>
      <point x="357" y="138" type="curve" smooth="yes"/>
      <point x="375" y="138"/>
      <point x="391" y="156"/>
      <point x="416" y="178" type="curve" smooth="yes"/>
      <point x="478" y="234"/>
      <point x="551" y="294"/>
      <point x="602" y="332" type="curve"/>
      <point x="592" y="340" type="line"/>
      <point x="565" y="299"/>
      <point x="560" y="243"/>
      <point x="560" y="187" type="curve" smooth="yes"/>
      <point x="560" y="108"/>
      <point x="570" y="79"/>
      <point x="571" y="-85" type="curve" smooth="yes"/>
      <point x="571" y="-121"/>
      <point x="587" y="-140"/>
      <point x="608" y="-140" type="curve" smooth="yes"/>
    </contour>
    <contour>
      <point x="613" y="-83" type="line"/>
      <point x="582" y="3"/>
      <point x="463" y="54"/>
      <point x="394" y="54" type="curve"/>
      <point x="417" y="28" type="line"/>
      <point x="600" y="141" type="line"/>
      <point x="600" y="223" type="line"/>
      <point x="386" y="91" type="line" smooth="yes"/>
      <point x="355" y="72"/>
      <point x="344" y="62"/>
      <point x="344" y="43" type="curve" smooth="yes"/>
      <point x="344" y="26"/>
      <point x="358" y="12"/>
      <point x="378" y="7" type="curve" smooth="yes"/>
      <point x="481" y="-25"/>
      <point x="567" y="-61"/>
      <point x="573" y="-102" type="curve"/>
    </contour>
  </outline>
</glyph>
<glyph name="bDDRa" format="1">
  <advance width="692"/>
  <outline>
    <contour>
      <point x="606" y="-111" type="line"/>
      <point x="595" y="-36"/>
      <point x="526" y="-11"/>
      <point x="469" y="-11" type="curve" smooth="yes"/>
      <point x="409" y="-11"/>
      <point x="345" y="-41"/>
      <point x="295" y="-41" type="curve" smooth="yes"/>
      <point x="265" y="-41"/>
      <point x="241" y="-27"/>
      <point x="241" y="7" type="curve" smooth="yes"/>
      <point x="241" y="27"/>
      <point x="248" y="45"/>
      <point x="248" y="59" type="curve" smooth="yes"/>
      <point x="248" y="74"/>
      <point x="239" y="84"/>
      <point x="223" y="84" type="curve" smooth="yes"/>
      <point x="191" y="84"/>
      <point x="178" y="41"/>
      <point x="178" y="7" type="curve" smooth="yes"/>
      <point x="178" y="-53"/>
      <point x="216" y="-107"/>
      <point x="293" y="-107" type="curve" smooth="yes"/>
      <point x="357" y="-107"/>
      <point x="427" y="-75"/>
      <point x="484" y="-75" type="curve" smooth="yes"/>
      <point x="540" y="-75"/>
      <point x="572" y="-97"/>
      <point x="572" y="-133" type="curve"/>
    </contour>
    <contour>
      <point x="629" y="-176"/>
      <point x="639" y="-155"/>
      <point x="639" y="-133" type="curve" smooth="yes"/>
      <point x="639" y="-53" type="line" smooth="yes"/>
      <point x="639" y="25"/>
      <point x="624" y="105"/>
      <point x="624" y="160" type="curve" smooth="yes"/>
      <point x="624" y="246"/>
      <point x="653" y="314"/>
      <point x="653" y="348" type="curve" smooth="yes"/>
      <point x="653" y="363"/>
      <point x="646" y="382"/>
      <point x="622" y="382" type="curve" smooth="yes"/>
      <point x="580" y="382"/>
      <point x="461" y="260"/>
      <point x="366" y="154" type="curve"/>
      <point x="393" y="142" type="line"/>
      <point x="391" y="263" type="line" smooth="yes"/>
      <point x="390" y="364"/>
      <point x="424" y="405"/>
      <point x="424" y="443" type="curve" smooth="yes"/>
      <point x="424" y="458"/>
      <point x="418" y="477"/>
      <point x="393" y="477" type="curve" smooth="yes"/>
      <point x="352" y="477"/>
      <point x="228" y="356"/>
      <point x="136" y="252" type="curve"/>
      <point x="156" y="235" type="line"/>
      <point x="156" y="432" type="line" smooth="yes"/>
      <point x="156" y="478"/>
      <point x="154" y="528"/>
      <point x="210" y="528" type="curve" smooth="yes"/>
      <point x="692" y="528" type="line" smooth="yes"/>
      <point x="711" y="528"/>
      <point x="725" y="541"/>
      <point x="725" y="558" type="curve" smooth="yes"/>
      <point x="725" y="575"/>
      <point x="711" y="587"/>
      <point x="692" y="587" type="curve" smooth="yes"/>
      <point x="182" y="587" type="line" smooth="yes"/>
      <point x="135" y="587"/>
      <point x="103" y="555"/>
      <point x="106" y="515" type="curve"/>
      <point x="118" y="520" type="line"/>
      <point x="117" y="557"/>
      <point x="75" y="587"/>
      <point x="32" y="587" type="curve" smooth="yes"/>
      <point x="0" y="587" type="line" smooth="yes"/>
      <point x="-19" y="587"/>
      <point x="-33" y="575"/>
      <point x="-33" y="558" type="curve" smooth="yes"/>
      <point x="-33" y="542"/>
      <point x="-19" y="528"/>
      <point x="0" y="528" type="curve" smooth="yes"/>
      <point x="36" y="528" type="line" smooth="yes"/>
      <point x="93" y="528"/>
      <point x="89" y="479"/>
      <point x="89" y="441" type="curve" smooth="yes"/>
      <point x="89" y="174" type="line" smooth="yes"/>
      <point x="89" y="152"/>
      <point x="98" y="141"/>
      <point x="117" y="141" type="curve" smooth="yes"/>
      <point x="140" y="141"/>
      <point x="153" y="162"/>
      <point x="186" y="199" type="curve" smooth="yes"/>
      <point x="229" y="249"/>
      <point x="315" y="345"/>
      <point x="367" y="392" type="curve"/>
      <point x="356" y="396" type="line"/>
      <point x="334" y="360"/>
      <point x="324" y="301"/>
      <point x="324" y="243" type="curve" smooth="yes"/>
      <point x="325" y="79" type="line" smooth="yes"/>
      <point x="325" y="57"/>
      <point x="334" y="46"/>
      <point x="352" y="46" type="curve" smooth="yes"/>
      <point x="375" y="46"/>
      <point x="387" y="66"/>
      <point x="420" y="105" type="curve" smooth="yes"/>
      <point x="462" y="156"/>
      <point x="548" y="254"/>
      <point x="602" y="302" type="curve"/>
      <point x="592" y="310" type="line"/>
      <point x="565" y="269"/>
      <point x="560" y="213"/>
      <point x="560" y="165" type="curve" smooth="yes"/>
      <point x="560" y="104"/>
      <point x="572" y="24"/>
      <point x="572" y="-53" type="curve" smooth="yes"/>
      <point x="572" y="-133" type="line" smooth="yes"/>
      <point x="572" y="-155"/>
      <point x="586" y="-176"/>
      <point x="606" y="-176" type="curve" smooth="yes"/>
    </contour>
  </outline>
</glyph>
<glyph name="bDDa" format="1">
  <advance width="692"/>
  <outline>
    <contour>
      <point x="632" y="-102"/>
      <point x="639" y="-78"/>
      <point x="639" y="-41" type="curve" smooth="yes"/>
      <point x="639" y="52"/>
      <point x="624" y="103"/>
      <point x="624" y="160" type="curve" smooth="yes"/>
      <point x="624" y="246"/>
      <point x="653" y="314"/>
      <point x="653" y="348" type="curve" smooth="yes"/>
      <point x="653" y="363"/>
      <point x="646" y="382"/>
      <point x="622" y="382" type="curve" smooth="yes"/>
      <point x="580" y="382"/>
      <point x="461" y="260"/>
      <point x="366" y="154" type="curve"/>
      <point x="393" y="142" type="line"/>
      <point x="391" y="263" type="line" smooth="yes"/>
      <point x="390" y="364"/>
      <point x="424" y="405"/>
      <point x="424" y="443" type="curve" smooth="yes"/>
      <point x="424" y="458"/>
      <point x="418" y="477"/>
      <point x="393" y="477" type="curve" smooth="yes"/>
      <point x="352" y="477"/>
      <point x="228" y="356"/>
      <point x="136" y="252" type="curve"/>
      <point x="156" y="235" type="line"/>
      <point x="156" y="432" type="line" smooth="yes"/>
      <point x="156" y="478"/>
      <point x="154" y="528"/>
      <point x="210" y="528" type="curve" smooth="yes"/>
      <point x="692" y="528" type="line" smooth="yes"/>
      <point x="711" y="528"/>
      <point x="725" y="541"/>
      <point x="725" y="558" type="curve" smooth="yes"/>
      <point x="725" y="575"/>
      <point x="711" y="587"/>
      <point x="692" y="587" type="curve" smooth="yes"/>
      <point x="182" y="587" type="line" smooth="yes"/>
      <point x="135" y="587"/>
      <point x="103" y="555"/>
      <point x="106" y="515" type="curve"/>
      <point x="118" y="520" type="line"/>
      <point x="117" y="557"/>
      <point x="75" y="587"/>
      <point x="32" y="587" type="curve" smooth="yes"/>
      <point x="0" y="587" type="line" smooth="yes"/>
      <point x="-19" y="587"/>
      <point x="-33" y="575"/>
      <point x="-33" y="558" type="curve" smooth="yes"/>
      <point x="-33" y="542"/>
      <point x="-19" y="528"/>
      <point x="0" y="528" type="curve" smooth="yes"/>
      <point x="36" y="528" type="line" smooth="yes"/>
      <point x="93" y="528"/>
      <point x="89" y="479"/>
      <point x="89" y="441" type="curve" smooth="yes"/>
      <point x="89" y="174" type="line" smooth="yes"/>
      <point x="89" y="152"/>
      <point x="98" y="141"/>
      <point x="117" y="141" type="curve" smooth="yes"/>
      <point x="140" y="141"/>
      <point x="153" y="162"/>
      <point x="186" y="199" type="curve" smooth="yes"/>
      <point x="229" y="249"/>
      <point x="315" y="345"/>
      <point x="367" y="392" type="curve"/>
      <point x="356" y="396" type="line"/>
      <point x="334" y="360"/>
      <point x="324" y="301"/>
      <point x="324" y="243" type="curve" smooth="yes"/>
      <point x="325" y="79" type="line" smooth="yes"/>
      <point x="325" y="57"/>
      <point x="334" y="46"/>
      <point x="352" y="46" type="curve" smooth="yes"/>
      <point x="375" y="46"/>
      <point x="387" y="66"/>
      <point x="420" y="105" type="curve" smooth="yes"/>
      <point x="462" y="156"/>
      <point x="548" y="254"/>
      <point x="602" y="302" type="curve"/>
      <point x="592" y="310" type="line"/>
      <point x="565" y="269"/>
      <point x="560" y="213"/>
      <point x="560" y="165" type="curve" smooth="yes"/>
      <point x="560" y="103"/>
      <point x="572" y="51"/>
      <point x="572" y="-41" type="curve" smooth="yes"/>
      <point x="572" y="-78"/>
      <point x="584" y="-102"/>
      <point x="608" y="-102" type="curve" smooth="yes"/>
    </contour>
  </outline>
</glyph>
<glyph name="bDDhBa" format="1">
  <advance width="663"/>
  <outline>
    <contour>
      <point x="435" y="-130"/>
      <point x="445" y="-108"/>
      <point x="445" y="-76" type="curve" smooth="yes"/>
      <point x="444" y="106"/>
      <point x="438" y="176"/>
      <point x="438" y="274" type="curve" smooth="yes"/>
      <point x="438" y="367"/>
      <point x="459" y="414"/>
      <point x="459" y="448" type="curve" smooth="yes"/>
      <point x="459" y="463"/>
      <point x="453" y="479"/>
      <point x="428" y="479" type="curve" smooth="yes"/>
      <point x="388" y="479"/>
      <point x="247" y="404"/>
      <point x="131" y="313" type="curve"/>
      <point x="156" y="295" type="line"/>
      <point x="156" y="432" type="line" smooth="yes"/>
      <point x="156" y="476"/>
      <point x="155" y="528"/>
      <point x="205" y="528" type="curve" smooth="yes"/>
      <point x="663" y="528" type="line" smooth="yes"/>
      <point x="682" y="528"/>
      <point x="696" y="541"/>
      <point x="696" y="558" type="curve" smooth="yes"/>
      <point x="696" y="575"/>
      <point x="682" y="587"/>
      <point x="663" y="587" type="curve" smooth="yes"/>
      <point x="182" y="587" type="line" smooth="yes"/>
      <point x="136" y="587"/>
      <point x="105" y="556"/>
      <point x="105" y="521" type="curve"/>
      <point x="118" y="526" type="line"/>
      <point x="119" y="558"/>
      <point x="77" y="587"/>
      <point x="36" y="587" type="curve" smooth="yes"/>
      <point x="0" y="587" type="line" smooth="yes"/>
      <point x="-19" y="587"/>
      <point x="-33" y="575"/>
      <point x="-33" y="558" type="curve" smooth="yes"/>
      <point x="-33" y="542"/>
      <point x="-19" y="528"/>
      <point x="0" y="528" type="curve" smooth="yes"/>
      <point x="36" y="528" type="line" smooth="yes"/>
      <point x="93" y="528"/>
      <point x="88" y="479"/>
      <point x="88" y="441" type="curve" smooth="yes"/>
      <point x="88" y="266" type="line" smooth="yes"/>
      <point x="88" y="235"/>
      <point x="101" y="224"/>
      <point x="119" y="226" type="curve" smooth="yes"/>
      <point x="139" y="228"/>
      <point x="150" y="239"/>
      <point x="193" y="269" type="curve" smooth="yes"/>
      <point x="254" y="317"/>
      <point x="348" y="383"/>
      <point x="413" y="409" type="curve"/>
      <point x="412" y="428" type="line"/>
      <point x="377" y="388"/>
      <point x="373" y="332"/>
      <point x="373" y="270" type="curve" smooth="yes"/>
      <point x="373" y="179"/>
      <point x="377" y="107"/>
      <point x="377" y="-77" type="curve" smooth="yes"/>
      <point x="377" y="-111"/>
      <point x="392" y="-130"/>
      <point x="413" y="-130" type="curve" smooth="yes"/>
    </contour>
    <contour>
      <point x="419" y="-66" type="line"/>
      <point x="388" y="-1"/>
      <point x="304" y="43"/>
      <point x="234" y="43" type="curve"/>
      <point x="238" y="21" type="line"/>
      <point x="397" y="110" type="line"/>
      <point x="395" y="177" type="line"/>
      <point x="227" y="80" type="line" smooth="yes"/>
      <point x="195" y="61"/>
      <point x="184" y="49"/>
      <point x="184" y="32" type="curve" smooth="yes"/>
      <point x="184" y="13"/>
      <point x="197" y="1"/>
      <point x="218" y="-4" type="curve" smooth="yes"/>
      <point x="279" y="-16"/>
      <point x="372" y="-49"/>
      <point x="380" y="-94" type="curve"/>
    </contour>
    <contour>
      <point x="329" y="112" type="line"/>
      <point x="298" y="133"/>
      <point x="233" y="155"/>
      <point x="195" y="155" type="curve"/>
      <point x="208" y="127" type="line"/>
      <point x="573" y="341" type="line"/>
      <point x="574" y="358" type="line"/>
      <point x="539" y="330"/>
      <point x="532" y="271"/>
      <point x="532" y="225" type="curve" smooth="yes"/>
      <point x="532" y="-28" type="line" smooth="yes"/>
      <point x="532" y="-51"/>
      <point x="547" y="-69"/>
      <point x="566" y="-69" type="curve" smooth="yes"/>
      <point x="586" y="-69"/>
      <point x="600" y="-51"/>
      <point x="600" y="-27" type="curve" smooth="yes"/>
      <point x="600" y="234" type="line" smooth="yes"/>
      <point x="600" y="343"/>
      <point x="625" y="366"/>
      <point x="625" y="403" type="curve" smooth="yes"/>
      <point x="625" y="419"/>
      <point x="617" y="429"/>
      <point x="603" y="429" type="curve" smooth="yes"/>
      <point x="590" y="429"/>
      <point x="576" y="423"/>
      <point x="548" y="407" type="curve" smooth="yes"/>
      <point x="182" y="192" type="line" smooth="yes"/>
      <point x="151" y="173"/>
      <point x="140" y="163"/>
      <point x="140" y="144" type="curve" smooth="yes"/>
      <point x="140" y="126"/>
      <point x="154" y="112"/>
      <point x="174" y="107" type="curve" smooth="yes"/>
      <point x="202" y="101"/>
      <point x="241" y="96"/>
      <point x="272" y="81" type="curve"/>
    </contour>
  </outline>
</glyph>
